<svg xmlns="http://www.w3.org/2000/svg" viewBox="0 0 1283.33 268"><defs><style>.cls-1{fill:#797979;}</style></defs><g id="Layer_2" data-name="Layer 2"><g id="AVA_Digital_Awards" data-name="AVA Digital Awards"><path class="cls-1" d="M70.91,0H137.7l70.91,267.9H152.33L140,211.24H68.66L56.28,267.9H0ZM78,167h52.53L104.68,46.53h-.75Z"/><path class="cls-1" d="M232.51,0,270.4,198.11h1.13L311.3,0h55.91L305.68,267.9H236.27L174.73,0Z"/><path class="cls-1" d="M406.62,0H473.4l70.91,267.9H488l-12.39-56.66H404.36L392,267.9H335.7Zm7.12,167h52.53L440.38,46.53h-.75Z"/><polyline class="cls-1" points="559.7 0.56 567.7 0.56 567.7 8.9 559.7 8.9 559.7 0.56"/><path class="cls-1" d="M568.16,9.36h-8.92V.1h8.92Zm-8-.92h7.08V1h-7.08Z"/><polyline class="cls-1" points="569.26 0.56 577.26 0.56 577.26 8.9 569.26 8.9 569.26 0.56"/><path class="cls-1" d="M577.72,9.36h-8.93V.1h8.93Zm-8-.92h7.07V1h-7.07Z"/><polyline class="cls-1" points="578.7 0.56 586.82 0.56 586.82 8.9 578.7 8.9 578.7 0.56"/><path class="cls-1" d="M587.28,9.36h-9V.1h9Zm-8.11-.92h7.18V1h-7.18Z"/><polyline class="cls-1" points="588.26 0.56 596.37 0.56 596.37 8.9 588.26 8.9 588.26 0.56"/><path class="cls-1" d="M596.84,9.36h-9V.1h9Zm-8.12-.92h7.19V1h-7.19Z"/><polyline class="cls-1" points="597.82 0.56 605.82 0.56 605.82 8.9 597.82 8.9 597.82 0.56"/><path class="cls-1" d="M606.28,9.36h-8.92V.1h8.92Zm-8-.92h7.08V1h-7.08Z"/><polyline class="cls-1" points="607.38 0.56 615.38 0.56 615.38 8.9 607.38 8.9 607.38 0.56"/><path class="cls-1" d="M615.84,9.36h-8.93V.1h8.93Zm-8-.92h7.07V1h-7.07Z"/><polyline class="cls-1" points="616.82 0.56 624.93 0.56 624.93 8.9 616.82 8.9 616.82 0.56"/><path class="cls-1" d="M625.4,9.36h-9V.1h9Zm-8.11-.92h7.18V1h-7.18Z"/><polyline class="cls-1" points="683.61 0.56 691.62 0.56 691.62 8.9 683.61 8.9 683.61 0.56"/><path class="cls-1" d="M692.08,9.36h-8.93V.1h8.93Zm-8-.92h7.07V1h-7.07Z"/><polyline class="cls-1" points="693.06 0.56 701.17 0.56 701.17 8.9 693.06 8.9 693.06 0.56"/><path class="cls-1" d="M701.64,9.36h-9V.1h9Zm-8.12-.92h7.19V1h-7.19Z"/><polyline class="cls-1" points="702.62 0.56 710.73 0.56 710.73 8.9 702.62 8.9 702.62 0.56"/><path class="cls-1" d="M711.19,9.36h-9V.1h9Zm-8.11-.92h7.19V1h-7.19Z"/><polyline class="cls-1" points="712.17 0.56 720.18 0.56 720.18 8.9 712.17 8.9 712.17 0.56"/><path class="cls-1" d="M720.64,9.36h-8.93V.1h8.93Zm-8-.92h7.07V1h-7.07Z"/><polyline class="cls-1" points="721.73 0.56 729.73 0.56 729.73 8.9 721.73 8.9 721.73 0.56"/><path class="cls-1" d="M730.2,9.36h-8.93V.1h8.93Zm-8-.92h7.07V1H722.2Z"/><polyline class="cls-1" points="778.86 0.56 786.97 0.56 786.97 8.9 778.86 8.9 778.86 0.56"/><path class="cls-1" d="M787.43,9.36h-9V.1h9Zm-8.11-.92h7.19V1h-7.19Z"/><polyline class="cls-1" points="788.41 0.56 796.41 0.56 796.41 8.9 788.41 8.9 788.41 0.56"/><path class="cls-1" d="M796.88,9.36H788V.1h8.93Zm-8-.92H796V1h-7.07Z"/><polyline class="cls-1" points="797.97 0.56 805.97 0.56 805.97 8.9 797.97 8.9 797.97 0.56"/><path class="cls-1" d="M806.44,9.36h-8.93V.1h8.93Zm-8-.92h7.08V1h-7.08Z"/><polyline class="cls-1" points="807.42 0.56 815.53 0.56 815.53 8.9 807.42 8.9 807.42 0.56"/><path class="cls-1" d="M816,9.36h-9V.1h9Zm-8.11-.92h7.19V1h-7.19Z"/><polyline class="cls-1" points="816.97 0.56 825.09 0.56 825.09 8.9 816.97 8.9 816.97 0.56"/><path class="cls-1" d="M825.55,9.36h-9V.1h9Zm-8.11-.92h7.19V1h-7.19Z"/><polyline class="cls-1" points="826.53 0.56 834.53 0.56 834.53 8.9 826.53 8.9 826.53 0.56"/><path class="cls-1" d="M835,9.36h-8.93V.1H835Zm-8-.92h7.08V1H827Z"/><polyline class="cls-1" points="836.09 0.56 844.09 0.56 844.09 8.9 836.09 8.9 836.09 0.56"/><path class="cls-1" d="M844.55,9.36h-8.92V.1h8.92Zm-8-.92h7.08V1h-7.08Z"/><polyline class="cls-1" points="883.65 0.56 891.77 0.56 891.77 8.9 883.65 8.9 883.65 0.56"/><path class="cls-1" d="M892.23,9.36h-9V.1h9Zm-8.11-.92h7.19V1h-7.19Z"/><polyline class="cls-1" points="893.21 0.56 901.33 0.56 901.33 8.9 893.21 8.9 893.21 0.56"/><path class="cls-1" d="M901.79,9.36h-9V.1h9Zm-8.11-.92h7.18V1h-7.18Z"/><polyline class="cls-1" points="902.77 0.56 910.77 0.56 910.77 8.9 902.77 8.9 902.77 0.56"/><path class="cls-1" d="M911.24,9.36h-8.93V.1h8.93Zm-8-.92h7.08V1h-7.08Z"/><polyline class="cls-1" points="912.22 0.56 920.33 0.56 920.33 8.9 912.22 8.9 912.22 0.56"/><path class="cls-1" d="M920.79,9.36h-9V.1h9Zm-8.11-.92h7.19V1h-7.19Z"/><polyline class="cls-1" points="921.77 0.56 929.89 0.56 929.89 8.9 921.77 8.9 921.77 0.56"/><path class="cls-1" d="M930.35,9.36h-9V.1h9Zm-8.11-.92h7.18V1h-7.18Z"/><polyline class="cls-1" points="959.89 0.56 968 0.56 968 8.9 959.89 8.9 959.89 0.56"/><path class="cls-1" d="M968.47,9.36h-9V.1h9Zm-8.11-.92h7.18V1h-7.18Z"/><polyline class="cls-1" points="969.45 0.56 977.56 0.56 977.56 8.9 969.45 8.9 969.45 0.56"/><path class="cls-1" d="M978,9.36h-9V.1h9Zm-8.12-.92h7.19V1h-7.19Z"/><polyline class="cls-1" points="979.01 0.56 987.01 0.56 987.01 8.9 979.01 8.9 979.01 0.56"/><path class="cls-1" d="M987.47,9.36h-8.93V.1h8.93Zm-8-.92h7.08V1h-7.08Z"/><polyline class="cls-1" points="988.45 0.56 996.57 0.56 996.57 8.9 988.45 8.9 988.45 0.56"/><path class="cls-1" d="M997,9.36h-9V.1h9Zm-8.11-.92h7.18V1h-7.18Z"/><polyline class="cls-1" points="998.01 0.56 1006.12 0.56 1006.12 8.9 998.01 8.9 998.01 0.56"/><path class="cls-1" d="M1006.59,9.36h-9V.1h9Zm-8.12-.92h7.19V1h-7.19Z"/><polyline class="cls-1" points="1007.57 0.56 1015.68 0.56 1015.68 8.9 1007.57 8.9 1007.57 0.56"/><path class="cls-1" d="M1016.14,9.36h-9V.1h9ZM1008,8.44h7.19V1H1008Z"/><polyline class="cls-1" points="1017.13 0.56 1025.13 0.56 1025.13 8.9 1017.13 8.9 1017.13 0.56"/><path class="cls-1" d="M1025.59,9.36h-8.93V.1h8.93Zm-8-.92h7.08V1h-7.08Z"/><polyline class="cls-1" points="1026.57 0.56 1034.68 0.56 1034.68 8.9 1026.57 8.9 1026.57 0.56"/><path class="cls-1" d="M1035.15,9.36h-9V.1h9ZM1027,8.44h7.18V1H1027Z"/><polyline class="cls-1" points="1036.13 0.56 1044.24 0.56 1044.24 8.9 1036.13 8.9 1036.13 0.56"/><path class="cls-1" d="M1044.71,9.36h-9V.1h9Zm-8.12-.92h7.19V1h-7.19Z"/><polyline class="cls-1" points="1121.93 0.56 1130.04 0.56 1130.04 8.9 1121.93 8.9 1121.93 0.56"/><path class="cls-1" d="M1130.5,9.36h-9V.1h9Zm-8.11-.92h7.19V1h-7.19Z"/><polyline class="cls-1" points="1207.72 0.56 1215.72 0.56 1215.72 8.9 1207.72 8.9 1207.72 0.56"/><path class="cls-1" d="M1216.19,9.36h-8.93V.1h8.93Zm-8-.92h7.08V1h-7.08Z"/><polyline class="cls-1" points="578.7 10.46 586.82 10.46 586.82 18.9 578.7 18.9 578.7 10.46"/><path class="cls-1" d="M587.28,19.36h-9V10h9Zm-8.11-.92h7.18V10.92h-7.18Z"/><polyline class="cls-1" points="626.38 10.46 634.49 10.46 634.49 18.9 626.38 18.9 626.38 10.46"/><path class="cls-1" d="M635,19.36h-9V10h9Zm-8.12-.92H634V10.92h-7.19Z"/><polyline class="cls-1" points="702.62 10.46 710.73 10.46 710.73 18.9 702.62 18.9 702.62 10.46"/><path class="cls-1" d="M711.19,19.36h-9V10h9Zm-8.11-.92h7.19V10.92h-7.19Z"/><polyline class="cls-1" points="769.3 10.46 777.41 10.46 777.41 18.9 769.3 18.9 769.3 10.46"/><path class="cls-1" d="M777.87,19.36h-9V10h9Zm-8.11-.92H777V10.92h-7.19Z"/><polyline class="cls-1" points="902.77 10.46 910.77 10.46 910.77 18.9 902.77 18.9 902.77 10.46"/><path class="cls-1" d="M911.24,19.36h-8.93V10h8.93Zm-8-.92h7.08V10.92h-7.08Z"/><polyline class="cls-1" points="998.01 10.46 1006.12 10.46 1006.12 18.9 998.01 18.9 998.01 10.46"/><path class="cls-1" d="M1006.59,19.36h-9V10h9Zm-8.12-.92h7.19V10.92h-7.19Z"/><polyline class="cls-1" points="1121.93 10.46 1130.04 10.46 1130.04 18.9 1121.93 18.9 1121.93 10.46"/><path class="cls-1" d="M1130.5,19.36h-9V10h9Zm-8.11-.92h7.19V10.92h-7.19Z"/><polyline class="cls-1" points="1207.72 10.46 1215.72 10.46 1215.72 18.9 1207.72 18.9 1207.72 10.46"/><path class="cls-1" d="M1216.19,19.36h-8.93V10h8.93Zm-8-.92h7.08V10.92h-7.08Z"/><polyline class="cls-1" points="1112.37 20.46 1120.48 20.46 1120.48 28.9 1112.37 28.9 1112.37 20.46"/><path class="cls-1" d="M1120.94,29.37h-9V20h9Zm-8.11-.93H1120V20.92h-7.19Z"/><polyline class="cls-1" points="1131.48 20.46 1139.48 20.46 1139.48 28.9 1131.48 28.9 1131.48 20.46"/><path class="cls-1" d="M1140,29.37H1131V20H1140Zm-8-.93H1139V20.92H1132Z"/><polyline class="cls-1" points="1207.72 20.46 1215.72 20.46 1215.72 28.9 1207.72 28.9 1207.72 20.46"/><path class="cls-1" d="M1216.19,29.37h-8.93V20h8.93Zm-8-.93h7.08V20.92h-7.08Z"/><polyline class="cls-1" points="902.77 20.46 910.77 20.46 910.77 28.9 902.77 28.9 902.77 20.46"/><path class="cls-1" d="M911.24,29.37h-8.93V20h8.93Zm-8-.93h7.08V20.92h-7.08Z"/><polyline class="cls-1" points="998.01 20.46 1006.12 20.46 1006.12 28.9 998.01 28.9 998.01 20.46"/><path class="cls-1" d="M1006.59,29.37h-9V20h9Zm-8.12-.93h7.19V20.92h-7.19Z"/><polyline class="cls-1" points="578.7 20.46 586.82 20.46 586.82 28.9 578.7 28.9 578.7 20.46"/><path class="cls-1" d="M587.28,29.37h-9V20h9Zm-8.11-.93h7.18V20.92h-7.18Z"/><polyline class="cls-1" points="635.94 20.46 643.94 20.46 643.94 28.9 635.94 28.9 635.94 20.46"/><path class="cls-1" d="M644.4,29.37h-8.93V20h8.93Zm-8-.93h7.08V20.92H636.4Z"/><polyline class="cls-1" points="702.62 20.46 710.73 20.46 710.73 28.9 702.62 28.9 702.62 20.46"/><path class="cls-1" d="M711.19,29.37h-9V20h9Zm-8.11-.93h7.19V20.92h-7.19Z"/><polyline class="cls-1" points="759.85 20.46 767.85 20.46 767.85 28.9 759.85 28.9 759.85 20.46"/><path class="cls-1" d="M768.32,29.37h-8.93V20h8.93Zm-8-.93h7.08V20.92h-7.08Z"/><polyline class="cls-1" points="578.7 30.46 586.82 30.46 586.82 38.79 578.7 38.79 578.7 30.46"/><path class="cls-1" d="M587.28,39.26h-9V30h9Zm-8.11-.93h7.18V30.92h-7.18Z"/><polyline class="cls-1" points="635.94 30.46 643.94 30.46 643.94 38.79 635.94 38.79 635.94 30.46"/><path class="cls-1" d="M644.4,39.26h-8.93V30h8.93Zm-8-.93h7.08V30.92H636.4Z"/><polyline class="cls-1" points="902.77 30.46 910.77 30.46 910.77 38.79 902.77 38.79 902.77 30.46"/><path class="cls-1" d="M911.24,39.26h-8.93V30h8.93Zm-8-.93h7.08V30.92h-7.08Z"/><polyline class="cls-1" points="998.01 30.46 1006.12 30.46 1006.12 38.79 998.01 38.79 998.01 30.46"/><path class="cls-1" d="M1006.59,39.26h-9V30h9Zm-8.12-.93h7.19V30.92h-7.19Z"/><polyline class="cls-1" points="1112.37 30.46 1120.48 30.46 1120.48 38.79 1112.37 38.79 1112.37 30.46"/><path class="cls-1" d="M1120.94,39.26h-9V30h9Zm-8.11-.93H1120V30.92h-7.19Z"/><polyline class="cls-1" points="1131.48 30.46 1139.48 30.46 1139.48 38.79 1131.48 38.79 1131.48 30.46"/><path class="cls-1" d="M1140,39.26H1131V30H1140Zm-8-.93H1139V30.92H1132Z"/><polyline class="cls-1" points="702.62 30.46 710.73 30.46 710.73 38.79 702.62 38.79 702.62 30.46"/><path class="cls-1" d="M711.19,39.26h-9V30h9Zm-8.11-.93h7.19V30.92h-7.19Z"/><polyline class="cls-1" points="759.85 30.46 767.85 30.46 767.85 38.79 759.85 38.79 759.85 30.46"/><path class="cls-1" d="M768.32,39.26h-8.93V30h8.93Zm-8-.93h7.08V30.92h-7.08Z"/><polyline class="cls-1" points="1207.72 30.46 1215.72 30.46 1215.72 38.79 1207.72 38.79 1207.72 30.46"/><path class="cls-1" d="M1216.19,39.26h-8.93V30h8.93Zm-8-.93h7.08V30.92h-7.08Z"/><polyline class="cls-1" points="578.7 40.35 586.82 40.35 586.82 48.8 578.7 48.8 578.7 40.35"/><path class="cls-1" d="M587.28,49.26h-9V39.89h9Zm-8.11-.93h7.18V40.81h-7.18Z"/><polyline class="cls-1" points="635.94 40.35 643.94 40.35 643.94 48.8 635.94 48.8 635.94 40.35"/><path class="cls-1" d="M644.4,49.26h-8.93V39.89h8.93Zm-8-.93h7.08V40.81H636.4Z"/><polyline class="cls-1" points="702.62 40.35 710.73 40.35 710.73 48.8 702.62 48.8 702.62 40.35"/><path class="cls-1" d="M711.19,49.26h-9V39.89h9Zm-8.11-.93h7.19V40.81h-7.19Z"/><polyline class="cls-1" points="759.85 40.35 767.85 40.35 767.85 48.8 759.85 48.8 759.85 40.35"/><path class="cls-1" d="M768.32,49.26h-8.93V39.89h8.93Zm-8-.93h7.08V40.81h-7.08Z"/><polyline class="cls-1" points="902.77 40.35 910.77 40.35 910.77 48.8 902.77 48.8 902.77 40.35"/><path class="cls-1" d="M911.24,49.26h-8.93V39.89h8.93Zm-8-.93h7.08V40.81h-7.08Z"/><polyline class="cls-1" points="998.01 39.52 1006.12 39.52 1006.12 47.96 998.01 47.96 998.01 39.52"/><path class="cls-1" d="M1006.59,48.43h-9V39.05h9Zm-8.12-.93h7.19V40h-7.19Z"/><polyline class="cls-1" points="1102.81 40.35 1110.92 40.35 1110.92 48.8 1102.81 48.8 1102.81 40.35"/><path class="cls-1" d="M1111.39,49.26h-9V39.89h9Zm-8.12-.93h7.19V40.81h-7.19Z"/><polyline class="cls-1" points="1140.93 40.35 1149.04 40.35 1149.04 48.8 1140.93 48.8 1140.93 40.35"/><path class="cls-1" d="M1149.51,49.26h-9V39.89h9Zm-8.12-.93h7.19V40.81h-7.19Z"/><polyline class="cls-1" points="1207.72 40.35 1215.72 40.35 1215.72 48.8 1207.72 48.8 1207.72 40.35"/><path class="cls-1" d="M1216.19,49.26h-8.93V39.89h8.93Zm-8-.93h7.08V40.81h-7.08Z"/><polyline class="cls-1" points="998.01 50.35 1006.12 50.35 1006.12 58.69 998.01 58.69 998.01 50.35"/><path class="cls-1" d="M1006.59,59.15h-9V49.89h9Zm-8.12-.93h7.19V50.81h-7.19Z"/><polyline class="cls-1" points="1102.81 50.35 1110.92 50.35 1110.92 58.69 1102.81 58.69 1102.81 50.35"/><path class="cls-1" d="M1111.39,59.15h-9V49.89h9Zm-8.12-.93h7.19V50.81h-7.19Z"/><polyline class="cls-1" points="1140.93 50.35 1149.04 50.35 1149.04 58.69 1140.93 58.69 1140.93 50.35"/><path class="cls-1" d="M1149.51,59.15h-9V49.89h9Zm-8.12-.93h7.19V50.81h-7.19Z"/><polyline class="cls-1" points="1207.72 50.35 1215.72 50.35 1215.72 58.69 1207.72 58.69 1207.72 50.35"/><path class="cls-1" d="M1216.19,59.15h-8.93V49.89h8.93Zm-8-.93h7.08V50.81h-7.08Z"/><polyline class="cls-1" points="578.7 50.35 586.82 50.35 586.82 58.69 578.7 58.69 578.7 50.35"/><path class="cls-1" d="M587.28,59.15h-9V49.89h9Zm-8.11-.93h7.18V50.81h-7.18Z"/><polyline class="cls-1" points="635.94 50.35 643.94 50.35 643.94 58.69 635.94 58.69 635.94 50.35"/><path class="cls-1" d="M644.4,59.15h-8.93V49.89h8.93Zm-8-.93h7.08V50.81H636.4Z"/><polyline class="cls-1" points="702.62 50.35 710.73 50.35 710.73 58.69 702.62 58.69 702.62 50.35"/><path class="cls-1" d="M711.19,59.15h-9V49.89h9Zm-8.11-.93h7.19V50.81h-7.19Z"/><polyline class="cls-1" points="759.85 50.35 767.85 50.35 767.85 58.69 759.85 58.69 759.85 50.35"/><path class="cls-1" d="M768.32,59.15h-8.93V49.89h8.93Zm-8-.93h7.08V50.81h-7.08Z"/><polyline class="cls-1" points="902.77 50.35 910.77 50.35 910.77 58.69 902.77 58.69 902.77 50.35"/><path class="cls-1" d="M911.24,59.15h-8.93V49.89h8.93Zm-8-.93h7.08V50.81h-7.08Z"/><polyline class="cls-1" points="578.7 60.24 586.82 60.24 586.82 68.69 578.7 68.69 578.7 60.24"/><path class="cls-1" d="M587.28,69.15h-9V59.78h9Zm-8.11-.92h7.18V60.71h-7.18Z"/><polyline class="cls-1" points="635.94 60.24 643.94 60.24 643.94 68.69 635.94 68.69 635.94 60.24"/><path class="cls-1" d="M644.4,69.15h-8.93V59.78h8.93Zm-8-.92h7.08V60.71H636.4Z"/><polyline class="cls-1" points="702.62 60.24 710.73 60.24 710.73 68.69 702.62 68.69 702.62 60.24"/><path class="cls-1" d="M711.19,69.15h-9V59.78h9Zm-8.11-.92h7.19V60.71h-7.19Z"/><polyline class="cls-1" points="759.85 60.24 767.85 60.24 767.85 68.69 759.85 68.69 759.85 60.24"/><path class="cls-1" d="M768.32,69.15h-8.93V59.78h8.93Zm-8-.92h7.08V60.71h-7.08Z"/><polyline class="cls-1" points="816.97 60.24 825.09 60.24 825.09 68.69 816.97 68.69 816.97 60.24"/><path class="cls-1" d="M825.55,69.15h-9V59.78h9Zm-8.11-.92h7.19V60.71h-7.19Z"/><polyline class="cls-1" points="826.53 60.24 834.53 60.24 834.53 68.69 826.53 68.69 826.53 60.24"/><path class="cls-1" d="M835,69.15h-8.93V59.78H835Zm-8-.92h7.08V60.71H827Z"/><polyline class="cls-1" points="836.09 60.24 844.09 60.24 844.09 68.69 836.09 68.69 836.09 60.24"/><path class="cls-1" d="M844.55,69.15h-8.92V59.78h8.92Zm-8-.92h7.08V60.71h-7.08Z"/><polyline class="cls-1" points="902.77 60.24 910.77 60.24 910.77 68.69 902.77 68.69 902.77 60.24"/><path class="cls-1" d="M911.24,69.15h-8.93V59.78h8.93Zm-8-.92h7.08V60.71h-7.08Z"/><polyline class="cls-1" points="998.01 60.24 1006.12 60.24 1006.12 68.69 998.01 68.69 998.01 60.24"/><path class="cls-1" d="M1006.59,69.15h-9V59.78h9Zm-8.12-.92h7.19V60.71h-7.19Z"/><polyline class="cls-1" points="1093.37 60.24 1101.37 60.24 1101.37 68.69 1093.37 68.69 1093.37 60.24"/><path class="cls-1" d="M1101.83,69.15h-8.93V59.78h8.93Zm-8-.92h7.07V60.71h-7.07Z"/><polyline class="cls-1" points="1150.49 60.24 1158.6 60.24 1158.6 68.69 1150.49 68.69 1150.49 60.24"/><path class="cls-1" d="M1159.06,69.15h-9V59.78h9Zm-8.11-.92h7.19V60.71H1151Z"/><polyline class="cls-1" points="1207.72 60.24 1215.72 60.24 1215.72 68.69 1207.72 68.69 1207.72 60.24"/><path class="cls-1" d="M1216.19,69.15h-8.93V59.78h8.93Zm-8-.92h7.08V60.71h-7.08Z"/><polyline class="cls-1" points="578.7 70.25 586.82 70.25 586.82 78.58 578.7 78.58 578.7 70.25"/><path class="cls-1" d="M587.28,79h-9V69.78h9Zm-8.11-.92h7.18V70.71h-7.18Z"/><polyline class="cls-1" points="635.94 70.25 643.94 70.25 643.94 78.58 635.94 78.58 635.94 70.25"/><path class="cls-1" d="M644.4,79h-8.93V69.78h8.93Zm-8-.92h7.08V70.71H636.4Z"/><polyline class="cls-1" points="702.62 70.25 710.73 70.25 710.73 78.58 702.62 78.58 702.62 70.25"/><path class="cls-1" d="M711.19,79h-9V69.78h9Zm-8.11-.92h7.19V70.71h-7.19Z"/><polyline class="cls-1" points="759.85 70.25 767.85 70.25 767.85 78.58 759.85 78.58 759.85 70.25"/><path class="cls-1" d="M768.32,79h-8.93V69.78h8.93Zm-8-.92h7.08V70.71h-7.08Z"/><polyline class="cls-1" points="836.09 70.25 844.09 70.25 844.09 78.58 836.09 78.58 836.09 70.25"/><path class="cls-1" d="M844.55,79h-8.92V69.78h8.92Zm-8-.92h7.08V70.71h-7.08Z"/><polyline class="cls-1" points="902.77 70.25 910.77 70.25 910.77 78.58 902.77 78.58 902.77 70.25"/><path class="cls-1" d="M911.24,79h-8.93V69.78h8.93Zm-8-.92h7.08V70.71h-7.08Z"/><polyline class="cls-1" points="998.01 70.25 1006.12 70.25 1006.12 78.58 998.01 78.58 998.01 70.25"/><path class="cls-1" d="M1006.59,79h-9V69.78h9Zm-8.12-.92h7.19V70.71h-7.19Z"/><polyline class="cls-1" points="1093.37 70.25 1101.37 70.25 1101.37 78.58 1093.37 78.58 1093.37 70.25"/><path class="cls-1" d="M1101.83,79h-8.93V69.78h8.93Zm-8-.92h7.07V70.71h-7.07Z"/><polyline class="cls-1" points="1150.49 70.25 1158.6 70.25 1158.6 78.58 1150.49 78.58 1150.49 70.25"/><path class="cls-1" d="M1159.06,79h-9V69.78h9Zm-8.11-.92h7.19V70.71H1151Z"/><polyline class="cls-1" points="1207.72 70.25 1215.72 70.25 1215.72 78.58 1207.72 78.58 1207.72 70.25"/><path class="cls-1" d="M1216.19,79h-8.93V69.78h8.93Zm-8-.92h7.08V70.71h-7.08Z"/><polyline class="cls-1" points="578.7 80.14 586.82 80.14 586.82 88.58 578.7 88.58 578.7 80.14"/><path class="cls-1" d="M587.28,89h-9V79.67h9Zm-8.11-.92h7.18V80.6h-7.18Z"/><polyline class="cls-1" points="635.94 80.14 643.94 80.14 643.94 88.58 635.94 88.58 635.94 80.14"/><path class="cls-1" d="M644.4,89h-8.93V79.67h8.93Zm-8-.92h7.08V80.6H636.4Z"/><polyline class="cls-1" points="702.62 80.14 710.73 80.14 710.73 88.58 702.62 88.58 702.62 80.14"/><path class="cls-1" d="M711.19,89h-9V79.67h9Zm-8.11-.92h7.19V80.6h-7.19Z"/><polyline class="cls-1" points="759.85 80.14 767.85 80.14 767.85 88.58 759.85 88.58 759.85 80.14"/><path class="cls-1" d="M768.32,89h-8.93V79.67h8.93Zm-8-.92h7.08V80.6h-7.08Z"/><polyline class="cls-1" points="836.09 80.14 844.09 80.14 844.09 88.58 836.09 88.58 836.09 80.14"/><path class="cls-1" d="M844.55,89h-8.92V79.67h8.92Zm-8-.92h7.08V80.6h-7.08Z"/><polyline class="cls-1" points="902.77 80.14 910.77 80.14 910.77 88.58 902.77 88.58 902.77 80.14"/><path class="cls-1" d="M911.24,89h-8.93V79.67h8.93Zm-8-.92h7.08V80.6h-7.08Z"/><polyline class="cls-1" points="998.01 79.3 1006.12 79.3 1006.12 87.75 998.01 87.75 998.01 79.3"/><path class="cls-1" d="M1006.59,88.21h-9V78.84h9Zm-8.12-.93h7.19V79.77h-7.19Z"/><polyline class="cls-1" points="1083.81 80.14 1091.92 80.14 1091.92 88.58 1083.81 88.58 1083.81 80.14"/><path class="cls-1" d="M1092.38,89h-9V79.67h9Zm-8.11-.92h7.19V80.6h-7.19Z"/><polyline class="cls-1" points="1093.37 80.14 1101.37 80.14 1101.37 88.58 1093.37 88.58 1093.37 80.14"/><path class="cls-1" d="M1101.83,89h-8.93V79.67h8.93Zm-8-.92h7.07V80.6h-7.07Z"/><polyline class="cls-1" points="1102.81 80.14 1110.92 80.14 1110.92 88.58 1102.81 88.58 1102.81 80.14"/><path class="cls-1" d="M1111.39,89h-9V79.67h9Zm-8.12-.92h7.19V80.6h-7.19Z"/><polyline class="cls-1" points="1112.37 80.14 1120.48 80.14 1120.48 88.58 1112.37 88.58 1112.37 80.14"/><path class="cls-1" d="M1120.94,89h-9V79.67h9Zm-8.11-.92H1120V80.6h-7.19Z"/><polyline class="cls-1" points="1121.93 80.14 1130.04 80.14 1130.04 88.58 1121.93 88.58 1121.93 80.14"/><path class="cls-1" d="M1130.5,89h-9V79.67h9Zm-8.11-.92h7.19V80.6h-7.19Z"/><polyline class="cls-1" points="1131.48 80.14 1139.48 80.14 1139.48 88.58 1131.48 88.58 1131.48 80.14"/><path class="cls-1" d="M1140,89H1131V79.67H1140Zm-8-.92H1139V80.6H1132Z"/><polyline class="cls-1" points="1140.93 80.14 1149.04 80.14 1149.04 88.58 1140.93 88.58 1140.93 80.14"/><path class="cls-1" d="M1149.51,89h-9V79.67h9Zm-8.12-.92h7.19V80.6h-7.19Z"/><polyline class="cls-1" points="1150.49 80.14 1158.6 80.14 1158.6 88.58 1150.49 88.58 1150.49 80.14"/><path class="cls-1" d="M1159.06,89h-9V79.67h9Zm-8.11-.92h7.19V80.6H1151Z"/><polyline class="cls-1" points="1160.05 80.14 1168.05 80.14 1168.05 88.58 1160.05 88.58 1160.05 80.14"/><path class="cls-1" d="M1168.51,89h-8.93V79.67h8.93Zm-8-.92h7.07V80.6h-7.07Z"/><polyline class="cls-1" points="1207.72 80.14 1215.72 80.14 1215.72 88.58 1207.72 88.58 1207.72 80.14"/><path class="cls-1" d="M1216.19,89h-8.93V79.67h8.93Zm-8-.92h7.08V80.6h-7.08Z"/><polyline class="cls-1" points="1083.81 90.14 1091.92 90.14 1091.92 98.58 1083.81 98.58 1083.81 90.14"/><path class="cls-1" d="M1092.38,99.05h-9V89.67h9Zm-8.11-.93h7.19V90.6h-7.19Z"/><polyline class="cls-1" points="1160.05 90.14 1168.05 90.14 1168.05 98.58 1160.05 98.58 1160.05 90.14"/><path class="cls-1" d="M1168.51,99.05h-8.93V89.67h8.93Zm-8-.93h7.07V90.6h-7.07Z"/><polyline class="cls-1" points="1207.72 90.14 1215.72 90.14 1215.72 98.58 1207.72 98.58 1207.72 90.14"/><path class="cls-1" d="M1216.19,99.05h-8.93V89.67h8.93Zm-8-.93h7.08V90.6h-7.08Z"/><polyline class="cls-1" points="1083.81 100.14 1091.92 100.14 1091.92 108.47 1083.81 108.47 1083.81 100.14"/><path class="cls-1" d="M1092.38,108.94h-9V99.68h9Zm-8.11-.93h7.19V100.6h-7.19Z"/><polyline class="cls-1" points="1160.05 100.14 1168.05 100.14 1168.05 108.47 1160.05 108.47 1160.05 100.14"/><path class="cls-1" d="M1168.51,108.94h-8.93V99.68h8.93Zm-8-.93h7.07V100.6h-7.07Z"/><polyline class="cls-1" points="1207.72 100.14 1215.72 100.14 1215.72 108.47 1207.72 108.47 1207.72 100.14"/><path class="cls-1" d="M1216.19,108.94h-8.93V99.68h8.93Zm-8-.93h7.08V100.6h-7.08Z"/><polyline class="cls-1" points="1207.72 110.03 1215.72 110.03 1215.72 118.48 1207.72 118.48 1207.72 110.03"/><path class="cls-1" d="M1216.19,118.94h-8.93v-9.37h8.93Zm-8-.93h7.08v-7.52h-7.08Z"/><polyline class="cls-1" points="1083.81 110.03 1091.92 110.03 1091.92 118.48 1083.81 118.48 1083.81 110.03"/><path class="cls-1" d="M1092.38,118.94h-9v-9.37h9Zm-8.11-.93h7.19v-7.52h-7.19Z"/><polyline class="cls-1" points="1160.05 110.03 1168.05 110.03 1168.05 118.48 1160.05 118.48 1160.05 110.03"/><path class="cls-1" d="M1168.51,118.94h-8.93v-9.37h8.93Zm-8-.93h7.07v-7.52h-7.07Z"/><polyline class="cls-1" points="1083.81 120.03 1091.92 120.03 1091.92 128.37 1083.81 128.37 1083.81 120.03"/><path class="cls-1" d="M1092.38,128.83h-9v-9.26h9Zm-8.11-.93h7.19v-7.4h-7.19Z"/><polyline class="cls-1" points="1160.05 120.03 1168.05 120.03 1168.05 128.37 1160.05 128.37 1160.05 120.03"/><path class="cls-1" d="M1168.51,128.83h-8.93v-9.26h8.93Zm-8-.93h7.07v-7.4h-7.07Z"/><polyline class="cls-1" points="1207.72 120.03 1215.72 120.03 1215.72 128.37 1207.72 128.37 1207.72 120.03"/><path class="cls-1" d="M1216.19,128.83h-8.93v-9.26h8.93Zm-8-.93h7.08v-7.4h-7.08Z"/><polyline class="cls-1" points="1217.17 120.03 1225.28 120.03 1225.28 128.37 1217.17 128.37 1217.17 120.03"/><path class="cls-1" d="M1225.74,128.83h-9v-9.26h9Zm-8.11-.93h7.19v-7.4h-7.19Z"/><polyline class="cls-1" points="1226.73 120.03 1234.84 120.03 1234.84 128.37 1226.73 128.37 1226.73 120.03"/><path class="cls-1" d="M1235.3,128.83h-9v-9.26h9Zm-8.11-.93h7.19v-7.4h-7.19Z"/><polyline class="cls-1" points="1236.28 120.03 1244.28 120.03 1244.28 128.37 1236.28 128.37 1236.28 120.03"/><path class="cls-1" d="M1244.75,128.83h-8.93v-9.26h8.93Zm-8-.93h7.07v-7.4h-7.07Z"/><polyline class="cls-1" points="1245.84 120.03 1253.84 120.03 1253.84 128.37 1245.84 128.37 1245.84 120.03"/><path class="cls-1" d="M1254.31,128.83h-8.93v-9.26h8.93Zm-8-.93h7.08v-7.4h-7.08Z"/><polyline class="cls-1" points="1255.29 120.03 1263.4 120.03 1263.4 128.37 1255.29 128.37 1255.29 120.03"/><path class="cls-1" d="M1263.86,128.83h-9v-9.26h9Zm-8.11-.93h7.19v-7.4h-7.19Z"/><polyline class="cls-1" points="1264.85 120.03 1272.96 120.03 1272.96 128.37 1264.85 128.37 1264.85 120.03"/><path class="cls-1" d="M1273.42,128.83h-9v-9.26h9Zm-8.11-.93h7.18v-7.4h-7.18Z"/><polyline class="cls-1" points="1274.4 120.03 1282.4 120.03 1282.4 128.37 1274.4 128.37 1274.4 120.03"/><path class="cls-1" d="M1282.87,128.83h-8.93v-9.26h8.93Zm-8-.93h7.08v-7.4h-7.08Z"/><polyline class="cls-1" points="578.7 90.14 586.82 90.14 586.82 98.58 578.7 98.58 578.7 90.14"/><path class="cls-1" d="M587.28,99.05h-9V89.67h9Zm-8.11-.93h7.18V90.6h-7.18Z"/><polyline class="cls-1" points="635.94 90.14 643.94 90.14 643.94 98.58 635.94 98.58 635.94 90.14"/><path class="cls-1" d="M644.4,99.05h-8.93V89.67h8.93Zm-8-.93h7.08V90.6H636.4Z"/><polyline class="cls-1" points="702.62 90.14 710.73 90.14 710.73 98.58 702.62 98.58 702.62 90.14"/><path class="cls-1" d="M711.19,99.05h-9V89.67h9Zm-8.11-.93h7.19V90.6h-7.19Z"/><polyline class="cls-1" points="759.85 90.14 767.85 90.14 767.85 98.58 759.85 98.58 759.85 90.14"/><path class="cls-1" d="M768.32,99.05h-8.93V89.67h8.93Zm-8-.93h7.08V90.6h-7.08Z"/><polyline class="cls-1" points="836.09 90.14 844.09 90.14 844.09 98.58 836.09 98.58 836.09 90.14"/><path class="cls-1" d="M844.55,99.05h-8.92V89.67h8.92Zm-8-.93h7.08V90.6h-7.08Z"/><polyline class="cls-1" points="902.77 90.14 910.77 90.14 910.77 98.58 902.77 98.58 902.77 90.14"/><path class="cls-1" d="M911.24,99.05h-8.93V89.67h8.93Zm-8-.93h7.08V90.6h-7.08Z"/><polyline class="cls-1" points="998.01 90.14 1006.12 90.14 1006.12 98.58 998.01 98.58 998.01 90.14"/><path class="cls-1" d="M1006.59,99.05h-9V89.67h9Zm-8.12-.93h7.19V90.6h-7.19Z"/><polyline class="cls-1" points="578.7 100.14 586.82 100.14 586.82 108.47 578.7 108.47 578.7 100.14"/><path class="cls-1" d="M587.28,108.94h-9V99.68h9Zm-8.11-.93h7.18V100.6h-7.18Z"/><polyline class="cls-1" points="635.94 100.14 643.94 100.14 643.94 108.47 635.94 108.47 635.94 100.14"/><path class="cls-1" d="M644.4,108.94h-8.93V99.68h8.93Zm-8-.93h7.08V100.6H636.4Z"/><polyline class="cls-1" points="702.62 100.14 710.73 100.14 710.73 108.47 702.62 108.47 702.62 100.14"/><path class="cls-1" d="M711.19,108.94h-9V99.68h9Zm-8.11-.93h7.19V100.6h-7.19Z"/><polyline class="cls-1" points="759.85 100.14 767.85 100.14 767.85 108.47 759.85 108.47 759.85 100.14"/><path class="cls-1" d="M768.32,108.94h-8.93V99.68h8.93Zm-8-.93h7.08V100.6h-7.08Z"/><polyline class="cls-1" points="836.09 100.14 844.09 100.14 844.09 108.47 836.09 108.47 836.09 100.14"/><path class="cls-1" d="M844.55,108.94h-8.92V99.68h8.92Zm-8-.93h7.08V100.6h-7.08Z"/><polyline class="cls-1" points="902.77 100.14 910.77 100.14 910.77 108.47 902.77 108.47 902.77 100.14"/><path class="cls-1" d="M911.24,108.94h-8.93V99.68h8.93Zm-8-.93h7.08V100.6h-7.08Z"/><polyline class="cls-1" points="998.01 100.14 1006.12 100.14 1006.12 108.47 998.01 108.47 998.01 100.14"/><path class="cls-1" d="M1006.59,108.94h-9V99.68h9Zm-8.12-.93h7.19V100.6h-7.19Z"/><polyline class="cls-1" points="578.7 110.03 586.82 110.03 586.82 118.48 578.7 118.48 578.7 110.03"/><path class="cls-1" d="M587.28,118.94h-9v-9.37h9Zm-8.11-.93h7.18v-7.52h-7.18Z"/><polyline class="cls-1" points="626.38 110.03 634.49 110.03 634.49 118.48 626.38 118.48 626.38 110.03"/><path class="cls-1" d="M635,118.94h-9v-9.37h9Zm-8.12-.93H634v-7.52h-7.19Z"/><polyline class="cls-1" points="702.62 110.03 710.73 110.03 710.73 118.48 702.62 118.48 702.62 110.03"/><path class="cls-1" d="M711.19,118.94h-9v-9.37h9Zm-8.11-.93h7.19v-7.52h-7.19Z"/><polyline class="cls-1" points="769.3 110.03 777.41 110.03 777.41 118.48 769.3 118.48 769.3 110.03"/><path class="cls-1" d="M777.87,118.94h-9v-9.37h9Zm-8.11-.93H777v-7.52h-7.19Z"/><polyline class="cls-1" points="836.09 110.03 844.09 110.03 844.09 118.48 836.09 118.48 836.09 110.03"/><path class="cls-1" d="M844.55,118.94h-8.92v-9.37h8.92Zm-8-.93h7.08v-7.52h-7.08Z"/><polyline class="cls-1" points="902.77 110.03 910.77 110.03 910.77 118.48 902.77 118.48 902.77 110.03"/><path class="cls-1" d="M911.24,118.94h-8.93v-9.37h8.93Zm-8-.93h7.08v-7.52h-7.08Z"/><polyline class="cls-1" points="998.01 109.2 1006.12 109.2 1006.12 117.64 998.01 117.64 998.01 109.2"/><path class="cls-1" d="M1006.59,118.11h-9v-9.38h9Zm-8.12-.93h7.19v-7.52h-7.19Z"/><polyline class="cls-1" points="559.7 120.03 567.7 120.03 567.7 128.37 559.7 128.37 559.7 120.03"/><path class="cls-1" d="M568.16,128.83h-8.92v-9.26h8.92Zm-8-.93h7.08v-7.4h-7.08Z"/><polyline class="cls-1" points="569.26 120.03 577.26 120.03 577.26 128.37 569.26 128.37 569.26 120.03"/><path class="cls-1" d="M577.72,128.83h-8.93v-9.26h8.93Zm-8-.93h7.07v-7.4h-7.07Z"/><polyline class="cls-1" points="578.7 120.03 586.82 120.03 586.82 128.37 578.7 128.37 578.7 120.03"/><path class="cls-1" d="M587.28,128.83h-9v-9.26h9Zm-8.11-.93h7.18v-7.4h-7.18Z"/><polyline class="cls-1" points="588.26 120.03 596.37 120.03 596.37 128.37 588.26 128.37 588.26 120.03"/><path class="cls-1" d="M596.84,128.83h-9v-9.26h9Zm-8.12-.93h7.19v-7.4h-7.19Z"/><polyline class="cls-1" points="597.82 120.03 605.82 120.03 605.82 128.37 597.82 128.37 597.82 120.03"/><path class="cls-1" d="M606.28,128.83h-8.92v-9.26h8.92Zm-8-.93h7.08v-7.4h-7.08Z"/><polyline class="cls-1" points="607.38 120.03 615.38 120.03 615.38 128.37 607.38 128.37 607.38 120.03"/><path class="cls-1" d="M615.84,128.83h-8.93v-9.26h8.93Zm-8-.93h7.07v-7.4h-7.07Z"/><polyline class="cls-1" points="616.82 120.03 624.93 120.03 624.93 128.37 616.82 128.37 616.82 120.03"/><path class="cls-1" d="M625.4,128.83h-9v-9.26h9Zm-8.11-.93h7.18v-7.4h-7.18Z"/><polyline class="cls-1" points="683.61 120.03 691.62 120.03 691.62 128.37 683.61 128.37 683.61 120.03"/><path class="cls-1" d="M692.08,128.83h-8.93v-9.26h8.93Zm-8-.93h7.07v-7.4h-7.07Z"/><polyline class="cls-1" points="693.06 120.03 701.17 120.03 701.17 128.37 693.06 128.37 693.06 120.03"/><path class="cls-1" d="M701.64,128.83h-9v-9.26h9Zm-8.12-.93h7.19v-7.4h-7.19Z"/><polyline class="cls-1" points="702.62 120.03 710.73 120.03 710.73 128.37 702.62 128.37 702.62 120.03"/><path class="cls-1" d="M711.19,128.83h-9v-9.26h9Zm-8.11-.93h7.19v-7.4h-7.19Z"/><polyline class="cls-1" points="712.17 120.03 720.18 120.03 720.18 128.37 712.17 128.37 712.17 120.03"/><path class="cls-1" d="M720.64,128.83h-8.93v-9.26h8.93Zm-8-.93h7.07v-7.4h-7.07Z"/><polyline class="cls-1" points="721.73 120.03 729.73 120.03 729.73 128.37 721.73 128.37 721.73 120.03"/><path class="cls-1" d="M730.2,128.83h-8.93v-9.26h8.93Zm-8-.93h7.07v-7.4H722.2Z"/><polyline class="cls-1" points="778.86 120.03 786.97 120.03 786.97 128.37 778.86 128.37 778.86 120.03"/><path class="cls-1" d="M787.43,128.83h-9v-9.26h9Zm-8.11-.93h7.19v-7.4h-7.19Z"/><polyline class="cls-1" points="788.41 120.03 796.41 120.03 796.41 128.37 788.41 128.37 788.41 120.03"/><path class="cls-1" d="M796.88,128.83H788v-9.26h8.93Zm-8-.93H796v-7.4h-7.07Z"/><polyline class="cls-1" points="797.97 120.03 805.97 120.03 805.97 128.37 797.97 128.37 797.97 120.03"/><path class="cls-1" d="M806.44,128.83h-8.93v-9.26h8.93Zm-8-.93h7.08v-7.4h-7.08Z"/><polyline class="cls-1" points="807.42 120.03 815.53 120.03 815.53 128.37 807.42 128.37 807.42 120.03"/><path class="cls-1" d="M816,128.83h-9v-9.26h9Zm-8.11-.93h7.19v-7.4h-7.19Z"/><polyline class="cls-1" points="816.97 120.03 825.09 120.03 825.09 128.37 816.97 128.37 816.97 120.03"/><path class="cls-1" d="M825.55,128.83h-9v-9.26h9Zm-8.11-.93h7.19v-7.4h-7.19Z"/><polyline class="cls-1" points="826.53 120.03 834.53 120.03 834.53 128.37 826.53 128.37 826.53 120.03"/><path class="cls-1" d="M835,128.83h-8.93v-9.26H835Zm-8-.93h7.08v-7.4H827Z"/><polyline class="cls-1" points="836.09 120.03 844.09 120.03 844.09 128.37 836.09 128.37 836.09 120.03"/><path class="cls-1" d="M844.55,128.83h-8.92v-9.26h8.92Zm-8-.93h7.08v-7.4h-7.08Z"/><polyline class="cls-1" points="883.65 120.03 891.77 120.03 891.77 128.37 883.65 128.37 883.65 120.03"/><path class="cls-1" d="M892.23,128.83h-9v-9.26h9Zm-8.11-.93h7.19v-7.4h-7.19Z"/><polyline class="cls-1" points="893.21 120.03 901.33 120.03 901.33 128.37 893.21 128.37 893.21 120.03"/><path class="cls-1" d="M901.79,128.83h-9v-9.26h9Zm-8.11-.93h7.18v-7.4h-7.18Z"/><polyline class="cls-1" points="902.77 120.03 910.77 120.03 910.77 128.37 902.77 128.37 902.77 120.03"/><path class="cls-1" d="M911.24,128.83h-8.93v-9.26h8.93Zm-8-.93h7.08v-7.4h-7.08Z"/><polyline class="cls-1" points="912.22 120.03 920.33 120.03 920.33 128.37 912.22 128.37 912.22 120.03"/><path class="cls-1" d="M920.79,128.83h-9v-9.26h9Zm-8.11-.93h7.19v-7.4h-7.19Z"/><polyline class="cls-1" points="921.77 120.03 929.89 120.03 929.89 128.37 921.77 128.37 921.77 120.03"/><path class="cls-1" d="M930.35,128.83h-9v-9.26h9Zm-8.11-.93h7.18v-7.4h-7.18Z"/><polyline class="cls-1" points="998.01 120.03 1006.12 120.03 1006.12 128.37 998.01 128.37 998.01 120.03"/><path class="cls-1" d="M1006.59,128.83h-9v-9.26h9Zm-8.12-.93h7.19v-7.4h-7.19Z"/><polyline class="cls-1" points="988.92 139.64 997.03 139.64 997.03 147.97 988.92 147.97 988.92 139.64"/><path class="cls-1" d="M997.5,148.44h-9v-9.27h9Zm-8.12-.93h7.19V140.1h-7.19Z"/><polyline class="cls-1" points="674.52 149.53 682.52 149.53 682.52 157.97 674.52 157.97 674.52 149.53"/><path class="cls-1" d="M683,158.44h-8.93v-9.38H683Zm-8-.93h7.08V150H675Z"/><polyline class="cls-1" points="798.33 159.53 806.44 159.53 806.44 167.98 798.33 167.98 798.33 159.53"/><path class="cls-1" d="M806.9,168.44h-9v-9.37h9Zm-8.11-.93H806V160h-7.18Z"/><polyline class="cls-1" points="960.36 179.42 968.47 179.42 968.47 187.87 960.36 187.87 960.36 179.42"/><path class="cls-1" d="M968.93,188.33h-9V179h9Zm-8.11-.92H968v-7.52h-7.19Z"/><polyline class="cls-1" points="1027.04 179.42 1035.15 179.42 1035.15 187.87 1027.04 187.87 1027.04 179.42"/><path class="cls-1" d="M1035.62,188.33h-9V179h9Zm-8.12-.92h7.19v-7.52h-7.19Z"/><polyline class="cls-1" points="703.08 209.32 711.2 209.32 711.2 217.65 703.08 217.65 703.08 209.32"/><path class="cls-1" d="M711.66,218.12h-9v-9.26h9Zm-8.11-.93h7.18v-7.41h-7.18Z"/><polyline class="cls-1" points="988.92 219.21 997.03 219.21 997.03 227.65 988.92 227.65 988.92 219.21"/><path class="cls-1" d="M997.5,228.12h-9v-9.37h9Zm-8.12-.93h7.19v-7.52h-7.19Z"/><polyline class="cls-1" points="779.32 219.21 787.43 219.21 787.43 227.65 779.32 227.65 779.32 219.21"/><path class="cls-1" d="M787.9,228.12h-9v-9.37h9Zm-8.12-.93H787v-7.52h-7.19Z"/><polyline class="cls-1" points="960.36 229.21 968.47 229.21 968.47 237.66 960.36 237.66 960.36 229.21"/><path class="cls-1" d="M968.93,238.12h-9v-9.37h9Zm-8.11-.93H968v-7.52h-7.19Z"/><polyline class="cls-1" points="722.2 239.21 730.2 239.21 730.2 247.55 722.2 247.55 722.2 239.21"/><path class="cls-1" d="M730.66,248h-8.93v-9.26h8.93Zm-8-.93h7.08v-7.4h-7.08Z"/><polyline class="cls-1" points="769.76 239.21 777.88 239.21 777.88 247.55 769.76 247.55 769.76 239.21"/><path class="cls-1" d="M778.34,248h-9v-9.26h9Zm-8.11-.93h7.18v-7.4h-7.18Z"/><polyline class="cls-1" points="1008.03 239.21 1016.15 239.21 1016.15 247.55 1008.03 247.55 1008.03 239.21"/><path class="cls-1" d="M1016.61,248h-9v-9.26h9Zm-8.11-.93h7.18v-7.4h-7.18Z"/><polyline class="cls-1" points="960.36 259.11 968.47 259.11 968.47 267.44 960.36 267.44 960.36 259.11"/><path class="cls-1" d="M968.93,267.9h-9v-9.26h9Zm-8.11-.92H968v-7.41h-7.19Z"/><polyline class="cls-1" points="1255.75 139.64 1263.87 139.64 1263.87 147.97 1255.75 147.97 1255.75 139.64"/><path class="cls-1" d="M1264.33,148.44h-9v-9.27h9Zm-8.11-.93h7.18V140.1h-7.18Z"/><polyline class="cls-1" points="1208.19 149.53 1216.19 149.53 1216.19 157.97 1208.19 157.97 1208.19 149.53"/><path class="cls-1" d="M1216.65,158.44h-8.93v-9.38h8.93Zm-8-.93h7.07V150h-7.07Z"/><polyline class="cls-1" points="1236.75 199.31 1244.75 199.31 1244.75 207.76 1236.75 207.76 1236.75 199.31"/><path class="cls-1" d="M1245.21,208.23h-8.92v-9.38h8.92Zm-8-.93h7.08v-7.52h-7.08Z"/><polyline class="cls-1" points="1198.63 239.21 1206.63 239.21 1206.63 247.55 1198.63 247.55 1198.63 239.21"/><path class="cls-1" d="M1207.09,248h-8.92v-9.26h8.92Zm-8-.93h7.08v-7.4h-7.08Z"/><polyline class="cls-1" points="1274.87 239.21 1282.87 239.21 1282.87 247.55 1274.87 247.55 1274.87 239.21"/><path class="cls-1" d="M1283.33,248h-8.93v-9.26h8.93Zm-8-.93h7.08v-7.4h-7.08Z"/><polyline class="cls-1" points="1227.19 259.11 1235.3 259.11 1235.3 267.44 1227.19 267.44 1227.19 259.11"/><path class="cls-1" d="M1235.77,267.9h-9v-9.26h9Zm-8.12-.92h7.19v-7.41h-7.19Z"/><polyline class="cls-1" points="674.52 139.64 682.52 139.64 682.52 147.97 674.52 147.97 674.52 139.64"/><path class="cls-1" d="M683,148.44h-8.93v-9.27H683Zm-8-.93h7.08V140.1H675Z"/><polyline class="cls-1" points="807.88 139.64 816 139.64 816 147.97 807.88 147.97 807.88 139.64"/><path class="cls-1" d="M816.46,148.44h-9v-9.27h9Zm-8.11-.93h7.18V140.1h-7.18Z"/><polyline class="cls-1" points="960.36 139.64 968.47 139.64 968.47 147.97 960.36 147.97 960.36 139.64"/><path class="cls-1" d="M968.93,148.44h-9v-9.27h9Zm-8.11-.93H968V140.1h-7.19Z"/><polyline class="cls-1" points="969.91 139.64 978.03 139.64 978.03 147.97 969.91 147.97 969.91 139.64"/><path class="cls-1" d="M978.49,148.44h-9v-9.27h9Zm-8.11-.93h7.18V140.1h-7.18Z"/><polyline class="cls-1" points="979.47 139.64 987.48 139.64 987.48 147.97 979.47 147.97 979.47 139.64"/><path class="cls-1" d="M987.94,148.44H979v-9.27h8.93Zm-8-.93H987V140.1h-7.07Z"/><polyline class="cls-1" points="998.48 139.64 1006.59 139.64 1006.59 147.97 998.48 147.97 998.48 139.64"/><path class="cls-1" d="M1007.05,148.44h-9v-9.27h9Zm-8.11-.93h7.19V140.1h-7.19Z"/><polyline class="cls-1" points="1008.03 139.64 1016.15 139.64 1016.15 147.97 1008.03 147.97 1008.03 139.64"/><path class="cls-1" d="M1016.61,148.44h-9v-9.27h9Zm-8.11-.93h7.18V140.1h-7.18Z"/><polyline class="cls-1" points="1017.59 139.64 1025.59 139.64 1025.59 147.97 1017.59 147.97 1017.59 139.64"/><path class="cls-1" d="M1026.06,148.44h-8.93v-9.27h8.93Zm-8-.93h7.08V140.1h-7.08Z"/><polyline class="cls-1" points="807.88 149.53 816 149.53 816 157.97 807.88 157.97 807.88 149.53"/><path class="cls-1" d="M816.46,158.44h-9v-9.38h9Zm-8.11-.93h7.18V150h-7.18Z"/><polyline class="cls-1" points="960.36 149.53 968.47 149.53 968.47 157.97 960.36 157.97 960.36 149.53"/><path class="cls-1" d="M968.93,158.44h-9v-9.38h9Zm-8.11-.93H968V150h-7.19Z"/><polyline class="cls-1" points="1027.04 149.53 1035.15 149.53 1035.15 157.97 1027.04 157.97 1027.04 149.53"/><path class="cls-1" d="M1035.62,158.44h-9v-9.38h9Zm-8.12-.93h7.19V150h-7.19Z"/><polyline class="cls-1" points="960.36 159.53 968.47 159.53 968.47 167.98 960.36 167.98 960.36 159.53"/><path class="cls-1" d="M968.93,168.44h-9v-9.37h9Zm-8.11-.93H968V160h-7.19Z"/><polyline class="cls-1" points="1036.6 159.53 1044.71 159.53 1044.71 167.98 1036.6 167.98 1036.6 159.53"/><path class="cls-1" d="M1045.17,168.44h-9v-9.37h9Zm-8.11-.93h7.18V160h-7.18Z"/><polyline class="cls-1" points="684.08 159.53 692.08 159.53 692.08 167.98 684.08 167.98 684.08 159.53"/><path class="cls-1" d="M692.54,168.44h-8.92v-9.37h8.92Zm-8-.93h7.08V160h-7.08Z"/><polyline class="cls-1" points="684.08 169.53 692.08 169.53 692.08 177.87 684.08 177.87 684.08 169.53"/><path class="cls-1" d="M692.54,178.33h-8.92v-9.26h8.92Zm-8-.93h7.08V170h-7.08Z"/><polyline class="cls-1" points="798.33 169.53 806.44 169.53 806.44 177.87 798.33 177.87 798.33 169.53"/><path class="cls-1" d="M806.9,178.33h-9v-9.26h9Zm-8.11-.93H806V170h-7.18Z"/><polyline class="cls-1" points="960.36 169.53 968.47 169.53 968.47 177.87 960.36 177.87 960.36 169.53"/><path class="cls-1" d="M968.93,178.33h-9v-9.26h9Zm-8.11-.93H968V170h-7.19Z"/><polyline class="cls-1" points="1036.6 169.53 1044.71 169.53 1044.71 177.87 1036.6 177.87 1036.6 169.53"/><path class="cls-1" d="M1045.17,178.33h-9v-9.26h9Zm-8.11-.93h7.18V170h-7.18Z"/><polyline class="cls-1" points="693.52 179.42 701.64 179.42 701.64 187.87 693.52 187.87 693.52 179.42"/><path class="cls-1" d="M702.1,188.33h-9V179h9Zm-8.11-.92h7.18v-7.52H694Z"/><polyline class="cls-1" points="788.88 179.42 796.88 179.42 796.88 187.87 788.88 187.87 788.88 179.42"/><path class="cls-1" d="M797.34,188.33h-8.93V179h8.93Zm-8-.92h7.08v-7.52h-7.08Z"/><polyline class="cls-1" points="693.52 189.43 701.64 189.43 701.64 197.76 693.52 197.76 693.52 189.43"/><path class="cls-1" d="M702.1,198.22h-9V189h9ZM694,197.3h7.18v-7.41H694Z"/><polyline class="cls-1" points="788.88 189.43 796.88 189.43 796.88 197.76 788.88 197.76 788.88 189.43"/><path class="cls-1" d="M797.34,198.22h-8.93V189h8.93Zm-8-.92h7.08v-7.41h-7.08Z"/><polyline class="cls-1" points="960.36 189.43 968.47 189.43 968.47 197.76 960.36 197.76 960.36 189.43"/><path class="cls-1" d="M968.93,198.22h-9V189h9Zm-8.11-.92H968v-7.41h-7.19Z"/><polyline class="cls-1" points="1017.59 189.43 1025.59 189.43 1025.59 197.76 1017.59 197.76 1017.59 189.43"/><path class="cls-1" d="M1026.06,198.22h-8.93V189h8.93Zm-8-.92h7.08v-7.41h-7.08Z"/><polyline class="cls-1" points="703.08 199.31 711.2 199.31 711.2 207.76 703.08 207.76 703.08 199.31"/><path class="cls-1" d="M711.66,208.23h-9v-9.38h9Zm-8.11-.93h7.18v-7.52h-7.18Z"/><polyline class="cls-1" points="779.32 199.31 787.43 199.31 787.43 207.76 779.32 207.76 779.32 199.31"/><path class="cls-1" d="M787.9,208.23h-9v-9.38h9Zm-8.12-.93H787v-7.52h-7.19Z"/><polyline class="cls-1" points="960.36 199.31 968.47 199.31 968.47 207.76 960.36 207.76 960.36 199.31"/><path class="cls-1" d="M968.93,208.23h-9v-9.38h9Zm-8.11-.93H968v-7.52h-7.19Z"/><polyline class="cls-1" points="969.91 199.31 978.03 199.31 978.03 207.76 969.91 207.76 969.91 199.31"/><path class="cls-1" d="M978.49,208.23h-9v-9.38h9Zm-8.11-.93h7.18v-7.52h-7.18Z"/><polyline class="cls-1" points="979.47 199.31 987.48 199.31 987.48 207.76 979.47 207.76 979.47 199.31"/><path class="cls-1" d="M987.94,208.23H979v-9.38h8.93Zm-8-.93H987v-7.52h-7.07Z"/><polyline class="cls-1" points="988.92 199.31 997.03 199.31 997.03 207.76 988.92 207.76 988.92 199.31"/><path class="cls-1" d="M997.5,208.23h-9v-9.38h9Zm-8.12-.93h7.19v-7.52h-7.19Z"/><polyline class="cls-1" points="998.48 199.31 1006.59 199.31 1006.59 207.76 998.48 207.76 998.48 199.31"/><path class="cls-1" d="M1007.05,208.23h-9v-9.38h9Zm-8.11-.93h7.19v-7.52h-7.19Z"/><polyline class="cls-1" points="1008.03 199.31 1016.15 199.31 1016.15 207.76 1008.03 207.76 1008.03 199.31"/><path class="cls-1" d="M1016.61,208.23h-9v-9.38h9Zm-8.11-.93h7.18v-7.52h-7.18Z"/><polyline class="cls-1" points="741.2 209.32 749.32 209.32 749.32 217.65 741.2 217.65 741.2 209.32"/><path class="cls-1" d="M749.78,218.12h-9v-9.26h9Zm-8.11-.93h7.18v-7.41h-7.18Z"/><polyline class="cls-1" points="779.32 209.32 787.43 209.32 787.43 217.65 779.32 217.65 779.32 209.32"/><path class="cls-1" d="M787.9,218.12h-9v-9.26h9Zm-8.12-.93H787v-7.41h-7.19Z"/><polyline class="cls-1" points="960.36 209.32 968.47 209.32 968.47 217.65 960.36 217.65 960.36 209.32"/><path class="cls-1" d="M968.93,218.12h-9v-9.26h9Zm-8.11-.93H968v-7.41h-7.19Z"/><polyline class="cls-1" points="979.47 209.32 987.48 209.32 987.48 217.65 979.47 217.65 979.47 209.32"/><path class="cls-1" d="M987.94,218.12H979v-9.26h8.93Zm-8-.93H987v-7.41h-7.07Z"/><polyline class="cls-1" points="960.36 219.21 968.47 219.21 968.47 227.65 960.36 227.65 960.36 219.21"/><path class="cls-1" d="M968.93,228.12h-9v-9.37h9Zm-8.11-.93H968v-7.52h-7.19Z"/><polyline class="cls-1" points="703.08 219.21 711.2 219.21 711.2 227.65 703.08 227.65 703.08 219.21"/><path class="cls-1" d="M711.66,228.12h-9v-9.37h9Zm-8.11-.93h7.18v-7.52h-7.18Z"/><polyline class="cls-1" points="731.64 219.21 739.76 219.21 739.76 227.65 731.64 227.65 731.64 219.21"/><path class="cls-1" d="M740.22,228.12h-9v-9.37h9Zm-8.11-.93h7.18v-7.52h-7.18Z"/><polyline class="cls-1" points="750.76 219.21 758.76 219.21 758.76 227.65 750.76 227.65 750.76 219.21"/><path class="cls-1" d="M759.22,228.12H750.3v-9.37h8.92Zm-8-.93h7.08v-7.52h-7.08Z"/><polyline class="cls-1" points="703.08 229.21 711.2 229.21 711.2 237.66 703.08 237.66 703.08 229.21"/><path class="cls-1" d="M711.66,238.12h-9v-9.37h9Zm-8.11-.93h7.18v-7.52h-7.18Z"/><polyline class="cls-1" points="722.2 229.21 730.2 229.21 730.2 237.66 722.2 237.66 722.2 229.21"/><path class="cls-1" d="M730.66,238.12h-8.93v-9.37h8.93Zm-8-.93h7.08v-7.52h-7.08Z"/><polyline class="cls-1" points="760.21 229.21 768.32 229.21 768.32 237.66 760.21 237.66 760.21 229.21"/><path class="cls-1" d="M768.78,238.12h-9v-9.37h9Zm-8.11-.93h7.19v-7.52h-7.19Z"/><polyline class="cls-1" points="779.32 229.21 787.43 229.21 787.43 237.66 779.32 237.66 779.32 229.21"/><path class="cls-1" d="M787.9,238.12h-9v-9.37h9Zm-8.12-.93H787v-7.52h-7.19Z"/><polyline class="cls-1" points="998.48 229.21 1006.59 229.21 1006.59 237.66 998.48 237.66 998.48 229.21"/><path class="cls-1" d="M1007.05,238.12h-9v-9.37h9Zm-8.11-.93h7.19v-7.52h-7.19Z"/><polyline class="cls-1" points="712.64 239.21 720.64 239.21 720.64 247.55 712.64 247.55 712.64 239.21"/><path class="cls-1" d="M721.1,248h-8.92v-9.26h8.92Zm-8-.93h7.08v-7.4H713.1Z"/><polyline class="cls-1" points="760.21 239.21 768.32 239.21 768.32 247.55 760.21 247.55 760.21 239.21"/><path class="cls-1" d="M768.78,248h-9v-9.26h9Zm-8.11-.93h7.19v-7.4h-7.19Z"/><polyline class="cls-1" points="960.36 239.21 968.47 239.21 968.47 247.55 960.36 247.55 960.36 239.21"/><path class="cls-1" d="M968.93,248h-9v-9.26h9Zm-8.11-.93H968v-7.4h-7.19Z"/><polyline class="cls-1" points="712.64 249.1 720.64 249.1 720.64 257.55 712.64 257.55 712.64 249.1"/><path class="cls-1" d="M721.1,258h-8.92v-9.37h8.92Zm-8-.92h7.08v-7.52H713.1Z"/><polyline class="cls-1" points="769.76 249.1 777.88 249.1 777.88 257.55 769.76 257.55 769.76 249.1"/><path class="cls-1" d="M778.34,258h-9v-9.37h9Zm-8.11-.92h7.18v-7.52h-7.18Z"/><polyline class="cls-1" points="960.36 249.1 968.47 249.1 968.47 257.55 960.36 257.55 960.36 249.1"/><path class="cls-1" d="M968.93,258h-9v-9.37h9Zm-8.11-.92H968v-7.52h-7.19Z"/><polyline class="cls-1" points="1017.59 249.1 1025.59 249.1 1025.59 257.55 1017.59 257.55 1017.59 249.1"/><path class="cls-1" d="M1026.06,258h-8.93v-9.37h8.93Zm-8-.92h7.08v-7.52h-7.08Z"/><polyline class="cls-1" points="712.64 259.11 720.64 259.11 720.64 267.44 712.64 267.44 712.64 259.11"/><path class="cls-1" d="M721.1,267.9h-8.92v-9.26h8.92Zm-8-.92h7.08v-7.41H713.1Z"/><polyline class="cls-1" points="769.76 259.11 777.88 259.11 777.88 267.44 769.76 267.44 769.76 259.11"/><path class="cls-1" d="M778.34,267.9h-9v-9.26h9Zm-8.11-.92h7.18v-7.41h-7.18Z"/><polyline class="cls-1" points="1027.04 259.11 1035.15 259.11 1035.15 267.44 1027.04 267.44 1027.04 259.11"/><path class="cls-1" d="M1035.62,267.9h-9v-9.26h9Zm-8.12-.92h7.19v-7.41h-7.19Z"/><polyline class="cls-1" points="1217.63 139.64 1225.75 139.64 1225.75 147.97 1217.63 147.97 1217.63 139.64"/><path class="cls-1" d="M1226.21,148.44h-9v-9.27h9Zm-8.11-.93h7.18V140.1h-7.18Z"/><polyline class="cls-1" points="1227.19 139.64 1235.3 139.64 1235.3 147.97 1227.19 147.97 1227.19 139.64"/><path class="cls-1" d="M1235.77,148.44h-9v-9.27h9Zm-8.12-.93h7.19V140.1h-7.19Z"/><polyline class="cls-1" points="1236.75 139.64 1244.75 139.64 1244.75 147.97 1236.75 147.97 1236.75 139.64"/><path class="cls-1" d="M1245.21,148.44h-8.92v-9.27h8.92Zm-8-.93h7.08V140.1h-7.08Z"/><polyline class="cls-1" points="1246.31 139.64 1254.31 139.64 1254.31 147.97 1246.31 147.97 1246.31 139.64"/><path class="cls-1" d="M1254.77,148.44h-8.93v-9.27h8.93Zm-8-.93h7.07V140.1h-7.07Z"/><polyline class="cls-1" points="1265.31 149.53 1273.42 149.53 1273.42 157.97 1265.31 157.97 1265.31 149.53"/><path class="cls-1" d="M1273.89,158.44h-9v-9.38h9Zm-8.12-.93H1273V150h-7.19Z"/><polyline class="cls-1" points="1198.63 159.53 1206.63 159.53 1206.63 167.98 1198.63 167.98 1198.63 159.53"/><path class="cls-1" d="M1207.09,168.44h-8.92v-9.37h8.92Zm-8-.93h7.08V160h-7.08Z"/><polyline class="cls-1" points="1274.87 159.53 1282.87 159.53 1282.87 167.98 1274.87 167.98 1274.87 159.53"/><path class="cls-1" d="M1283.33,168.44h-8.93v-9.37h8.93Zm-8-.93h7.08V160h-7.08Z"/><polyline class="cls-1" points="1208.19 169.53 1216.19 169.53 1216.19 177.87 1208.19 177.87 1208.19 169.53"/><path class="cls-1" d="M1216.65,178.33h-8.93v-9.26h8.93Zm-8-.93h7.07V170h-7.07Z"/><polyline class="cls-1" points="1217.63 179.42 1225.75 179.42 1225.75 187.87 1217.63 187.87 1217.63 179.42"/><path class="cls-1" d="M1226.21,188.33h-9V179h9Zm-8.11-.92h7.18v-7.52h-7.18Z"/><polyline class="cls-1" points="1227.19 189.43 1235.3 189.43 1235.3 197.76 1227.19 197.76 1227.19 189.43"/><path class="cls-1" d="M1235.77,198.22h-9V189h9Zm-8.12-.92h7.19v-7.41h-7.19Z"/><polyline class="cls-1" points="1246.31 209.32 1254.31 209.32 1254.31 217.65 1246.31 217.65 1246.31 209.32"/><path class="cls-1" d="M1254.77,218.12h-8.93v-9.26h8.93Zm-8-.93h7.07v-7.41h-7.07Z"/><polyline class="cls-1" points="1255.75 219.21 1263.87 219.21 1263.87 227.65 1255.75 227.65 1255.75 219.21"/><path class="cls-1" d="M1264.33,228.12h-9v-9.37h9Zm-8.11-.93h7.18v-7.52h-7.18Z"/><polyline class="cls-1" points="1265.31 229.21 1273.42 229.21 1273.42 237.66 1265.31 237.66 1265.31 229.21"/><path class="cls-1" d="M1273.89,238.12h-9v-9.37h9Zm-8.12-.93H1273v-7.52h-7.19Z"/><polyline class="cls-1" points="1208.19 249.1 1216.19 249.1 1216.19 257.55 1208.19 257.55 1208.19 249.1"/><path class="cls-1" d="M1216.65,258h-8.93v-9.37h8.93Zm-8-.92h7.07v-7.52h-7.07Z"/><polyline class="cls-1" points="1265.31 249.1 1273.42 249.1 1273.42 257.55 1265.31 257.55 1265.31 249.1"/><path class="cls-1" d="M1273.89,258h-9v-9.37h9Zm-8.12-.92H1273v-7.52h-7.19Z"/><polyline class="cls-1" points="1217.63 259.11 1225.75 259.11 1225.75 267.44 1217.63 267.44 1217.63 259.11"/><path class="cls-1" d="M1226.21,267.9h-9v-9.26h9Zm-8.11-.92h7.18v-7.41h-7.18Z"/><polyline class="cls-1" points="1236.75 259.11 1244.75 259.11 1244.75 267.44 1236.75 267.44 1236.75 259.11"/><path class="cls-1" d="M1245.21,267.9h-8.92v-9.26h8.92Zm-8-.92h7.08v-7.41h-7.08Z"/><polyline class="cls-1" points="1246.31 259.11 1254.31 259.11 1254.31 267.44 1246.31 267.44 1246.31 259.11"/><path class="cls-1" d="M1254.77,267.9h-8.93v-9.26h8.93Zm-8-.92h7.07v-7.41h-7.07Z"/><polyline class="cls-1" points="1255.75 259.11 1263.87 259.11 1263.87 267.44 1255.75 267.44 1255.75 259.11"/><path class="cls-1" d="M1264.33,267.9h-9v-9.26h9Zm-8.11-.92h7.18v-7.41h-7.18Z"/><polyline class="cls-1" points="597.82 139.73 605.93 139.73 605.93 148.07 597.82 148.07 597.82 139.73"/><path class="cls-1" d="M606.39,148.53h-9v-9.26h9Zm-8.11-.93h7.19v-7.4h-7.19Z"/><polyline class="cls-1" points="597.82 149.62 605.93 149.62 605.93 158.07 597.82 158.07 597.82 149.62"/><path class="cls-1" d="M606.39,158.53h-9v-9.37h9Zm-8.11-.92h7.19v-7.52h-7.19Z"/><polyline class="cls-1" points="588.26 159.63 596.37 159.63 596.37 168.07 588.26 168.07 588.26 159.63"/><path class="cls-1" d="M596.84,168.53h-9v-9.37h9Zm-8.12-.92h7.19v-7.52h-7.19Z"/><polyline class="cls-1" points="607.38 159.63 615.38 159.63 615.38 168.07 607.38 168.07 607.38 159.63"/><path class="cls-1" d="M615.84,168.53h-8.93v-9.37h8.93Zm-8-.92h7.07v-7.52h-7.07Z"/><polyline class="cls-1" points="588.26 169.63 596.37 169.63 596.37 177.96 588.26 177.96 588.26 169.63"/><path class="cls-1" d="M596.84,178.43h-9v-9.27h9Zm-8.12-.93h7.19v-7.41h-7.19Z"/><polyline class="cls-1" points="607.38 169.63 615.38 169.63 615.38 177.96 607.38 177.96 607.38 169.63"/><path class="cls-1" d="M615.84,178.43h-8.93v-9.27h8.93Zm-8-.93h7.07v-7.41h-7.07Z"/><polyline class="cls-1" points="578.7 179.52 586.82 179.52 586.82 187.97 578.7 187.97 578.7 179.52"/><path class="cls-1" d="M587.28,188.43h-9v-9.38h9Zm-8.11-.93h7.18V180h-7.18Z"/><polyline class="cls-1" points="616.82 179.52 624.93 179.52 624.93 187.97 616.82 187.97 616.82 179.52"/><path class="cls-1" d="M625.4,188.43h-9v-9.38h9Zm-8.11-.93h7.18V180h-7.18Z"/><polyline class="cls-1" points="578.7 189.52 586.82 189.52 586.82 197.86 578.7 197.86 578.7 189.52"/><path class="cls-1" d="M587.28,198.32h-9v-9.26h9Zm-8.11-.93h7.18V190h-7.18Z"/><polyline class="cls-1" points="616.82 189.52 624.93 189.52 624.93 197.86 616.82 197.86 616.82 189.52"/><path class="cls-1" d="M625.4,198.32h-9v-9.26h9Zm-8.11-.93h7.18V190h-7.18Z"/><polyline class="cls-1" points="569.26 199.41 577.26 199.41 577.26 207.86 569.26 207.86 569.26 199.41"/><path class="cls-1" d="M577.72,208.32h-8.93V199h8.93Zm-8-.92h7.07v-7.53h-7.07Z"/><polyline class="cls-1" points="626.38 199.41 634.49 199.41 634.49 207.86 626.38 207.86 626.38 199.41"/><path class="cls-1" d="M635,208.32h-9V199h9Zm-8.12-.92H634v-7.53h-7.19Z"/><polyline class="cls-1" points="569.26 209.41 577.26 209.41 577.26 217.75 569.26 217.75 569.26 209.41"/><path class="cls-1" d="M577.72,218.21h-8.93V209h8.93Zm-8-.92h7.07v-7.41h-7.07Z"/><polyline class="cls-1" points="626.38 209.41 634.49 209.41 634.49 217.75 626.38 217.75 626.38 209.41"/><path class="cls-1" d="M635,218.21h-9V209h9Zm-8.12-.92H634v-7.41h-7.19Z"/><polyline class="cls-1" points="559.7 219.31 567.81 219.31 567.81 227.75 559.7 227.75 559.7 219.31"/><path class="cls-1" d="M568.28,228.21h-9v-9.37h9Zm-8.12-.92h7.19v-7.52h-7.19Z"/><polyline class="cls-1" points="569.26 219.31 577.26 219.31 577.26 227.75 569.26 227.75 569.26 219.31"/><path class="cls-1" d="M577.72,228.21h-8.93v-9.37h8.93Zm-8-.92h7.07v-7.52h-7.07Z"/><polyline class="cls-1" points="578.7 219.31 586.82 219.31 586.82 227.75 578.7 227.75 578.7 219.31"/><path class="cls-1" d="M587.28,228.21h-9v-9.37h9Zm-8.11-.92h7.18v-7.52h-7.18Z"/><polyline class="cls-1" points="588.26 219.31 596.37 219.31 596.37 227.75 588.26 227.75 588.26 219.31"/><path class="cls-1" d="M596.84,228.21h-9v-9.37h9Zm-8.12-.92h7.19v-7.52h-7.19Z"/><polyline class="cls-1" points="597.82 219.31 605.93 219.31 605.93 227.75 597.82 227.75 597.82 219.31"/><path class="cls-1" d="M606.39,228.21h-9v-9.37h9Zm-8.11-.92h7.19v-7.52h-7.19Z"/><polyline class="cls-1" points="607.38 219.31 615.38 219.31 615.38 227.75 607.38 227.75 607.38 219.31"/><path class="cls-1" d="M615.84,228.21h-8.93v-9.37h8.93Zm-8-.92h7.07v-7.52h-7.07Z"/><polyline class="cls-1" points="616.82 219.31 624.93 219.31 624.93 227.75 616.82 227.75 616.82 219.31"/><path class="cls-1" d="M625.4,228.21h-9v-9.37h9Zm-8.11-.92h7.18v-7.52h-7.18Z"/><polyline class="cls-1" points="626.38 219.31 634.49 219.31 634.49 227.75 626.38 227.75 626.38 219.31"/><path class="cls-1" d="M635,228.21h-9v-9.37h9Zm-8.12-.92H634v-7.52h-7.19Z"/><polyline class="cls-1" points="635.94 219.31 643.94 219.31 643.94 227.75 635.94 227.75 635.94 219.31"/><path class="cls-1" d="M644.4,228.21h-8.93v-9.37h8.93Zm-8-.92h7.08v-7.52H636.4Z"/><polyline class="cls-1" points="559.7 229.31 567.81 229.31 567.81 237.75 559.7 237.75 559.7 229.31"/><path class="cls-1" d="M568.28,238.22h-9v-9.38h9Zm-8.12-.93h7.19v-7.52h-7.19Z"/><polyline class="cls-1" points="635.94 229.31 643.94 229.31 643.94 237.75 635.94 237.75 635.94 229.31"/><path class="cls-1" d="M644.4,238.22h-8.93v-9.38h8.93Zm-8-.93h7.08v-7.52H636.4Z"/><polyline class="cls-1" points="559.7 239.31 567.81 239.31 567.81 247.64 559.7 247.64 559.7 239.31"/><path class="cls-1" d="M568.28,248.11h-9v-9.26h9Zm-8.12-.93h7.19v-7.41h-7.19Z"/><polyline class="cls-1" points="635.94 239.31 643.94 239.31 643.94 247.64 635.94 247.64 635.94 239.31"/><path class="cls-1" d="M644.4,248.11h-8.93v-9.26h8.93Zm-8-.93h7.08v-7.41H636.4Z"/><polyline class="cls-1" points="559.7 249.2 567.81 249.2 567.81 257.65 559.7 257.65 559.7 249.2"/><path class="cls-1" d="M568.28,258.11h-9v-9.37h9Zm-8.12-.93h7.19v-7.52h-7.19Z"/><polyline class="cls-1" points="635.94 249.2 643.94 249.2 643.94 257.65 635.94 257.65 635.94 249.2"/><path class="cls-1" d="M644.4,258.11h-8.93v-9.37h8.93Zm-8-.93h7.08v-7.52H636.4Z"/><polyline class="cls-1" points="559.7 259.2 567.81 259.2 567.81 267.54 559.7 267.54 559.7 259.2"/><path class="cls-1" d="M568.28,268h-9v-9.26h9Zm-8.12-.93h7.19v-7.41h-7.19Z"/><polyline class="cls-1" points="635.94 259.2 643.94 259.2 643.94 267.54 635.94 267.54 635.94 259.2"/><path class="cls-1" d="M644.4,268h-8.93v-9.26h8.93Zm-8-.93h7.08v-7.41H636.4Z"/><polyline class="cls-1" points="874.95 139.49 883.06 139.49 883.06 147.83 874.95 147.83 874.95 139.49"/><path class="cls-1" d="M883.53,148.29h-9V139h9Zm-8.12-.93h7.19V140h-7.19Z"/><polyline class="cls-1" points="874.95 149.38 883.06 149.38 883.06 157.83 874.95 157.83 874.95 149.38"/><path class="cls-1" d="M883.53,158.29h-9v-9.37h9Zm-8.12-.93h7.19v-7.52h-7.19Z"/><polyline class="cls-1" points="865.39 159.38 873.51 159.38 873.51 167.83 865.39 167.83 865.39 159.38"/><path class="cls-1" d="M874,168.29h-9v-9.37h9Zm-8.11-.92H873v-7.52h-7.18Z"/><polyline class="cls-1" points="884.51 159.38 892.51 159.38 892.51 167.83 884.51 167.83 884.51 159.38"/><path class="cls-1" d="M893,168.29h-8.92v-9.37H893Zm-8-.92h7.08v-7.52H885Z"/><polyline class="cls-1" points="865.39 169.38 873.51 169.38 873.51 177.72 865.39 177.72 865.39 169.38"/><path class="cls-1" d="M874,178.18h-9v-9.26h9Zm-8.11-.92H873v-7.41h-7.18Z"/><polyline class="cls-1" points="884.51 169.38 892.51 169.38 892.51 177.72 884.51 177.72 884.51 169.38"/><path class="cls-1" d="M893,178.18h-8.92v-9.26H893Zm-8-.92h7.08v-7.41H885Z"/><polyline class="cls-1" points="855.84 179.28 863.95 179.28 863.95 187.72 855.84 187.72 855.84 179.28"/><path class="cls-1" d="M864.41,188.19h-9v-9.38h9Zm-8.11-.93h7.19v-7.52H856.3Z"/><polyline class="cls-1" points="893.96 179.28 902.07 179.28 902.07 187.72 893.96 187.72 893.96 179.28"/><path class="cls-1" d="M902.53,188.19h-9v-9.38h9Zm-8.11-.93h7.18v-7.52h-7.18Z"/><polyline class="cls-1" points="855.84 189.28 863.95 189.28 863.95 197.61 855.84 197.61 855.84 189.28"/><path class="cls-1" d="M864.41,198.08h-9v-9.26h9Zm-8.11-.93h7.19v-7.41H856.3Z"/><polyline class="cls-1" points="893.96 189.28 902.07 189.28 902.07 197.61 893.96 197.61 893.96 189.28"/><path class="cls-1" d="M902.53,198.08h-9v-9.26h9Zm-8.11-.93h7.18v-7.41h-7.18Z"/><polyline class="cls-1" points="846.39 199.17 854.39 199.17 854.39 207.62 846.39 207.62 846.39 199.17"/><path class="cls-1" d="M854.85,208.08h-8.92v-9.37h8.92Zm-8-.93h7.08v-7.52h-7.08Z"/><polyline class="cls-1" points="903.51 199.17 911.63 199.17 911.63 207.62 903.51 207.62 903.51 199.17"/><path class="cls-1" d="M912.09,208.08h-9v-9.37h9Zm-8.11-.93h7.18v-7.52H904Z"/><polyline class="cls-1" points="846.39 209.17 854.39 209.17 854.39 217.51 846.39 217.51 846.39 209.17"/><path class="cls-1" d="M854.85,218h-8.92v-9.26h8.92Zm-8-.93h7.08v-7.41h-7.08Z"/><polyline class="cls-1" points="903.51 209.17 911.63 209.17 911.63 217.51 903.51 217.51 903.51 209.17"/><path class="cls-1" d="M912.09,218h-9v-9.26h9ZM904,217h7.18v-7.41H904Z"/><polyline class="cls-1" points="836.83 219.06 844.95 219.06 844.95 227.51 836.83 227.51 836.83 219.06"/><path class="cls-1" d="M845.41,228h-9V218.6h9ZM837.3,227h7.18v-7.51H837.3Z"/><polyline class="cls-1" points="846.39 219.06 854.39 219.06 854.39 227.51 846.39 227.51 846.39 219.06"/><path class="cls-1" d="M854.85,228h-8.92V218.6h8.92Zm-8-.93h7.08v-7.51h-7.08Z"/><polyline class="cls-1" points="855.84 219.06 863.95 219.06 863.95 227.51 855.84 227.51 855.84 219.06"/><path class="cls-1" d="M864.41,228h-9V218.6h9ZM856.3,227h7.19v-7.51H856.3Z"/><polyline class="cls-1" points="865.39 219.06 873.51 219.06 873.51 227.51 865.39 227.51 865.39 219.06"/><path class="cls-1" d="M874,228h-9V218.6h9Zm-8.11-.93H873v-7.51h-7.18Z"/><polyline class="cls-1" points="874.95 219.06 883.06 219.06 883.06 227.51 874.95 227.51 874.95 219.06"/><path class="cls-1" d="M883.53,228h-9V218.6h9Zm-8.12-.93h7.19v-7.51h-7.19Z"/><polyline class="cls-1" points="884.51 219.06 892.51 219.06 892.51 227.51 884.51 227.51 884.51 219.06"/><path class="cls-1" d="M893,228h-8.92V218.6H893Zm-8-.93h7.08v-7.51H885Z"/><polyline class="cls-1" points="893.96 219.06 902.07 219.06 902.07 227.51 893.96 227.51 893.96 219.06"/><path class="cls-1" d="M902.53,228h-9V218.6h9Zm-8.11-.93h7.18v-7.51h-7.18Z"/><polyline class="cls-1" points="903.51 219.06 911.63 219.06 911.63 227.51 903.51 227.51 903.51 219.06"/><path class="cls-1" d="M912.09,228h-9V218.6h9ZM904,227h7.18v-7.51H904Z"/><polyline class="cls-1" points="913.07 219.06 921.07 219.06 921.07 227.51 913.07 227.51 913.07 219.06"/><path class="cls-1" d="M921.53,228h-8.92V218.6h8.92Zm-8-.93h7.08v-7.51h-7.08Z"/><polyline class="cls-1" points="836.83 229.06 844.95 229.06 844.95 237.51 836.83 237.51 836.83 229.06"/><path class="cls-1" d="M845.41,238h-9V228.6h9Zm-8.11-.92h7.18v-7.52H837.3Z"/><polyline class="cls-1" points="913.07 229.06 921.07 229.06 921.07 237.51 913.07 237.51 913.07 229.06"/><path class="cls-1" d="M921.53,238h-8.92V228.6h8.92Zm-8-.92h7.08v-7.52h-7.08Z"/><polyline class="cls-1" points="836.83 239.07 844.95 239.07 844.95 247.4 836.83 247.4 836.83 239.07"/><path class="cls-1" d="M845.41,247.86h-9V238.6h9Zm-8.11-.92h7.18v-7.41H837.3Z"/><polyline class="cls-1" points="913.07 239.07 921.07 239.07 921.07 247.4 913.07 247.4 913.07 239.07"/><path class="cls-1" d="M921.53,247.86h-8.92V238.6h8.92Zm-8-.92h7.08v-7.41h-7.08Z"/><polyline class="cls-1" points="836.83 248.96 844.95 248.96 844.95 257.4 836.83 257.4 836.83 248.96"/><path class="cls-1" d="M845.41,257.87h-9v-9.38h9Zm-8.11-.93h7.18v-7.52H837.3Z"/><polyline class="cls-1" points="913.07 248.96 921.07 248.96 921.07 257.4 913.07 257.4 913.07 248.96"/><path class="cls-1" d="M921.53,257.87h-8.92v-9.38h8.92Zm-8-.93h7.08v-7.52h-7.08Z"/><polyline class="cls-1" points="836.83 258.96 844.95 258.96 844.95 267.3 836.83 267.3 836.83 258.96"/><path class="cls-1" d="M845.41,267.76h-9V258.5h9Zm-8.11-.93h7.18v-7.41H837.3Z"/><polyline class="cls-1" points="913.07 258.96 921.07 258.96 921.07 267.3 913.07 267.3 913.07 258.96"/><path class="cls-1" d="M921.53,267.76h-8.92V258.5h8.92Zm-8-.93h7.08v-7.41h-7.08Z"/><polyline class="cls-1" points="1074.86 139.69 1082.87 139.69 1082.87 148.03 1074.86 148.03 1074.86 139.69"/><path class="cls-1" d="M1083.33,148.49h-8.93v-9.26h8.93Zm-8-.93h7.07v-7.41h-7.07Z"/><polyline class="cls-1" points="1084.42 139.69 1092.42 139.69 1092.42 148.03 1084.42 148.03 1084.42 139.69"/><path class="cls-1" d="M1092.88,148.49H1084v-9.26h8.92Zm-8-.93H1092v-7.41h-7.08Z"/><polyline class="cls-1" points="1093.87 139.69 1101.98 139.69 1101.98 148.03 1093.87 148.03 1093.87 139.69"/><path class="cls-1" d="M1102.44,148.49h-9v-9.26h9Zm-8.11-.93h7.19v-7.41h-7.19Z"/><polyline class="cls-1" points="1103.42 139.69 1111.54 139.69 1111.54 148.03 1103.42 148.03 1103.42 139.69"/><path class="cls-1" d="M1112,148.49h-9v-9.26h9Zm-8.11-.93h7.18v-7.41h-7.18Z"/><polyline class="cls-1" points="1112.98 139.69 1120.98 139.69 1120.98 148.03 1112.98 148.03 1112.98 139.69"/><path class="cls-1" d="M1121.45,148.49h-8.93v-9.26h8.93Zm-8-.93h7.07v-7.41h-7.07Z"/><polyline class="cls-1" points="1122.54 139.69 1130.54 139.69 1130.54 148.03 1122.54 148.03 1122.54 139.69"/><path class="cls-1" d="M1131,148.49h-8.92v-9.26H1131Zm-8-.93h7.08v-7.41H1123Z"/><polyline class="cls-1" points="1131.98 139.69 1140.1 139.69 1140.1 148.03 1131.98 148.03 1131.98 139.69"/><path class="cls-1" d="M1140.56,148.49h-9v-9.26h9Zm-8.11-.93h7.18v-7.41h-7.18Z"/><polyline class="cls-1" points="1093.87 149.58 1101.98 149.58 1101.98 158.03 1093.87 158.03 1093.87 149.58"/><path class="cls-1" d="M1102.44,158.49h-9v-9.37h9Zm-8.11-.92h7.19v-7.52h-7.19Z"/><polyline class="cls-1" points="1141.54 149.58 1149.66 149.58 1149.66 158.03 1141.54 158.03 1141.54 149.58"/><path class="cls-1" d="M1150.12,158.49h-9v-9.37h9Zm-8.11-.92h7.18v-7.52H1142Z"/><polyline class="cls-1" points="1093.87 159.59 1101.98 159.59 1101.98 168.03 1093.87 168.03 1093.87 159.59"/><path class="cls-1" d="M1102.44,168.49h-9v-9.37h9Zm-8.11-.92h7.19v-7.52h-7.19Z"/><polyline class="cls-1" points="1151.1 159.59 1159.1 159.59 1159.1 168.03 1151.1 168.03 1151.1 159.59"/><path class="cls-1" d="M1159.56,168.49h-8.92v-9.37h8.92Zm-8-.92h7.08v-7.52h-7.08Z"/><polyline class="cls-1" points="1093.87 169.59 1101.98 169.59 1101.98 177.92 1093.87 177.92 1093.87 169.59"/><path class="cls-1" d="M1102.44,178.39h-9v-9.27h9Zm-8.11-.93h7.19v-7.41h-7.19Z"/><polyline class="cls-1" points="1151.1 169.59 1159.1 169.59 1159.1 177.92 1151.1 177.92 1151.1 169.59"/><path class="cls-1" d="M1159.56,178.39h-8.92v-9.27h8.92Zm-8-.93h7.08v-7.41h-7.08Z"/><polyline class="cls-1" points="1093.87 179.48 1101.98 179.48 1101.98 187.92 1093.87 187.92 1093.87 179.48"/><path class="cls-1" d="M1102.44,188.39h-9V179h9Zm-8.11-.93h7.19v-7.52h-7.19Z"/><polyline class="cls-1" points="1151.1 179.48 1159.1 179.48 1159.1 187.92 1151.1 187.92 1151.1 179.48"/><path class="cls-1" d="M1159.56,188.39h-8.92V179h8.92Zm-8-.93h7.08v-7.52h-7.08Z"/><polyline class="cls-1" points="1093.87 189.48 1101.98 189.48 1101.98 197.82 1093.87 197.82 1093.87 189.48"/><path class="cls-1" d="M1102.44,198.28h-9V189h9Zm-8.11-.93h7.19v-7.41h-7.19Z"/><polyline class="cls-1" points="1151.1 189.48 1159.1 189.48 1159.1 197.82 1151.1 197.82 1151.1 189.48"/><path class="cls-1" d="M1159.56,198.28h-8.92V189h8.92Zm-8-.93h7.08v-7.41h-7.08Z"/><polyline class="cls-1" points="1093.87 199.37 1101.98 199.37 1101.98 207.82 1093.87 207.82 1093.87 199.37"/><path class="cls-1" d="M1102.44,208.28h-9v-9.37h9Zm-8.11-.93h7.19v-7.52h-7.19Z"/><polyline class="cls-1" points="1151.1 199.37 1159.1 199.37 1159.1 207.82 1151.1 207.82 1151.1 199.37"/><path class="cls-1" d="M1159.56,208.28h-8.92v-9.37h8.92Zm-8-.93h7.08v-7.52h-7.08Z"/><polyline class="cls-1" points="1093.87 209.37 1101.98 209.37 1101.98 217.71 1093.87 217.71 1093.87 209.37"/><path class="cls-1" d="M1102.44,218.17h-9v-9.26h9Zm-8.11-.93h7.19v-7.4h-7.19Z"/><polyline class="cls-1" points="1151.1 209.37 1159.1 209.37 1159.1 217.71 1151.1 217.71 1151.1 209.37"/><path class="cls-1" d="M1159.56,218.17h-8.92v-9.26h8.92Zm-8-.93h7.08v-7.4h-7.08Z"/><polyline class="cls-1" points="1093.87 219.26 1101.98 219.26 1101.98 227.71 1093.87 227.71 1093.87 219.26"/><path class="cls-1" d="M1102.44,228.17h-9V218.8h9Zm-8.11-.92h7.19v-7.52h-7.19Z"/><polyline class="cls-1" points="1151.1 219.26 1159.1 219.26 1159.1 227.71 1151.1 227.71 1151.1 219.26"/><path class="cls-1" d="M1159.56,228.17h-8.92V218.8h8.92Zm-8-.92h7.08v-7.52h-7.08Z"/><polyline class="cls-1" points="1093.87 229.27 1101.98 229.27 1101.98 237.71 1093.87 237.71 1093.87 229.27"/><path class="cls-1" d="M1102.44,238.17h-9V228.8h9Zm-8.11-.92h7.19v-7.52h-7.19Z"/><polyline class="cls-1" points="1151.1 229.27 1159.1 229.27 1159.1 237.71 1151.1 237.71 1151.1 229.27"/><path class="cls-1" d="M1159.56,238.17h-8.92V228.8h8.92Zm-8-.92h7.08v-7.52h-7.08Z"/><polyline class="cls-1" points="1093.87 239.27 1101.98 239.27 1101.98 247.6 1093.87 247.6 1093.87 239.27"/><path class="cls-1" d="M1102.44,248.06h-9V238.8h9Zm-8.11-.92h7.19v-7.41h-7.19Z"/><polyline class="cls-1" points="1151.1 239.27 1159.1 239.27 1159.1 247.6 1151.1 247.6 1151.1 239.27"/><path class="cls-1" d="M1159.56,248.06h-8.92V238.8h8.92Zm-8-.92h7.08v-7.41h-7.08Z"/><polyline class="cls-1" points="1093.87 249.16 1101.98 249.16 1101.98 257.61 1093.87 257.61 1093.87 249.16"/><path class="cls-1" d="M1102.44,258.07h-9V248.7h9Zm-8.11-.93h7.19v-7.52h-7.19Z"/><polyline class="cls-1" points="1141.54 249.16 1149.66 249.16 1149.66 257.61 1141.54 257.61 1141.54 249.16"/><path class="cls-1" d="M1150.12,258.07h-9V248.7h9Zm-8.11-.93h7.18v-7.52H1142Z"/><polyline class="cls-1" points="1074.86 259.16 1082.87 259.16 1082.87 267.5 1074.86 267.5 1074.86 259.16"/><path class="cls-1" d="M1083.33,268h-8.93V258.7h8.93Zm-8-.93h7.07v-7.41h-7.07Z"/><polyline class="cls-1" points="1084.42 259.16 1092.42 259.16 1092.42 267.5 1084.42 267.5 1084.42 259.16"/><path class="cls-1" d="M1092.88,268H1084V258.7h8.92Zm-8-.93H1092v-7.41h-7.08Z"/><polyline class="cls-1" points="1093.87 259.16 1101.98 259.16 1101.98 267.5 1093.87 267.5 1093.87 259.16"/><path class="cls-1" d="M1102.44,268h-9V258.7h9Zm-8.11-.93h7.19v-7.41h-7.19Z"/><polyline class="cls-1" points="1103.42 259.16 1111.54 259.16 1111.54 267.5 1103.42 267.5 1103.42 259.16"/><path class="cls-1" d="M1112,268h-9V258.7h9Zm-8.11-.93h7.18v-7.41h-7.18Z"/><polyline class="cls-1" points="1112.98 259.16 1120.98 259.16 1120.98 267.5 1112.98 267.5 1112.98 259.16"/><path class="cls-1" d="M1121.45,268h-8.93V258.7h8.93Zm-8-.93h7.07v-7.41h-7.07Z"/><polyline class="cls-1" points="1122.54 259.16 1130.54 259.16 1130.54 267.5 1122.54 267.5 1122.54 259.16"/><path class="cls-1" d="M1131,268h-8.92V258.7H1131Zm-8-.93h7.08v-7.41H1123Z"/><polyline class="cls-1" points="1131.98 259.16 1140.1 259.16 1140.1 267.5 1131.98 267.5 1131.98 259.16"/><path class="cls-1" d="M1140.56,268h-9V258.7h9Zm-8.11-.93h7.18v-7.41h-7.18Z"/></g></g></svg>