<svg xmlns="http://www.w3.org/2000/svg" viewBox="0 0 909.71 268"><defs><style>.cls-1{fill:#797979;}.cls-2{opacity:0.2;}</style></defs><g id="Layer_2" data-name="Layer 2"><g id="The_Communicator_Awards" data-name="The Communicator Awards"><path class="cls-1" d="M189,.15l-12,12V45.05H147.12V.15h-17.9l-12,12v4.4H0A28.8,28.8,0,0,0,22,32h95.25v3.64H23.51a28.8,28.8,0,0,0,22,15.47h71.74V54.3H46.71a28.82,28.82,0,0,0,22,15.47h48.53v3.64H68.71a28.79,28.79,0,0,0,22,15.47h26.39v13H135l12-12v-15h29.88v27h17.89l12-12V.15Zm15,86.76H192v-27H144.09v27h-12V3h12v44.9H192V3h12Z"/><path class="cls-1" d="M277.56,30v15H313.5V62.94l-8.95,9h20.93v17.9l-12,12H247.68V12l12-12h65.82V18.05l-12,12Zm44.89-15V3H262.54V86.91h59.91v-12H274.52v-15h36v-12h-36V15Z"/><path class="cls-1" d="M434.23,101.92H412.84L397.22,78H395.1v12l-12,12h-17.9V12.13l12-12h32.91a32.94,32.94,0,0,1,17.29,61l19,28.82ZM423,59.91A30,30,0,0,0,410,3H380.08V86.91h12v-24h18.65l15.62,24h14.41ZM410,51a17.9,17.9,0,1,0,0-35.79H392.07V51.11H410Zm-15-3V30h3a14.73,14.73,0,0,1,14.71,17.75,16.89,16.89,0,0,1-2.73.3H395Z"/><path class="cls-1" d="M565.88,101.92h-18L544,50.81,534,61.73l-12,12L510.37,61l-2.28,29-12,12h-17.9l7-89.79,12-12h4.55l32,34.58,20.78-22.6,12-12h4.7L578,89.94Zm-3.34-15h12.14L568.15,3h-.6l-33.67,36.4L500.05,3h-.45l-6.52,83.88h12l4.25-56,24.41,26.39L558,30.94Z"/><path class="cls-1" d="M646,30v15h35.95V62.94l-8.95,9h20.93v17.9l-12,12H616.08V12l12-12h65.83V18.05l-12,12Zm44.89-15V3H631V86.91h59.9v-12H642.93v-15h35.94v-12H642.93V15Z"/><path class="cls-1" d="M791,16.38A26.9,26.9,0,0,0,766.23.15,27.36,27.36,0,0,0,747.12,8l-12,12a26.86,26.86,0,0,0,14.56,45.5L739.84,69l-12,12a26.88,26.88,0,0,0,45.2,12.89l4.7-4.7h36.71a23.29,23.29,0,0,0,6.52-.91,32.87,32.87,0,0,0,10.16-4.55,25.5,25.5,0,0,0,5.31-4.55c.91-.76,1.51-1.82,2.27-2.58a4.93,4.93,0,0,1,1.06-1.36c.16-.61.76-.91.91-1.67H790.8A34.57,34.57,0,0,0,792,69.92h49a29.54,29.54,0,0,0,13.34-5.46,34.92,34.92,0,0,0,4.86-4.55,19.83,19.83,0,0,0,2.88-4.1,3.28,3.28,0,0,0,.45-.75.48.48,0,0,0,.16-.31c0-.15.3-.3,0-.3H791.56a28.4,28.4,0,0,0-1.21-3.19h74.17a28.26,28.26,0,0,0,13.19-5.46,2.14,2.14,0,0,0,.61-.45,3.6,3.6,0,0,0,.76-.61.52.52,0,0,1,.3-.15l.91-.91c.76-.76,1.52-1.52,2.27-2.43s1.37-1.82,2-2.57c.3-.61.6-.91.91-1.52a3.38,3.38,0,0,0,.45-.76c0-.15.15-.15.15-.3s.31-.31,0-.31H772.6l7.74-2.73.91-.91H887.42a30.2,30.2,0,0,0,13.5-5.46,28.2,28.2,0,0,0,5-4.55,17.11,17.11,0,0,0,2.13-2.57c.15-.16.15-.16.15-.31s.15-.15.3-.3v-.15l.15-.15a.58.58,0,0,0,.15-.46,4.81,4.81,0,0,0,.91-1.52C870.28,16.38,830.69,16.38,791,16.38Zm-13.5,6.67a11.81,11.81,0,0,0-11.23-8,12,12,0,0,0,0,24,24,24,0,1,1-22.59,32L755,66.89a11.66,11.66,0,0,0,11.22,8,12,12,0,1,0,0-24,24,24,0,1,1,22.6-32Zm-15,12.14a8.88,8.88,0,0,1-4.24-4.25A8.88,8.88,0,0,1,762.44,35.19ZM758,66.73A8.86,8.86,0,0,1,762.29,71,9.59,9.59,0,0,1,758,66.73Z"/><polygon class="cls-1" points="194.29 268 718.61 240.85 718.61 232.51 194.29 259.66 194.29 268"/><polygon class="cls-1" points="194.29 146.82 194.29 155.16 718.61 128.16 718.61 119.67 194.29 146.82"/><path class="cls-1" d="M597.73,183.67l5.46-.3a2.06,2.06,0,0,0,1.36-.46,2.2,2.2,0,0,0,.46-1.51V164a2.39,2.39,0,0,0-.46-1.36,1.43,1.43,0,0,0-1.36-.3l-5.46.3a1.11,1.11,0,0,0-1.21,1.21v18.81C596.52,183.37,596.82,183.82,597.73,183.67Z"/><path class="cls-1" d="M628.52,211.58l5.31-.3a2.13,2.13,0,0,0,1.36-.46,2.23,2.23,0,0,0,.46-1.52V162.44a2.42,2.42,0,0,0-.46-1.37,2.12,2.12,0,0,0-1.36-.45l-5.31.3c-.76,0-1.22.46-1.22,1.37v48.23C627.3,211.28,627.61,211.73,628.52,211.58Z"/><path class="cls-1" d="M338.37,209.91l3.95-.15a1.07,1.07,0,0,0,1.06-1.37l-2.28-13.65c-.15-1.21-1.21-1.06-1.36,0l-2.43,14C337.16,209.46,337.62,209.91,338.37,209.91Z"/><path class="cls-1" d="M489.89,202l3.95-.15a1.06,1.06,0,0,0,1.06-1.36l-2.28-13.65c-.15-1.22-1.21-1.06-1.36,0l-2.43,13.95C488.68,201.57,489.13,202,489.89,202Z"/><path class="cls-1" d="M566.33,197.93l3.95-.15a1.07,1.07,0,0,0,1.06-1.37l-2.28-13.65c-.15-1.21-1.21-1.06-1.36,0l-2.43,14A1,1,0,0,0,566.33,197.93Z"/><path class="cls-1" d="M194.29,254.05,718.61,226.9V133.62L194.29,160.77Zm455.16-50.66c0-.76.3-1.21,1.21-1.21l6.22-.31c.76,0,1.21.31,1.21,1.06v5.31a1.68,1.68,0,0,0,.61,1.37,1.38,1.38,0,0,0,1.37.3l4.7-.3a2.07,2.07,0,0,0,1.36-.46,1.74,1.74,0,0,0,.61-1.51V190.35a1.65,1.65,0,0,0-.61-1.37,1.36,1.36,0,0,0-1.36-.3l-9.86.45a1.78,1.78,0,0,1-1.52-.6l-3.18-2.89a2.22,2.22,0,0,1-.61-1.36V156.37a1.94,1.94,0,0,1,.61-1.52l3.18-3.33a1.76,1.76,0,0,1,1.52-.61l15.17-.76a2.5,2.5,0,0,1,1.51.46l3,2.88a1.93,1.93,0,0,1,.6,1.36v11.08a1.11,1.11,0,0,1-1.21,1.21l-6.22.3c-.76,0-1.21-.3-1.21-1.06v-5.46a1.62,1.62,0,0,0-.61-1.36,1.34,1.34,0,0,0-1.36-.31l-4.71.31a2.12,2.12,0,0,0-1.36.45,1.65,1.65,0,0,0-.61,1.37v17.44a1.63,1.63,0,0,0,.61,1.36,1.34,1.34,0,0,0,1.36.31l10-.46a1.93,1.93,0,0,1,1.52.61l3,2.88a2.22,2.22,0,0,1,.61,1.37v27.75a2.67,2.67,0,0,1-.61,1.52l-3,3.18a2.83,2.83,0,0,1-1.52.76l-15.16.76a1.76,1.76,0,0,1-1.52-.61l-3.18-2.88a2.22,2.22,0,0,1-.61-1.36Zm-30.64-49.14c0-.76.3-1.22,1.21-1.22L639.29,152a1.82,1.82,0,0,1,1.36.46l3,2.88a1.48,1.48,0,0,1,.6,1.36v57.49a2,2,0,0,1-.6,1.51l-3,3.19a2.48,2.48,0,0,1-1.36.76L620,220.68c-.75,0-1.21-.3-1.21-1.06ZM588,155.92c0-.76.31-1.22,1.22-1.22l19.11-1.06a1.82,1.82,0,0,1,1.36.46l3,2.88a1.46,1.46,0,0,1,.61,1.36V186.4a1.94,1.94,0,0,1-.61,1.52l-3,3.18a2.6,2.6,0,0,0-.45,1.52l3.94,27.15c.15.76-.3,1.21-1.06,1.36l-6.22.31a1.07,1.07,0,0,1-1.21-1.06l-4-27.15a1.15,1.15,0,0,0-1.21-1.06l-2,.15a1.12,1.12,0,0,0-1.22,1.21v27.15h.16a1.12,1.12,0,0,1-1.22,1.21l-6.06.31c-.76,0-1.22-.31-1.22-1.07Zm-22.9-.16,6.22-.3a1.2,1.2,0,0,1,1.36,1.06l11.38,64.61c.15.76-.3,1.22-1.06,1.37l-6.07.3c-.76,0-1.21-.3-1.21-1.06L573,207.18a1.16,1.16,0,0,0-1.22-1.06l-7.12.3a1.18,1.18,0,0,0-1.22,1.06L561,222.35a1.46,1.46,0,0,1-1.37,1.21l-6.07.3c-.75,0-1.21-.45-1.06-1.21l11.38-65.82A1.15,1.15,0,0,1,565.12,155.76Zm-59,2.89,6.07-.31a1.21,1.21,0,0,1,1.36,1.06L519,197.63c.31.91,1.22.91,1.37,0l5.46-38.83a1.2,1.2,0,0,1,1.36-1.06l6.22-.31c.76,0,1.21.31,1.21,1.06l5.62,38.23c.15.91,1.21.91,1.36-.16l5.46-38.82a1.22,1.22,0,0,1,1.37-1.07l6.06-.3c.76,0,1.22.46,1.07,1.21l-10.32,65.83a1.15,1.15,0,0,1-1.21,1.06l-6.22.3a1.2,1.2,0,0,1-1.36-1.06L531,188.37c-.3-1.06-1.21-1.06-1.36.16l-5.46,35.94a1.21,1.21,0,0,1-1.37,1.06l-6.21.31c-.76,0-1.22-.31-1.22-1.07L505.06,160C504.91,159.25,505.36,158.8,506.12,158.65Zm-30,67.94,11.38-65.82a1.15,1.15,0,0,1,1.21-1.06l6.22-.31a1.21,1.21,0,0,1,1.36,1.07l11.38,64.76c.15.76-.31,1.21-1.06,1.36l-6.07.31c-.76,0-1.21-.31-1.21-1.06l-2.73-14.56a1.17,1.17,0,0,0-1.22-1.07l-7.13.31a1.17,1.17,0,0,0-1.21,1.06l-2.43,14.86a1.2,1.2,0,0,1-1.36,1.06l-6.07.31A1,1,0,0,1,476.09,226.59Zm-47-62.33c0-.76.31-1.22,1.22-1.22l22-1.21c.76,0,1.21.3,1.21,1.06V169a1.11,1.11,0,0,1-1.21,1.21l-13.5.76c-.76,0-1.21.46-1.21,1.37V191c0,.76.3,1.06,1.21,1.06l6.22-.3c.76,0,1.21.3,1.21,1.06v6.07A1.22,1.22,0,0,1,445,200.2l-6.22.31a1.11,1.11,0,0,0-1.21,1.21v18.81c0,.76.3,1.21,1.21,1.06l13.5-.76a1.08,1.08,0,0,1,1.21,1.06v6.22a1.11,1.11,0,0,1-1.21,1.21l-22,1.22c-.76,0-1.22-.31-1.22-1.06Zm-32.15.3,6.07-.3a1.21,1.21,0,0,1,1.36,1.06l5.46,38.22c.3.91,1.21.91,1.37,0l5.46-38.83A1.44,1.44,0,0,1,418,163.5l6.22-.3c.76,0,1.21.45,1.06,1.21L415,230.23a1.46,1.46,0,0,1-1.37,1.22l-6.22.3c-.75,0-1.21-.3-1.21-1.06l-10.31-64.76C395.71,165.17,396.16,164.71,396.92,164.56Zm-13.5,2c0-.76.3-1.21,1.21-1.21l6.07-.3c.76,0,1.21.3,1.21,1.06V231.3a1.11,1.11,0,0,1-1.21,1.21l-6.07.3c-.75,0-1.21-.3-1.21-1.06Zm-30.94,1.52c0-.76.3-1.21,1.21-1.21l24.88-1.22c.76,0,1.21.31,1.21,1.06v6.07a1.33,1.33,0,0,1-1.21,1.37l-7,.3a1.11,1.11,0,0,0-1.21,1.21v56.73c0,.76-.31,1.21-1.22,1.21l-6.06.3c-.76,0-1.22-.3-1.22-1.06V176.09c0-.76-.3-1.22-1.21-1.06l-7,.3a1.11,1.11,0,0,1-1.21-1.21Zm-27.76,66.58,11.38-65.82a1.15,1.15,0,0,1,1.21-1.06l6.22-.31a1.22,1.22,0,0,1,1.37,1.06l11.37,64.62c.15.75-.3,1.21-1.06,1.36l-6.07.3c-.76,0-1.21-.3-1.21-1.06l-2.73-14.56A1.15,1.15,0,0,0,344,218.1l-7.13.3a1.18,1.18,0,0,0-1.22,1.07l-2.42,14.86a1.45,1.45,0,0,1-1.37,1.21l-6.06.31C325,235.85,324.57,235.39,324.72,234.63Zm-27.45-63.55c0-.76.31-1.21,1.22-1.21l22-1.21c.76,0,1.21.3,1.21,1.06v6.06a1.12,1.12,0,0,1-1.21,1.22l-13.5.76c-.76,0-1.21.45-1.21,1.36v18.81c0,.76.3,1.06,1.21,1.06l6.22-.3c.76,0,1.21.3,1.21,1.06v6.07a1.22,1.22,0,0,1-1.21,1.36l-6.22.3a1.12,1.12,0,0,0-1.21,1.22v18.65c0,.76.3,1.06,1.21,1.06l13.5-.75a1.08,1.08,0,0,1,1.21,1.06v6.22a1.11,1.11,0,0,1-1.21,1.21l-22,1.21c-.76,0-1.22-.3-1.22-1.06Zm-30.64,1.52c0-.76.31-1.21,1.22-1.21L287,170.32a1.85,1.85,0,0,1,1.36.46l3,2.88A1.49,1.49,0,0,1,292,175v28.06a2.17,2.17,0,0,1-.6,1.51l-3,3.19a2.57,2.57,0,0,0-.45,1.51l3.94,27.15c.15.76-.3,1.22-1.06,1.37l-6.22.3a1.07,1.07,0,0,1-1.21-1.06l-3.94-27.15a1.16,1.16,0,0,0-1.22-1.06l-2,.15a1.11,1.11,0,0,0-1.21,1.21v27.15h.15a1.12,1.12,0,0,1-1.21,1.22l-6.07.3c-.76,0-1.22-.3-1.22-1.06Zm-30.48,5.46a1.94,1.94,0,0,1,.61-1.52l3-3.33a2.22,2.22,0,0,1,1.36-.61l15.32-.76a1.85,1.85,0,0,1,1.37.46l3,2.88a1.46,1.46,0,0,1,.61,1.36v10.62c0,.76-.31,1.21-1.22,1.21l-6.06.31c-.76,0-1.22-.31-1.22-1.06v-5.46a1.6,1.6,0,0,0-1.82-1.82l-4.7.3a2.22,2.22,0,0,0-1.36.61,1.81,1.81,0,0,0-.46,1.36v46.87a2.07,2.07,0,0,0,.46,1.36,1.43,1.43,0,0,0,1.36.3l4.7-.3a2.15,2.15,0,0,0,1.37-.45,2.3,2.3,0,0,0,.45-1.52v-5.31a1.12,1.12,0,0,1,1.22-1.21l6.06-.31c.76,0,1.22.31,1.22,1.07v10.61a1.94,1.94,0,0,1-.61,1.52l-3,3.18a2.44,2.44,0,0,1-1.37.76l-15.32,1.22a1.49,1.49,0,0,1-1.36-.61l-3-2.88a1.65,1.65,0,0,1-.61-1.37Z"/><path class="cls-1" d="M276.34,200.51l5.46-.31a2.15,2.15,0,0,0,1.37-.45,2.3,2.3,0,0,0,.45-1.52V180.79a2.1,2.1,0,0,0-.45-1.36,1.45,1.45,0,0,0-1.37-.31l-5.46.31a1.11,1.11,0,0,0-1.21,1.21v18.81C275.13,200.2,275.43,200.51,276.34,200.51Z"/><g class="cls-2"><path class="cls-1" d="M745.15,100.25a.56.56,0,0,1,.31.16A.56.56,0,0,0,745.15,100.25Zm48.08-36.4a26.73,26.73,0,0,1-7.89,18.05l-12,12a27,27,0,0,1-19,7.89,28.07,28.07,0,0,1-8.79-1.36h.15c2.73.91,15,5,18,5.91a25.58,25.58,0,0,0,8.49,1.37,27.07,27.07,0,0,0,27-27A28.83,28.83,0,0,0,793.23,63.85ZM762.44,35.19a8.88,8.88,0,0,1-4.24-4.25A8.88,8.88,0,0,1,762.44,35.19ZM758,66.73A8.86,8.86,0,0,1,762.29,71,9.59,9.59,0,0,1,758,66.73Zm31.25-42.61-8.8,8.79-9.86,3.49A28.41,28.41,0,0,1,785,43.68l13.35-4.85A26.47,26.47,0,0,0,789.29,24.12ZM177.15,80.84h-24v27h-17.9l-17.9-5.92h17.9l12-12v-15h29.88Zm-24-62.79v27h-6.07v-29Zm59.75,0v89.79H195.05l-17.9-5.92h17.9l12-12V16.08ZM331.55,89.94v17.9H265.72l-17.89-5.92h65.82l12-12V87.82Zm0-71.89V36H283.62v8.94h-6.06v-15H313.5l12-12v-2Zm-12,44.89v9h-15l8.95-9V61ZM401,83.87h0l-.15,24H383l-17.9-5.92H383l12-12V78h2.12ZM410,36H401v12H395.1V30h3A15.56,15.56,0,0,1,410,36Zm42.17,71.89H430.74l-17.9-5.92h21.39l8.49-8.49ZM448.79,51a33.12,33.12,0,0,1-11.68,25.18l-10-15a33.07,33.07,0,0,0,15.62-28.06v-.91A32.37,32.37,0,0,1,448.79,51ZM517,68.25l-3.18,39.59H496l-17.9-5.92H496l12-12,2.28-29Zm28.67,5.16-5.77,6.22-17.89-5.92,12-12,10-10.92ZM577,18.05l6.83,89.79h-18l-17.9-5.92h17.9l12-12L572.1,16.53ZM699.8,89.94v17.9H634l-17.9-5.92h65.83l12-12V87.82Zm0-71.89V36H651.88v8.94h-6.07v-15h35.94l12-12v-2Zm-12,44.89v9h-15l8.94-9V61Z"/></g></g></g></svg>