<svg xmlns="http://www.w3.org/2000/svg" viewBox="0 0 1005.38 268"><defs><style>.cls-1{fill:#797979;}</style></defs><g id="Layer_2" data-name="Layer 2"><g id="The_Communicator_Awards" data-name="The Communicator Awards"><g id="Layer_1-2" data-name="Layer 1"><path class="cls-1" d="M331.69,77a2.05,2.05,0,0,1-2-2V18.35a2,2,0,0,0-2-1.88h-20a2.05,2.05,0,0,1-2-2V7.92a2,2,0,0,1,2-1.89h56.06a2,2,0,0,1,2,1.89v6.57a2,2,0,0,1-2,2H343.59a1.87,1.87,0,0,0-1.88,1.88V75.05a2.05,2.05,0,0,1-2,2Z"/><path class="cls-1" d="M408.11,77a2,2,0,0,1-1.88-2V44c0-5.95-4.07-9.5-10.13-9.5-6.26,0-10.86,4-10.86,9.39V75a2,2,0,0,1-2,2h-7.52a2,2,0,0,1-1.88-2V8a2,2,0,0,1,1.88-2h7.52a2,2,0,0,1,2,2V31c2.09-3.13,6.79-6.78,14.42-6.78,11.48,0,17.95,7.1,17.95,18.06V75a2.06,2.06,0,0,1-2,2Z"/><path class="cls-1" d="M477.32,60.22c2,0,2.41,1.15,1.68,2.82-3.87,8.77-13.26,14.82-24.64,14.82-15.66,0-26.73-11-26.73-26.72S439.22,24.2,454.56,24.2s26.63,11.17,26.63,26.94c0,1.77-.63,3-2.4,3H439.53c.74,8.45,6.89,13.57,14.93,13.57,5,0,9.61-2.08,12.22-5.74A3.91,3.91,0,0,1,470,60.22ZM469,46.54c-1.26-7.62-7.21-12.21-14.52-12.21S440.79,39,439.64,46.54Z"/><path class="cls-1" d="M374,147.63c1.88,0,2.82,1.26,1.57,3.45-6,11.69-18.38,19.1-32.89,19.1-20.78,0-37-15.45-37-36.12,0-20.88,16.6-36.53,37-36.53,14.2,0,26.62,7.41,32.78,19,.73,1.57.42,3.34-1.77,3.34h-8.14a3.83,3.83,0,0,1-3.45-1.88,23.45,23.45,0,0,0-19.31-9.6c-13.89,0-24.75,11.06-24.75,25.47s10.86,25.48,24.75,25.48a24.32,24.32,0,0,0,19.62-9.93,3.8,3.8,0,0,1,3.55-1.77Z"/><path class="cls-1" d="M409.89,170.18c-15.35,0-27.15-11.58-27.15-26.83s11.8-26.83,27.15-26.83S437,128.11,437,143.35s-11.9,26.83-27.14,26.83m15.66-26.83c0-9.18-7.1-16.28-15.66-16.28s-15.66,7.1-15.66,16.28,7,16.29,15.66,16.29,15.66-7.09,15.66-16.29"/><path class="cls-1" d="M511,169.35a2,2,0,0,1-1.89-2v-31c0-6-3.44-9.5-9.49-9.5-8.57,0-10.13,5.85-10.13,11.8v28.7a2.06,2.06,0,0,1-2,2h-7.62a2,2,0,0,1-1.88-2v-31c0-6-3.34-9.51-9.39-9.51-6.37,0-10.23,4-10.23,9.4v31.11a2.06,2.06,0,0,1-2,2h-7.51a2,2,0,0,1-1.88-2V119.55a2,2,0,0,1,1.88-2H456a2.06,2.06,0,0,1,2,2v4.18c2.08-3.23,5.94-7.1,14.19-7.1,7.52,0,12.53,3.44,15,8.56,3.24-4,7.1-8.66,15.67-8.66,11.48,0,17.53,7.1,17.53,18.06v32.78a2.05,2.05,0,0,1-2,2Z"/><path class="cls-1" d="M597.39,169.35a2,2,0,0,1-1.88-2v-31c0-6-3.44-9.5-9.5-9.5-8.56,0-10.12,5.85-10.12,11.8v28.7a2.06,2.06,0,0,1-2,2h-7.62a2,2,0,0,1-1.88-2v-31c0-6-3.35-9.51-9.4-9.51-6.37,0-10.23,4-10.23,9.4v31.11a2.06,2.06,0,0,1-2,2h-7.51a2,2,0,0,1-1.88-2V119.55a2,2,0,0,1,1.88-2h7.2a2.06,2.06,0,0,1,2,2v4.18c2.08-3.23,5.95-7.1,14.19-7.1,7.52,0,12.53,3.44,15,8.56,3.24-4,7.1-8.66,15.67-8.66,11.48,0,17.53,7.1,17.53,18.06v32.78a2.05,2.05,0,0,1-2,2Z"/><path class="cls-1" d="M654.5,169.35a2.05,2.05,0,0,1-2-2V163c-2,3.14-6.78,7.2-14.72,7.2-11.49,0-18-7.1-18-18.06V119.55a2.06,2.06,0,0,1,2-2h7.52a2,2,0,0,1,1.87,2v31c0,6.05,3.77,9.6,10.13,9.6s10.86-4.07,10.86-9.5V119.55a2.05,2.05,0,0,1,2-2h7.52a2,2,0,0,1,1.88,2v47.82a2,2,0,0,1-1.88,2Z"/><path class="cls-1" d="M710.77,169.35a2,2,0,0,1-1.89-2v-31c0-6-4.07-9.5-10.12-9.5-6.26,0-10.86,4-10.86,9.39v31.12a2.05,2.05,0,0,1-2,2H678.4a2,2,0,0,1-1.88-2V119.55a2,2,0,0,1,1.88-2h7.2a2.05,2.05,0,0,1,2,2v4.18c2-3.14,6.78-7.2,14.72-7.2,11.48,0,18,7.1,18,18.06v32.78a2.05,2.05,0,0,1-2,2Z"/><path class="cls-1" d="M732.38,104.31a6.79,6.79,0,1,1,6.78,6.89,6.9,6.9,0,0,1-6.78-6.89m2.92,65a2,2,0,0,1-1.88-2V119.55a2,2,0,0,1,1.88-2h7.52a2.05,2.05,0,0,1,2,2v47.82a2.05,2.05,0,0,1-2,2Z"/><path class="cls-1" d="M805.46,150.56c2.09,0,2.61.84,2,2.5-3.65,10.24-13.36,17.12-25.26,17.12-15.25,0-27-11.58-27-26.83s11.8-26.83,27-26.83a26.58,26.58,0,0,1,25.26,16.81c.63,1.47.11,2.51-1.46,2.51h-7.93a3.31,3.31,0,0,1-3-1.67,15.56,15.56,0,0,0-12.84-7c-8.67,0-15.45,7.1-15.45,16.18s6.89,16.19,15.45,16.19a15.07,15.07,0,0,0,13.05-7.31,3.21,3.21,0,0,1,2.71-1.67Z"/><path class="cls-1" d="M859.33,169.35a2,2,0,0,1-1.88-2v-5.22a21.74,21.74,0,0,1-17.12,8c-14.41,0-25.79-11.58-25.79-26.83s11.49-26.83,25.89-26.83a21.44,21.44,0,0,1,17,7.93v-4.9a2,2,0,0,1,1.89-2h7.19a2.06,2.06,0,0,1,2,2v47.82a2.05,2.05,0,0,1-2,2Zm-1.88-26c0-9.39-7-16.38-15.66-16.38S826,134.16,826,143.35s7.1,16.39,15.77,16.39,15.66-7,15.66-16.39"/><path class="cls-1" d="M899.53,169.35c-10.65,0-15.35-4.49-15.35-15V127.49h-5.85a2,2,0,0,1-2-1.89v-6a2.06,2.06,0,0,1,2-2h5.85v-11a2,2,0,0,1,1.88-2h7.52a2.05,2.05,0,0,1,2,2v11h8.87a2.06,2.06,0,0,1,2,2v6a2,2,0,0,1-2,1.89h-8.87v25c0,4.9,1.78,6.89,6.78,6.89h2.19a2.05,2.05,0,0,1,2,2v6.16a2,2,0,0,1-2,1.88Z"/><path class="cls-1" d="M938.78,170.18c-15.35,0-27.15-11.58-27.15-26.83s11.79-26.83,27.15-26.83,27.15,11.59,27.15,26.83S954,170.18,938.78,170.18m15.66-26.83c0-9.18-7.1-16.28-15.66-16.28s-15.66,7.1-15.66,16.28,7,16.29,15.66,16.29,15.66-7.09,15.66-16.29"/><path class="cls-1" d="M977.72,169.35a2,2,0,0,1-1.89-2V119.55a2,2,0,0,1,1.89-2h7.2a2.05,2.05,0,0,1,2,2v3.24a13,13,0,0,1,11.48-6.26c2.51,0,5.22.63,6.16,1.77a1.53,1.53,0,0,1,.52,2.3l-3.75,6.78a1.81,1.81,0,0,1-2.31.84,11.91,11.91,0,0,0-3.34-.63c-5.74,0-8.46,4.81-8.46,10.55v29.23a2,2,0,0,1-2,2Z"/><path class="cls-1" d="M364.57,261.68c-.72,0-1.35-.32-2-1.67l-5.32-12.22a1.71,1.71,0,0,0-1.78-1.15H324a1.78,1.78,0,0,0-1.78,1.36l-5.12,12c-.62,1.47-2.19,1.68-3.54,1.68h-7c-1.25,0-2-1.15-1.36-2.62l29-66.71c.62-1.56,1.35-1.66,2.81-1.66h7.31c1.15,0,1.67.83,2.09,1.77l28.4,66.71a1.69,1.69,0,0,1-1.47,2.51Zm-24.42-55.13c-.11-.31-.42-.31-.53,0L327.1,236.1a.83.83,0,0,0,.83,1.25h23.91c.63,0,.94-.63.63-1.25Z"/><path class="cls-1" d="M427.11,261.68c-.84,0-1.46-.52-1.78-1.57L414.27,226.7c-.1-.41-.42-.41-.52,0l-11.59,33.41a1.85,1.85,0,0,1-1.88,1.57h-8c-.83,0-1.46-.52-1.77-1.57L375,212.5c-.41-1.46.21-2.6,1.57-2.6h8a2.32,2.32,0,0,1,2.19,1.88l10.44,34c.21.52.52.73.73,0l11.59-34.14c.42-1.25.94-1.77,2.09-1.77h5.53a2,2,0,0,1,2.09,1.77l11,34.14c.11.42.52.42.63,0L442,211.67a2.1,2.1,0,0,1,2-1.77h7.61a1.79,1.79,0,0,1,1.68,2.51L437.24,260a2.07,2.07,0,0,1-1.88,1.67Z"/><path class="cls-1" d="M502.29,261.68a2,2,0,0,1-1.89-2v-5.23a21.7,21.7,0,0,1-17.12,8c-14.4,0-25.78-11.59-25.78-26.83s11.48-26.83,25.89-26.83a21.4,21.4,0,0,1,17,7.93v-4.91a2,2,0,0,1,1.89-2h7.19a2.05,2.05,0,0,1,2,2v47.82a2.05,2.05,0,0,1-2,2h-7.19Zm-1.89-26c0-9.4-7-16.39-15.66-16.39S469,226.49,469,235.68s7.1,16.39,15.76,16.39,15.66-7,15.66-16.39"/><path class="cls-1" d="M526.19,261.68a2,2,0,0,1-1.88-2V211.88a2,2,0,0,1,1.88-2h7.2a2.05,2.05,0,0,1,2,2v3.24a13,13,0,0,1,11.48-6.27c2.51,0,5.22.63,6.16,1.78a1.53,1.53,0,0,1,.52,2.3l-3.75,6.78a1.8,1.8,0,0,1-2.31.83,11.9,11.9,0,0,0-3.34-.62c-5.74,0-8.45,4.8-8.45,10.54V259.7a2.05,2.05,0,0,1-2,2Z"/><path class="cls-1" d="M600.62,261.68a2,2,0,0,1-1.87-2v-5.33a21.71,21.71,0,0,1-17.23,8.15c-14.41,0-25.79-11.59-25.79-26.84s11.49-26.83,25.89-26.83a21.6,21.6,0,0,1,16.7,7.62v-23.8a2,2,0,0,1,1.88-2h7.52a2.06,2.06,0,0,1,2,2v67a2.05,2.05,0,0,1-2,2Zm-2-26c0-9.4-7-16.39-15.66-16.39s-15.76,7.2-15.76,16.39,7.09,16.39,15.76,16.39,15.66-7,15.66-16.39"/><path class="cls-1" d="M657.42,225.14a2.26,2.26,0,0,1-2.51-1.67c-1.46-3.45-5.84-5.22-12.42-5.22s-11.07,1.88-11.07,5.74c0,11,35.92.84,35.92,21.51,0,11.27-10.54,17-24.22,17-11.91,0-21.41-3.77-23.59-14.73-.21-1.15.1-2.19,1.66-2.19h7.32a2.56,2.56,0,0,1,2.6,1.57c1.67,4.49,6.16,6.05,12.74,6.05,7.41,0,12.11-2.4,12.11-6.57,0-11.49-36-.53-36-21.41,0-10.43,8.67-16.39,23.28-16.39,10.76,0,20.36,3.55,22.76,13.88.21.74.53,2.41-1.88,2.41Z"/><path class="cls-1" d="M134,268C60.11,268,0,207.89,0,134S60.11,0,134,0a133.12,133.12,0,0,1,49.22,9.34,3.28,3.28,0,0,1,1.47,4.93L166.06,40.74A3.27,3.27,0,0,1,162.41,42a96.29,96.29,0,1,0-.21,184.1,3.29,3.29,0,0,1,3.64,1.25l18.64,26.48a3.27,3.27,0,0,1,.46,2.83,3.24,3.24,0,0,1-1.94,2.11A133.16,133.16,0,0,1,134,268"/><path class="cls-1" d="M264.72,6H233.56a3.28,3.28,0,0,0-3.28,3.28V40.79a138.29,138.29,0,0,0-11.46-10.53,3.28,3.28,0,0,0-4.76.65l-18,25.57a3.28,3.28,0,0,0,.54,4.38,96.18,96.18,0,0,1,33.67,73v.28a96.14,96.14,0,0,1-33.83,73.13,3.28,3.28,0,0,0-.55,4.39l18,25.56a3.28,3.28,0,0,0,2.68,1.39,3.22,3.22,0,0,0,2.07-.74,134.21,134.21,0,0,0,11.64-10.67v31.4a3.28,3.28,0,0,0,3.28,3.28h31.16A3.28,3.28,0,0,0,268,258.6V9.25A3.27,3.27,0,0,0,264.72,6"/></g></g></g></svg>