<svg xmlns="http://www.w3.org/2000/svg" viewBox="0 0 480.63 267.1"><defs><style>.cls-1{fill:#797979;}</style></defs><g id="Layer_2" data-name="Layer 2"><g id="The_Communicator_Awards" data-name="The Communicator Awards"><path class="cls-1" d="M.06,98.13s-4.55,105.29,66,168.72L63.91,261c-21-48.81-12.07-81.46-12.07-81.46s-26.18-23.32-32.43-52.91L58.1,151.05l1.7,34.14,15.07,14.69L74.63,0S60.37,59.44.06,98.13Z"/><path class="cls-1" d="M199.66,182.24c-1.44,0-2.94.07-3.23.07-.12,0-1.63-.07-2.7-.07-.26,0-.39,0-.39.19s.1.14.27.14a4.28,4.28,0,0,1,.81.08c.79.16.91.55,1,1.36s.05,1.43.05,5.17v4.2c0,2.3,0,4.19-.12,5.19-.1.69-.22,1.22-.7,1.32a5.46,5.46,0,0,1-.67.09c-.19,0-.23.07-.23.14s.11.2.38.2.91,0,1.38,0l1,0,2,.14c1,.07,2.3.14,3.33.14a9.48,9.48,0,0,0,7.24-2.75,9.76,9.76,0,0,0,2.58-6.74,8.5,8.5,0,0,0-2.32-6.07C206.4,182,202,182.24,199.66,182.24Zm7.84,15.25a8,8,0,0,1-5.69,2.23c-2.82,0-3.75-.5-4.07-1a5.41,5.41,0,0,1-.26-1.82c0-.45,0-2.65,0-5.18v-3c0-1.84,0-4.28,0-5.09a.44.44,0,0,1,.28-.48,6.76,6.76,0,0,1,1.56-.17c2.84,0,5.57.34,7.82,2.71a8.54,8.54,0,0,1,2.29,6C209.41,194,208.75,196.28,207.5,197.49Zm74.91-12.69a2.72,2.72,0,0,0-.45.09,9.4,9.4,0,0,1-1.72.12H272.4s-.7,0-1.53-.12c-.44,0-.89-.26-1.06-.26s-.14.1-.21.38c-.15.65-.5,2.23-.48,2.37s0,.22.12.22.14,0,.21-.19a4.44,4.44,0,0,1,.36-.75c.34-.5.67-.74,2.2-.76,1,0,2.23,0,3,0v8.54c0,1.79,0,3.52-.1,4.38s-.17,1.1-.62,1.17a4.7,4.7,0,0,1-.53,0c-.19,0-.26.1-.26.17s.1.17.36.17c.62,0,2-.07,2.12-.07s1.51.07,2.73.07c.24,0,.31-.07.31-.2s-.09-.14-.28-.14a4.92,4.92,0,0,1-.94-.09c-.59-.15-.64-.48-.71-1.06-.1-.88-.12-2.58-.12-4.42v-8.54c.69,0,1.43,0,2.34,0,2.41,0,2.73.26,2.82,1.22a3.2,3.2,0,0,1,0,.33c0,.2.05.29.17.29s.17-.07.17-.29.05-1.77.05-2.44C282.56,184.92,282.51,184.8,282.41,184.8ZM262.19,200a5.52,5.52,0,0,1-.91-.09c-.62-.15-.72-.41-.81-1.1a40.86,40.86,0,0,1-.1-4.38v-3.59c0-3.15,0-3.7,0-4.35s.12-1.05.82-1.14c.16,0,.28,0,.43-.05s.26-.07.26-.17-.12-.17-.36-.17c-.67,0-2.06.07-2.15.07s-1.44-.07-2.18-.07c-.26,0-.36.05-.36.17s.1.14.27.17.31,0,.55.07c.5.09.64.45.69,1.1s.05,1.22.05,4.37v3.59a42.28,42.28,0,0,1-.12,4.35c-.07.58-.14,1.05-.55,1.15a2.74,2.74,0,0,1-.58.07c-.21,0-.31.07-.31.17s.17.17.39.17c.66,0,2.08-.07,2.15-.07s1.51.07,2.72.07c.24,0,.34-.07.34-.17S262.4,200,262.19,200Zm-36.9,0a5.52,5.52,0,0,1-.91-.09c-.62-.15-.72-.41-.81-1.1a43.72,43.72,0,0,1-.1-4.38v-3.59c0-3.15,0-3.7,0-4.35s.12-1.05.81-1.14c.17,0,.29,0,.43-.05s.26-.07.26-.17-.12-.17-.35-.17c-.67,0-2.06.07-2.16.07s-1.43-.07-2.17-.07c-.27,0-.36.05-.36.17s.09.14.26.17.31,0,.55.07c.5.09.65.45.7,1.1s0,1.22,0,4.37v3.59a42.28,42.28,0,0,1-.12,4.35c-.07.58-.14,1.05-.55,1.15a2.66,2.66,0,0,1-.57.07c-.22,0-.31.07-.31.17s.17.17.38.17c.67,0,2.08-.07,2.15-.07s1.51.07,2.73.07c.24,0,.33-.07.33-.17S225.51,200,225.29,200Zm23.19-7.29c-.64,0-2,.05-2.15.05s-1.48-.05-2.44-.05c-.26,0-.36.05-.36.17s.1.16.29.16a4.48,4.48,0,0,1,.57,0c.84.12,1,.43,1,2v3.44a.81.81,0,0,1-.4.72,5.92,5.92,0,0,1-2.28.41,7.42,7.42,0,0,1-5.42-2.23,8.21,8.21,0,0,1-2.18-5.54c0-2.37.79-4.19,2-5.12a6.57,6.57,0,0,1,4.4-1.27c2.68,0,4.4.89,5,1.68a3,3,0,0,1,.45,1.48c0,.14.05.29.17.29s.19-.1.19-.43a26.13,26.13,0,0,1,.17-3.11c0-.1,0-.19-.19-.19-.5,0-1.44-.15-1.82-.22a19,19,0,0,0-3.42-.33,10.49,10.49,0,0,0-5.33,1.21,7.68,7.68,0,0,0-3.61,6.75,7.56,7.56,0,0,0,2.58,5.81,11.92,11.92,0,0,0,11.4,1.24c.27-.14.29-.17.29-1.12V196.4c0-.87,0-1.46.05-2.16s.19-1.12.77-1.19a1.89,1.89,0,0,1,.4,0c.22,0,.29-.09.29-.16S248.72,192.69,248.48,192.69Zm205.9-1.22-.55-.43c-2-1.51-2.56-2.2-2.56-3.32a2.29,2.29,0,0,1,2.51-2.3c2,0,2.56.91,2.68,1.12a3.06,3.06,0,0,1,.29,1.13c0,.17,0,.26.17.26s.16-.14.16-.5c0-1.39.1-2.22.1-2.32s-.05-.14-.22-.14a4.34,4.34,0,0,1-.81-.12,8.38,8.38,0,0,0-1.94-.19c-2.67,0-4.42,1.48-4.42,3.68,0,1.41.48,2.67,2.77,4.52l1,.74c1.75,1.41,2.37,2.25,2.37,3.61a2.69,2.69,0,0,1-2.94,2.56,2.87,2.87,0,0,1-3.11-2.16,3,3,0,0,1-.07-.71c0-.17,0-.24-.17-.24s-.17.12-.19.33-.1,1.15-.1,2.25c0,.57,0,.67.31.81a6.73,6.73,0,0,0,2.85.53,6,6,0,0,0,3.23-.84,4.17,4.17,0,0,0,1.81-3.39C457.51,194.65,456.87,193.38,454.38,191.47ZM420.55,200c-.07,0-.58,0-.75,0a4,4,0,0,1-2.53-1.45c-1.22-1.27-2.65-3-4.4-5.19a6,6,0,0,0,2.54-4.52,3.65,3.65,0,0,0-1.44-2.92,6.74,6.74,0,0,0-3.92-.91c-.67,0-2.3.07-2.51.07-.05,0-1.51-.07-2.53-.07-.22,0-.29.07-.29.17s.09.14.26.14a4.48,4.48,0,0,1,.57.05c.75.14.91.5,1,1.15s.05,1.22.05,4.37v3.59c0,1.79,0,3.75-.1,4.61-.07.58-.21.84-.62.91a1.94,1.94,0,0,1-.52,0c-.15,0-.29.07-.29.14s.09.2.33.2c.65,0,1.7-.07,2.08-.07.1,0,1.44.07,2.68.07.24,0,.34-.07.34-.2s-.1-.14-.31-.14a6.06,6.06,0,0,1-.7,0c-.79-.09-.86-.57-.93-1.14a44.74,44.74,0,0,1-.12-4.52v-.34c0-.09,0-.12.12-.12l2.46,0a.33.33,0,0,1,.29.14c.41.5,1.36,1.79,2.29,2.94,1.25,1.6,2,2.68,3,3.11a5.25,5.25,0,0,0,2.18.29h1.67c.33,0,.43,0,.43-.17S420.74,200,420.55,200Zm-8.3-7.22a2.76,2.76,0,0,1-1.6.36,6.09,6.09,0,0,1-2.13-.31c-.1-.05-.12-.17-.12-.29V186a.23.23,0,0,1,.14-.22,6.57,6.57,0,0,1,1.39-.12c2.13,0,3.52,1.44,3.52,4A3.45,3.45,0,0,1,412.25,192.76ZM398.55,200a2.25,2.25,0,0,1-.81-.12c-.34-.12-1-.43-1.82-2.32-1.27-3-4.52-11.33-4.86-12.12s-.35-.76-.47-.76-.24.11-.51.81l-4.78,12.6c-.4,1-.81,1.79-1.84,1.89a4,4,0,0,1-.48,0c-.19,0-.28.07-.28.17s.12.17.38.17c1,0,2.06-.07,2.29-.07s1.37.07,1.89.07c.17,0,.36,0,.36-.17s-.07-.17-.28-.17h-.17c-.53,0-.79-.19-.79-.62a5.73,5.73,0,0,1,.41-1.7l1-3a.24.24,0,0,1,.24-.19h4.35a.22.22,0,0,1,.19.12l1.89,4.81c.14.36,0,.48-.1.52s-.17.1-.17.17.15.15.6.17c1.6,0,3.4,0,3.64,0s.36,0,.36-.17S398.72,200,398.55,200Zm-6.41-6.33h-3.83s-.09-.05,0-.15l1.79-5.28c.12-.34.14-.34.26,0l1.89,5.28C392.24,193.57,392.24,193.65,392.14,193.65Zm38.45-8.71c-1.34,0-2.58.07-2.75.07s-1.58-.07-2.56-.07c-.21,0-.36.05-.36.19s.12.15.24.15a4.75,4.75,0,0,1,.69.05c.7.14.89.47.94,1.12s0,1.22,0,4.37v3.54a38.53,38.53,0,0,1-.11,4.45c-.07.53-.22,1-.63,1.1a2,2,0,0,1-.55.07c-.19,0-.26.1-.26.17s.12.17.34.17.93,0,1.38,0l.82,0c.07,0,.81.07,1.72.11s2.08.12,3,.12a8.42,8.42,0,0,0,6.39-2.34,8.2,8.2,0,0,0,2.27-5.71,7.06,7.06,0,0,0-2-5.14C436.61,184.73,432.69,184.94,430.59,184.94Zm7,12.94a6.94,6.94,0,0,1-5,1.86c-2.48,0-3.25-.5-3.51-.91a3.68,3.68,0,0,1-.24-1.6c0-.36,0-2.22,0-4.37v-2.42c0-1.43,0-3.46,0-4.16a.4.4,0,0,1,.26-.41,4.46,4.46,0,0,1,1.22-.16c2.37,0,4.71.24,6.74,2.27a7,7,0,0,1,2.06,5.14A6.81,6.81,0,0,1,437.55,197.88ZM353.48,200a3.16,3.16,0,0,1-.94-.14c-.5-.15-1.19-.53-2.05-2.66-1.46-3.63-5.21-13.51-5.57-14.41-.29-.74-.39-.86-.53-.86s-.24.14-.52.93l-5.43,14.85c-.43,1.19-.91,2.1-2,2.24a4,4,0,0,1-.57,0c-.22,0-.34.05-.34.14s.14.2.46.2c1.12,0,2.43-.07,2.7-.07s1.22.07,1.79.07c.22,0,.43,0,.43-.2s-.07-.14-.31-.14h-.21c-.41,0-.87-.21-.87-.69a4.89,4.89,0,0,1,.34-1.6l1.43-4.24a.26.26,0,0,1,.24-.19h5.14a.22.22,0,0,1,.22.15l2.22,5.88c.15.38,0,.6-.14.64s-.17.08-.17.17.26.15.72.17c1.65,0,3.39,0,3.75,0s.48,0,.48-.2S353.62,200,353.48,200Zm-7.13-7.58h-4.56c-.08,0-.12-.05-.08-.16l2.11-6.46q.18-.54.36,0l2.27,6.46C346.47,192.33,346.47,192.4,346.35,192.4Zm-28.19,4.9c-.12,0-.17.1-.19.29a3.13,3.13,0,0,1-.46,1.2c-.52.67-1.48.67-2.53.67-1.65,0-2.13-.15-2.51-.48s-.5-1.77-.5-4.52v-3.64c0-3.15,0-3.68,0-4.32s.19-1.08.86-1.17a5.74,5.74,0,0,1,.65-.05c.14,0,.26-.07.26-.17s-.07-.17-.31-.17c-.67,0-2.13.07-2.46.07-.05,0-1.48-.07-2.49-.07-.24,0-.36.05-.36.17s.1.17.27.17a5.34,5.34,0,0,1,.59,0c.82.1.91.53,1,1.2s.05,1.17.05,4.32v3.59a39.11,39.11,0,0,1-.1,4.4c-.07.57-.21,1.05-.62,1.12a2.2,2.2,0,0,1-.57,0c-.19,0-.27.07-.27.14s.15.2.39.2c.83,0,1.31-.07,2.1-.07,2.39,0,4.18.11,5.81.11,1.15,0,1.12-.11,1.27-.59a16.05,16.05,0,0,0,.29-2.16C318.31,197.38,318.26,197.3,318.16,197.3ZM302,200a2.25,2.25,0,0,1-.81-.12c-.34-.12-1-.43-1.82-2.32-1.27-3-4.52-11.33-4.85-12.12s-.36-.76-.48-.76-.24.11-.5.81l-4.79,12.6c-.4,1-.81,1.79-1.84,1.89a3.94,3.94,0,0,1-.47,0c-.2,0-.29.07-.29.17s.12.17.38.17c1,0,2.06-.07,2.3-.07s1.36.07,1.89.07c.16,0,.35,0,.35-.17s-.07-.17-.28-.17h-.17c-.53,0-.79-.19-.79-.62a6.07,6.07,0,0,1,.41-1.7l1.05-3a.25.25,0,0,1,.24-.19h4.35a.22.22,0,0,1,.19.12l1.89,4.81c.14.36,0,.48-.1.52a.21.21,0,0,0-.16.17c0,.12.14.15.59.17,1.61,0,3.4,0,3.64,0s.36,0,.36-.17S302.19,200,302,200Zm-6.41-6.33h-3.82c-.05,0-.1-.05-.05-.15l1.79-5.28c.12-.34.14-.34.27,0l1.88,5.28C295.71,193.57,295.71,193.65,295.61,193.65Zm84.1-8.71c-.65,0-1.82.07-2,.07s-1.12-.07-2-.07c-.27,0-.36.05-.36.15s.09.19.31.19c1,0,1.15.26,1.15.62a3.55,3.55,0,0,1-.19,1c-.65,2.37-2.66,8.44-3.23,10.4l-4.23-11.23c-.29-.77-.41-1.06-.58-1.06s-.24.12-.57,1l-4.43,11.24c-.35-1.15-2.41-8.25-2.72-9.54a15,15,0,0,1-.41-1.84c0-.24,0-.43.24-.5a2.29,2.29,0,0,1,.77-.1c.19,0,.33-.05.33-.19s-.05-.17-.33-.17c-1.13,0-2.18.07-2.35.07s-1.34-.07-2.58-.07q-.36,0-.36.15c0,.14.17.19.29.19a4.12,4.12,0,0,1,.86.09c.67.19.84.55,1.17,1.61l3.68,11.78c.48,1.51.6,1.82.84,1.82s.38-.29.74-1.22c.72-1.82,3.61-9,4.38-10.9l4.11,10.9c.31.89.46,1.22.69,1.22s.36-.33,1-2c.72-2,2.85-8.39,3.78-11,.38-1.08.62-2.08,1.34-2.25a4.06,4.06,0,0,1,.62-.07c.19,0,.31-.07.31-.19S379.9,184.94,379.71,184.94Z"/><path class="cls-1" d="M375.16,120.32v-3.63l-.08,0v-.13h-26v.17l-.15-.09v3.63l4.68.65a5.38,5.38,0,0,1,4.82,5.06s.1,7,.09,14.41-7.16,6.45-7.16,6.45c-11.88,0-20.52-13.54-20.52-33.18,0-15.69,7-30.31,19.64-30.31,6.73,0,14,4.15,16.87,16.85l3.23-.75c-.61-6.72-1.22-11.63-2-17.5-2.35-.64-9.36-3.3-16.43-3.3-20.87,0-34.67,15.26-34.67,37.14,0,17,9.7,35.44,32.92,35.44,0,0-5.08.05.53.06h.9a55,55,0,0,0,12-1.94l.54-.12v0c3.63-.94,6.38-1.83,6.38-1.83-.59-2-.53-14.39-.29-21S375.16,120.32,375.16,120.32Z"/><path class="cls-1" d="M396.05,71.9V66.52H230.71V71.9c10,1.5,10,3.59,7.35,14.06-3.43,13-8.69,30.21-15.42,52h-.37c-4.4-14.06-14.07-44.42-17.62-56.38-1.83-6.43-1.83-8.08,7.1-9.72V66.52H175.29V71.9c7.46.9,9.54,3,13.21,14.66,5.14,15.4,16.64,51.44,25,78.81h6.12c9.54-30.81,20.47-64.83,24.72-76.27C251.71,69.13,263.79,71.9,396.05,71.9Z"/><path class="cls-1" d="M442.4,145.33c-5.14-15.4-16.64-51.45-25-78.81h-6.12c-9.55,30.8-20.47,64.83-24.72,76.27-7.42,20-19.5,17.2-151.75,17.2v5.38H400.18V160c-10-1.5-10-3.59-7.34-14.06,3.43-13,8.69-30.21,15.42-52.05h.37c4.4,14.06,14.07,44.42,17.61,56.38,1.84,6.43,1.84,8.08-7.09,9.73v5.38h36.46V160C448.15,159.09,446.07,157,442.4,145.33Z"/><path class="cls-1" d="M302.46,132.1a44,44,0,0,1-4.89,10.46c-2.09,2.67-5.24,3.42-9.69,3.42-3.32,0-6.29-.22-7.86-1.07-1.75-1.07-2.1-3.74-2.1-8.75V117.69h5.85c7.43,0,8.48.43,9.7,8.12h3.14V104.25h-3.14c-1.22,7.47-2.36,8-9.7,8h-5.85V89.63c0-3.53.35-3.74,3.58-3.74h4.2c4.89,0,7.25.75,8.73,2.67S297.14,94,298,97.74l3.14-.54c-.14-2.66-.29-5.45-.43-8l-.44-8H259.15v3.74c6.2.64,7.07,1.17,7.07,10.46v41c0,9.07-.87,9.72-8.29,10.46v3.74h44.53c.7-3.19,2.52-12.82,3.05-17.65v0h0v-.05Z"/><polygon class="cls-1" points="433.49 103.38 434.45 106.32 460.33 106.32 439.38 123.24 443.89 135.72 480.63 99.45 432.25 99.55 433.49 103.38 433.49 103.38"/><path class="cls-1" d="M76,1.08,75.63,0,76,199.92l.1.1,12.82-14.27,3.23-33.57,40.39-25.6s-4.83,34.26-33.57,55.67a140.35,140.35,0,0,1-1.26,34.67c-3.88,24.35-13,50.18-13,50.18s67.69-55.7,66-167.83C150.7,99.27,93.72,43,76,1.08Z"/></g></g></svg>