<svg xmlns="http://www.w3.org/2000/svg" viewBox="0 0 372.29 268"><defs><style>.cls-1{fill:#797979;}</style></defs><g id="Layer_2" data-name="Layer 2"><g id="The_Communicator_Awards" data-name="The Communicator Awards"><path class="cls-1" d="M372.29,256.91l-.05-6-.17-6.09-.3-6.11-.42-6.13-.56-6.16s-.54-4.87-.52-4.88-.34-2.71-.35-2.7l-.64-4.8-.94-6.18-1.07-6.13-1.18-6.07-1.3-6-1.42-5.94-1.53-5.89L360.2,172l-1.76-5.76-1.86-5.68-2-5.62-2.08-5.55-2.17-5.48-2.28-5.4-2.37-5.32-2.47-5.25-2.57-5.16L338,117.65l-2.75-5-2.85-4.92-2.93-4.83-3-4.75-3.1-4.65-3.19-4.57-3.27-4.47-3.34-4.38-3.43-4.28-3.5-4.18-3.57-4.08-3.65-4-3.72-3.88-3.79-3.78-3.85-3.66-3.92-3.56-4-3.45-4-3.34L272,38.66l-4.16-3.11-4.22-3-4.27-2.88L255,26.93l-4.37-2.64-4.43-2.51-4.47-2.38-4.51-2.26L232.7,15l-4.61-2-4.64-1.87L218.77,9.4l-4.72-1.59L209.3,6.34,204.52,5l-4.81-1.18-4.85-1L190,1.9l-4.89-.75-4.92-.6-5-.46L173.73,0c-16.2,3-32.36,6.05-48.53,9.15V68.41h4.1q0-28.77,0-57.53c0-1,18.52,1.22,20.18,1.42a142.24,142.24,0,0,1,43.6,12.86C197,27,200.9,29,204.74,31.08l4.34,2.46,4.29,2.58,4.24,2.71,4.19,2.82,4.14,2.93L230,47.64l4,3.16,4,3.28,3.91,3.39,3.85,3.5,3.79,3.6,3.72,3.71,3.65,3.81L260.52,76,264,80l3.44,4.11,3.37,4.21,3.29,4.3,3.22,4.4,3.13,4.49,3.05,4.58,3,4.67,5.69,9.6,2.71,4.92,2.62,5,2.53,5.09,2.43,5.16,2.34,5.24,2.24,5.32,2.14,5.39,2,5.47,1.94,5.53,1.83,5.6,1.73,5.67,1.62,5.74,1.5,5.8,1.4,5.85,1.28,5.92,1.17,6,1,6,.93,6.09.81,6.11.67,6.09.55,6.07.42,6,.3,6,.17,6,0,6,0,1.42L129.31,249.28V232.93h-4.1v20.16L328.61,268l43.64-7.94Z"/><polygon class="cls-1" points="125.18 9.15 125.18 9.14 125.18 9.14 125.18 9.15"/><polygon class="cls-1" points="35.38 116.96 44.24 83.77 44.35 83.77 53.26 116.96 58.4 116.96 69.99 76.5 65.89 76.5 55.99 111.71 55.88 111.71 46.21 76.5 42.43 76.5 32.81 111.77 32.7 111.77 22.8 76.5 18.65 76.5 30.19 116.96 35.38 116.96"/><path class="cls-1" d="M95.92,117.67c11.76,0,21.43-9.51,21.43-20.94s-9.67-20.94-21.43-20.94A21.25,21.25,0,0,0,74.54,97C74.54,108.71,84.87,117.67,95.92,117.67Zm-.06-38.22A17.28,17.28,0,1,1,95.92,114c-9.41,0-17.33-7.93-17.33-17.06A17.54,17.54,0,0,1,95.86,79.45Z"/><path class="cls-1" d="M152.63,89.57c0-6.84-4.7-13.07-15.26-13.07H125.18V117h4V80.17h7.71c9.29,0,11.64,5.46,11.64,9.29,0,5.52-4.26,9.19-11.42,9.19h-3.94L146.94,117H152L140.6,101.87C147.71,101.32,152.63,96.13,152.63,89.57Z"/><polygon class="cls-1" points="160.67 76.5 160.67 116.96 181.45 116.96 181.45 113.3 164.72 113.3 164.72 76.5 160.67 76.5"/><path class="cls-1" d="M212.51,80.06a25.06,25.06,0,0,0-13.39-3.56h-12V117H199c6.84,0,12.58-2,16.52-6.07A19.75,19.75,0,0,0,221.32,97,20.25,20.25,0,0,0,212.51,80.06Zm.28,28.37c-3,3.12-7.44,4.87-14.17,4.87h-7.43V80.17h7.27c5.19,0,9.51,1.25,12.36,3.44a16.06,16.06,0,0,1,6.45,13.12A17,17,0,0,1,212.79,108.43Z"/><polygon class="cls-1" points="22.64 170.41 37.78 134.38 37.89 134.38 37.89 170.41 41.94 170.41 41.94 129.95 35.71 129.95 20.94 164.4 6.23 129.95 0 129.95 0 170.41 4.05 170.41 4.05 134.38 4.16 134.38 19.19 170.41 22.64 170.41"/><polygon class="cls-1" points="73.72 133.61 73.72 129.95 51.57 129.95 51.57 170.41 73.72 170.41 73.72 166.75 55.62 166.75 55.62 151.82 73.11 151.82 73.11 148.16 55.62 148.16 55.62 133.61 73.72 133.61"/><path class="cls-1" d="M116.92,150.4a20.29,20.29,0,0,0-8.8-16.9A25.18,25.18,0,0,0,94.72,130h-12v40.46H94.55c6.84,0,12.58-2,16.52-6.07A19.77,19.77,0,0,0,116.92,150.4ZM94.23,166.75H86.79V133.61h7.27c5.2,0,9.52,1.26,12.36,3.45a16.06,16.06,0,0,1,6.45,13.12,17,17,0,0,1-4.48,11.7C105.44,165,101,166.75,94.23,166.75Z"/><rect class="cls-1" x="125.18" y="129.95" width="4.05" height="40.46"/><path class="cls-1" d="M153,130l-17.28,40.46h4.21l5.91-13.61h18.81l5.85,13.61h4.43L157.5,130Zm-5.63,23.18,7.93-18.59L163,153.13Z"/><polygon class="cls-1" points="9.2 223.48 13.24 223.48 13.24 205 29.04 205 29.04 201.33 13.24 201.33 13.24 186.68 29.65 186.68 29.65 183.02 9.2 183.02 9.2 223.48"/><polygon class="cls-1" points="37.36 223.48 59.51 223.48 59.51 219.81 41.41 219.81 41.41 204.89 58.9 204.89 58.9 201.22 41.41 201.22 41.41 186.68 59.51 186.68 59.51 183.02 37.36 183.02 37.36 223.48"/><path class="cls-1" d="M78.65,200.08c-5.74-1.48-7.82-3.61-7.82-7.06A7.1,7.1,0,0,1,78.16,186a7.29,7.29,0,0,1,7.16,7.33h4a10.94,10.94,0,0,0-11.2-11c-6.24,0-11.38,4.49-11.38,10.89,0,7.38,5.53,9.29,11.32,10.93,5.31,1.53,8.2,4,8.2,8.37a8,8,0,0,1-8.14,8c-4.87,0-8.15-3.18-8.43-8.37h-4c.11,7.22,5.3,12,12.47,12a12,12,0,0,0,12.19-11.87C90.35,206.86,87.4,202.32,78.65,200.08Z"/><polygon class="cls-1" points="95.06 186.68 104.35 186.68 104.35 223.48 108.4 223.48 108.4 186.68 117.64 186.68 117.64 183.02 95.06 183.02 95.06 186.68"/><rect class="cls-1" x="125.19" y="183.02" width="4.05" height="40.46"/><polygon class="cls-1" points="155.59 218.45 141.32 183.02 136.84 183.02 153.52 223.48 157.51 223.48 174.29 183.02 169.92 183.02 155.59 218.45"/><path class="cls-1" d="M169.05,223.48h4.21l5.91-13.62H198l5.85,13.62h4.43L190.87,183h-4.54Zm27.34-17.28H180.7l7.93-18.59Z"/><polygon class="cls-1" points="216.35 183.02 216.35 223.48 237.13 223.48 237.13 219.81 220.4 219.81 220.4 183.02 216.35 183.02"/><path class="cls-1" d="M252.45,220.53c-4.87,0-8.15-3.18-8.42-8.37H240c.11,7.22,5.3,12,12.47,12a12,12,0,0,0,12.19-11.87c0-5.46-2.95-10-11.7-12.24-5.74-1.48-7.82-3.61-7.82-7.06a7.1,7.1,0,0,1,7.33-7.05,7.29,7.29,0,0,1,7.16,7.33h4.05a10.94,10.94,0,0,0-11.21-11c-6.24,0-11.38,4.49-11.38,10.89,0,7.38,5.53,9.29,11.32,10.93,5.31,1.53,8.2,4,8.2,8.37A8,8,0,0,1,252.45,220.53Z"/></g></g></svg>