<svg xmlns="http://www.w3.org/2000/svg" width="18" height="18" viewBox="0 0 18 18">
  <g id="Group_1767" data-name="Group 1767" transform="translate(-5619 -237)">
    <rect id="Rectangle_1470" data-name="Rectangle 1470" width="18" height="18" transform="translate(5619 237)" fill="none"/>
    <path id="noun-buy-3266441" d="M99.441-.139A.562.562,0,0,0,98.89.43V5.767L97.944,4.63a.561.561,0,1,0-.863.718l1.938,2.337a.562.562,0,0,0,.867,0l1.938-2.337a.562.562,0,1,0-.863-.718l-.947,1.14V.43a.562.562,0,0,0-.573-.569ZM90.378,3.045a.563.563,0,1,0,.054,1.125h1.723l.894,7.016a.551.551,0,0,0,.007.056l.311,2.12h0a.562.562,0,0,0,.557.482h10.79a.563.563,0,0,0,0-1.126h-10.3l-.146-1h10.77a.562.562,0,0,0,.557-.481l.963-6.607a.564.564,0,0,0-1.117-.162l-.888,6.125H94.109l-.9-7.064a.562.562,0,0,0-.557-.49H90.378ZM96.57,14.321a1.77,1.77,0,1,0,1.768,1.768A1.78,1.78,0,0,0,96.57,14.321Zm5.756,0a1.77,1.77,0,1,0,1.772,1.768A1.776,1.776,0,0,0,102.326,14.321Z" transform="translate(5529.801 237.139)" fill="#fff"/>
  </g>
</svg>
