<svg xmlns="http://www.w3.org/2000/svg" width="18" height="18" viewBox="0 0 18 18">
  <g id="Group_1766" data-name="Group 1766" transform="translate(-5639 -237)">
    <rect id="Rectangle_1471" data-name="Rectangle 1471" width="18" height="18" transform="translate(5639 237)" fill="none"/>
    <g id="Group_1765" data-name="Group 1765" transform="translate(5641 239)">
      <path id="Path_1846" data-name="Path 1846" d="M491.023-843.366a3.42,3.42,0,0,1-.13.435,1.6,1.6,0,0,1-1.521.991c-1.161.009-2.323,0-3.484,0h-7.812a1.63,1.63,0,0,1-1.637-1.265,1.685,1.685,0,0,1-.043-.4c0-1.023,0-2.047,0-3.07,0-.119.033-.151.151-.149.443.007.885.009,1.328,0,.133,0,.154.042.154.162,0,.981,0,1.961-.006,2.942,0,.13.037.154.159.154q5.527,0,11.053,0c.144,0,.167-.043.167-.175-.006-.976,0-1.952-.006-2.927,0-.13.038-.157.16-.156.49,0,.98,0,1.47,0Z" transform="translate(-476.395 856.563)" fill="#fff"/>
      <path id="Path_1847" data-name="Path 1847" d="M566.388-1096.478c0,.066.011.132.011.2q0,4.091,0,8.182a.337.337,0,0,0,.017.182c.057-.014.084-.062.12-.1q.915-.913,1.826-1.829c.078-.079.118-.079.2,0,.318.328.643.65.969.969.065.064.072.1,0,.168q-1.67,1.662-3.335,3.329a.8.8,0,0,1-1.215,0q-1.67-1.662-3.335-3.328c-.069-.068-.062-.1,0-.168q.494-.485.979-.979c.069-.071.1-.071.175,0,.609.616,1.224,1.227,1.835,1.84a.989.989,0,0,1,.1.14.352.352,0,0,0,.042-.226q0-4.091,0-8.182c0-.066.007-.132.011-.2Z" transform="translate(-558.272 1096.478)" fill="#fff"/>
    </g>
  </g>
</svg>
