<svg xmlns="http://www.w3.org/2000/svg" width="16.974" height="13.005" viewBox="0 0 16.974 13.005">
  <g id="Group_1725" data-name="Group 1725" transform="translate(-201.461 414.86)">
    <path id="Path_1864" data-name="Path 1864" d="M201.611-403.309v-10.1a.169.169,0,0,0,.02-.044,1.483,1.483,0,0,1,1.537-1.261c.646.011,1.292,0,1.938,0h11.627a1.467,1.467,0,0,1,1.551,1.506q.007,4.844,0,9.689a1.446,1.446,0,0,1-.151.676,1.476,1.476,0,0,1-1.417.831H203.185c-.038,0-.076,0-.114,0a1.482,1.482,0,0,1-1.153-.577A1.794,1.794,0,0,1,201.611-403.309ZM216.6-413.681l-.031-.036H203.322a.348.348,0,0,0,.109.133q3.209,3.179,6.414,6.363c.116.115.169.1.276-.007q3.172-3.182,6.352-6.356A1.107,1.107,0,0,1,216.6-413.681Zm-.005,10.69c-.03-.035-.045-.056-.063-.074q-2.256-2.257-4.51-4.515c-.089-.09-.129-.045-.192.017q-.718.721-1.439,1.439a.509.509,0,0,1-.829,0c-.482-.477-.966-.953-1.442-1.435-.1-.1-.153-.115-.262-.005q-2.21,2.222-4.428,4.435a.332.332,0,0,0-.114.141Zm-14-.7c.043-.038.064-.055.083-.074q2.263-2.262,4.528-4.522c.1-.095.049-.135-.019-.2q-2.233-2.211-4.465-4.423c-.035-.035-.061-.088-.126-.091Zm14.708-9.332c-.051.047-.083.074-.113.1q-2.227,2.227-4.456,4.451c-.1.1-.077.144.007.227q2.224,2.218,4.444,4.441c.032.032.067.061.118.107Z" transform="translate(0 0)" fill="#fff" stroke="#fff" stroke-width="0.3"/>
  </g>
</svg>
