<svg xmlns="http://www.w3.org/2000/svg" width="32" height="32" viewBox="0 0 32 32">
  <g id="Group_1762" data-name="Group 1762" transform="translate(-12817 -93)">
    <rect id="Rectangle_1496" data-name="Rectangle 1496" width="32" height="32" transform="translate(12817 93)" fill="none"/>
    <g id="Group_1761" data-name="Group 1761" transform="translate(12807.555 83.137)">
      <path id="Path_1878" data-name="Path 1878" d="M232.9,140.868a6.949,6.949,0,0,1,13.865,0h3.572a2.567,2.567,0,0,1,2.52,2.835l-.883,9.485a23.822,23.822,0,0,0-24.272.133l-.9-9.618a2.567,2.567,0,0,1,2.52-2.835Zm11.317,0a4.417,4.417,0,0,0-8.769,0Z" transform="translate(-214.347 -124.531)" fill="#fff" fill-rule="evenodd"/>
      <path id="Path_1879" data-name="Path 1879" d="M291.96,323.1a1.331,1.331,0,0,1,1.858-.111l5.72,4.985a1.28,1.28,0,0,1,0,1.938l-5.72,4.985a1.331,1.331,0,0,1-1.858-.111,1.281,1.281,0,0,1,.113-1.828l3.122-2.72h-9.665a1.295,1.295,0,1,1,0-2.59h9.665l-3.122-2.721a1.28,1.28,0,0,1-.113-1.827Z" transform="translate(-266.029 -293.36)" fill="#fff"/>
    </g>
  </g>
</svg>
