<svg xmlns="http://www.w3.org/2000/svg" width="17.009" height="18.315" viewBox="0 0 17.009 18.315">
  <path id="noun-buy-3266441" d="M99.61-.139a.572.572,0,0,0-.561.579V5.87l-.963-1.156a.571.571,0,1,0-.878.731l1.972,2.378a.572.572,0,0,0,.883,0l1.972-2.378a.572.572,0,1,0-.878-.731l-.963,1.16V.44a.572.572,0,0,0-.583-.579ZM90.387,3.1a.573.573,0,1,0,.055,1.145H92.2l.909,7.139a.561.561,0,0,0,.007.057l.316,2.158h0a.572.572,0,0,0,.566.49h10.979a.573.573,0,0,0,0-1.145H94.488l-.149-1.013H105.3a.572.572,0,0,0,.566-.489l.98-6.723a.574.574,0,0,0-1.136-.164l-.9,6.233H94.184L93.267,3.6a.572.572,0,0,0-.567-.5H90.387Zm6.3,11.474a1.8,1.8,0,1,0,1.8,1.8A1.811,1.811,0,0,0,96.688,14.574Zm5.857,0a1.8,1.8,0,1,0,1.8,1.8A1.807,1.807,0,0,0,102.545,14.574Z" transform="translate(-89.841 0.139)" fill="#fff"/>
</svg>
