<svg id="Layer_1" data-name="Layer 1" xmlns="http://www.w3.org/2000/svg" width="118.82" height="117.16" viewBox="0 0 118.82 117.16">
	<defs>
		<style>
			.play {
			fill: #ffffff;
			}
			#play-text{
			transform-origin: 50% 50%;
			animation-name: ckw;
			animation-duration: 8s;
			animation-iteration-count: infinite;
			animation-timing-function: linear;
			}
			@keyframes ckw {
			from {
			transform: rotate(0deg);
			}
			to {
			transform: rotate(360deg);
			}
			}
		</style>
	</defs>
	<g id="play-text" class="play">
		<path d="M65.56,5.25c.11-.75.18-1.36.24-1.92l1,.15-.1,1h0a2.33,2.33,0,0,1,2.25-.83c1.41.21,2.29,1.56,2,3.33-.31,2.1-1.74,2.95-3.12,2.74a2.07,2.07,0,0,1-1.66-1.18h0l-.47,3.17-1.05-.16ZM66.38,7a2.17,2.17,0,0,0,0,.44,1.64,1.64,0,0,0,1.4,1.47c1.13.17,1.91-.65,2.11-2,.17-1.17-.29-2.26-1.41-2.42a1.7,1.7,0,0,0-1.8,1.07,1.55,1.55,0,0,0-.14.43Z" transform="translate(-0.69 -1.93)" />
		<path d="M73.65,1.93l1,.25-2,8.4-1-.26Z" transform="translate(-0.69 -1.93)" />
		<path d="M77.33,12l.15-.73h0a2.17,2.17,0,0,1-2,.26,1.68,1.68,0,0,1-1.17-2.18c.45-1.35,1.9-1.68,4-.95l0-.12a1.2,1.2,0,0,0-.84-1.71A2.89,2.89,0,0,0,76,6.48V5.74a3.65,3.65,0,0,1,2,.11,2.09,2.09,0,0,1,1.36,3l-.69,2.09a8,8,0,0,0-.36,1.37Zm.8-2.9c-1.1-.39-2.43-.62-2.79.47A1,1,0,0,0,76,10.86a1.48,1.48,0,0,0,1.66-.48,1.34,1.34,0,0,0,.17-.31Z" transform="translate(-0.69 -1.93)" />
		<path d="M82.28,7.62,82,11.32c0,.41-.1.89-.16,1.25h0c.24-.27.54-.63.85-1L85.23,9l1,.47L83,12.59c-1.54,1.51-2.45,2.23-3.37,2.5a2.94,2.94,0,0,1-1.49.09l.13-.93a3,3,0,0,0,1.07-.09,3.19,3.19,0,0,0,1.32-.71,1.1,1.1,0,0,0,.19-.19,2,2,0,0,0,0-.29l.28-5.84Z" transform="translate(-0.69 -1.93)" />
		<path d="M91.83,12.81l-1,3.37c-.16.54-.31,1-.5,1.5l0,0c.39-.32.82-.61,1.29-.93l2.86-2,.91.66-5.32,3.43-.83-.59,1.62-6.1Z" transform="translate(-0.69 -1.93)" />
		<path d="M92.59,20.77l3.82-4.49.81.69L93.4,21.46Zm5.8-5a.66.66,0,1,1-.07-.94A.65.65,0,0,1,98.39,15.79Z" transform="translate(-0.69 -1.93)" />
		<path d="M104.37,20.05l-5.09,5c-.37.37-.79.8-1,1.1l-.68-.68.7-.75,0,0A2.18,2.18,0,0,1,96,24.06c-1-1-.9-2.64.37-3.89s3.11-1.36,4.12-.34a2,2,0,0,1,.6,1.91h0l2.52-2.46ZM99.94,22.9a1.93,1.93,0,0,0,.29-.35,1.6,1.6,0,0,0-.2-2c-.78-.79-1.93-.58-2.86.34s-1.15,1.94-.34,2.77a1.6,1.6,0,0,0,2,.22,1.62,1.62,0,0,0,.37-.29Z" transform="translate(-0.69 -1.93)" />
		<path d="M101.74,26.1a1.89,1.89,0,0,0-.39,2.85,3.84,3.84,0,0,0,1.23,1.11l-.5.61a4.84,4.84,0,0,1-1.48-1.34,2.73,2.73,0,0,1,.6-4.1c1.41-1.08,3.16-1.1,4.2.26a2.49,2.49,0,0,1-.72,3.62,5,5,0,0,1-.42.28Zm2.52,2a1.53,1.53,0,0,0,.48-2.24,1.78,1.78,0,0,0-2.38-.25Z" transform="translate(-0.69 -1.93)" />
		<path d="M108,35.07a2.88,2.88,0,0,1-4.19-.93,2.81,2.81,0,0,1,1.17-4,2.88,2.88,0,0,1,4.18.92A2.8,2.8,0,0,1,108,35.07Zm-2.43-4a2,2,0,0,0-1,2.69c.52.88,1.73,1,2.88.38.86-.51,1.69-1.59,1-2.68S106.53,30.51,105.57,31.08Z" transform="translate(-0.69 -1.93)" />
		<path d="M111.86,42.53l-.74.27-1-2.82.74-.28Z" transform="translate(-0.69 -1.93)" />
		<path d="M113.75,48.16c.75-.13,1.34-.25,1.89-.37l.16,1-1,.22v0a2.31,2.31,0,0,1,1.48,1.87c.24,1.41-.77,2.67-2.54,3-2.09.35-3.33-.74-3.57-2.11a2.08,2.08,0,0,1,.61-2v0l-3.16.54-.18-1.05Zm-1.37,1.31a2.32,2.32,0,0,0-.42.12,1.66,1.66,0,0,0-1,1.8c.19,1.11,1.21,1.61,2.55,1.38,1.16-.2,2-1,1.86-2.1a1.7,1.7,0,0,0-1.58-1.37,1.3,1.3,0,0,0-.44,0Z" transform="translate(-0.69 -1.93)" />
		<path d="M119.43,54.85l.08,1.07-8.62.66-.08-1.07Z" transform="translate(-0.69 -1.93)" />
		<path d="M111,61.46l.74-.07v0a2.21,2.21,0,0,1-.84-1.82,1.69,1.69,0,0,1,1.72-1.78c1.42,0,2.18,1.31,2.13,3.58h.12A1.23,1.23,0,0,0,116.24,60a2.93,2.93,0,0,0-.41-1.54l.71-.24a3.71,3.71,0,0,1,.49,2c0,1.8-1.27,2.22-2.45,2.2l-2.2,0a7.94,7.94,0,0,0-1.42.07Zm3-.1c0-1.17-.14-2.5-1.29-2.52a1,1,0,0,0-1,1,1.47,1.47,0,0,0,1,1.44,1,1,0,0,0,.34.07Z" transform="translate(-0.69 -1.93)" />
		<path d="M116.71,64.81l-3.6.9c-.4.09-.88.18-1.24.24v0c.33.15.77.32,1.18.52l3.3,1.54-.12,1.13-4-2.07c-1.92-1-2.89-1.62-3.44-2.42a2.8,2.8,0,0,1-.54-1.38l.92-.17a2.9,2.9,0,0,0,.42,1,3.16,3.16,0,0,0,1.08,1,.7.7,0,0,0,.25.11.65.65,0,0,0,.28,0l5.64-1.56Z" transform="translate(-0.69 -1.93)" />
		<path d="M114.79,75.49l-3.51.12c-.57,0-1.09,0-1.59,0v0c.43.28.84.58,1.29.93l2.82,2.09-.33,1.06-4.94-4,.31-1,6.3-.37Z" transform="translate(-0.69 -1.93)" />
		<path d="M107.46,78.71l5.46,2.22-.41,1-5.45-2.22Zm6.54,4a.66.66,0,0,1,.5-1.23.65.65,0,0,1,.37.87A.63.63,0,0,1,114,82.66Z" transform="translate(-0.69 -1.93)" />
		<path d="M111.79,89.7l-6.32-3.28a15.06,15.06,0,0,0-1.37-.66l.44-.86.93.43v0a2.18,2.18,0,0,1-.1-2.31c.66-1.27,2.24-1.69,3.82-.86,1.75.89,2.26,2.53,1.59,3.8a2,2,0,0,1-1.62,1.17v0l3.13,1.62Zm-4.07-3.32a1.75,1.75,0,0,0,.42.16,1.58,1.58,0,0,0,1.81-.8c.51-1,0-2-1.2-2.62s-2.21-.48-2.74.54a1.63,1.63,0,0,0,.41,2,1.53,1.53,0,0,0,.39.25Z" transform="translate(-0.69 -1.93)" />
		<path d="M105.25,89.06a1.89,1.89,0,0,0-2.83.51,3.86,3.86,0,0,0-.67,1.52l-.74-.28a4.86,4.86,0,0,1,.81-1.82,2.73,2.73,0,0,1,4.09-.71c1.46,1,2,2.65,1.06,4.07a2.5,2.5,0,0,1-3.67.44,3.49,3.49,0,0,1-.39-.31Zm-1.14,3a1.53,1.53,0,0,0,2.27-.24,1.78,1.78,0,0,0-.5-2.34Z" transform="translate(-0.69 -1.93)" />
		<path d="M98.66,97.8a2.87,2.87,0,0,1-.41-4.27,2.8,2.8,0,0,1,4.14-.12,2.88,2.88,0,0,1,.42,4.26A2.79,2.79,0,0,1,98.66,97.8Zm3-3.55A1.84,1.84,0,1,0,99.35,97c.75.66,2,1.13,2.87.17S102.54,95,101.7,94.25Z" transform="translate(-0.69 -1.93)" />
		<path d="M92.78,103.8l-.49-.62,2.36-1.87.49.62Z" transform="translate(-0.69 -1.93)" />
		<path d="M88,107.37c.35.67.66,1.19.94,1.68l-.84.45-.52-.87h0a2.32,2.32,0,0,1-1.32,2c-1.26.67-2.77.11-3.61-1.47-1-1.88-.34-3.41.89-4.06a2.07,2.07,0,0,1,2,0h0l-1.5-2.83.94-.5Zm-1.67-.89a2.8,2.8,0,0,0-.25-.36,1.65,1.65,0,0,0-2-.36c-1,.53-1.15,1.66-.51,2.85s1.57,1.65,2.57,1.12a1.87,1.87,0,0,0,.67-2.36Z" transform="translate(-0.69 -1.93)" />
		<path d="M83.45,114.86l-1,.41-3.33-8,1-.41Z" transform="translate(-0.69 -1.93)" />
		<path d="M74.53,108.91l.31.68h0a2.18,2.18,0,0,1,1.45-1.38,1.67,1.67,0,0,1,2.23,1c.44,1.36-.53,2.49-2.7,3.18l0,.11a1.21,1.21,0,0,0,1.69.89,2.85,2.85,0,0,0,1.33-.89l.45.6a3.74,3.74,0,0,1-1.68,1.1c-1.72.55-2.51-.49-2.88-1.61l-.67-2.1a8.83,8.83,0,0,0-.53-1.32Zm1.07,2.82c1.12-.34,2.32-.94,2-2a1,1,0,0,0-1.28-.66,1.45,1.45,0,0,0-1.05,1.37.93.93,0,0,0,.05.34Z" transform="translate(-0.69 -1.93)" />
		<path d="M73.1,115.4l-2-3.15c-.21-.36-.44-.78-.61-1.11h0c0,.37-.07.83-.12,1.28l-.45,3.62-1.11.23.72-4.44c.35-2.13.65-3.25,1.24-4a3,3,0,0,1,1.15-.95l.44.83a3,3,0,0,0-.81.71,3.21,3.21,0,0,0-.64,1.35.66.66,0,0,0,0,.26.9.9,0,0,0,.12.26l3.24,4.89Z" transform="translate(-0.69 -1.93)" />
		<path d="M62.42,116.86l-1.21-3.29c-.2-.53-.37-1-.5-1.5h0c-.13.49-.29,1-.48,1.51l-1.09,3.34H58L60.21,111h1l2.34,5.85Z" transform="translate(-0.69 -1.93)" />
		<path d="M55.34,118.37a.66.66,0,0,1,1.32.09.65.65,0,0,1-.71.62A.64.64,0,0,1,55.34,118.37Zm1.7-7.45-.4,5.88-1.07-.08.4-5.88Z" transform="translate(-0.69 -1.93)" />
		<path d="M48,118.49l1.12-7c.09-.52.17-1.11.2-1.51l1,.15-.12,1h0a2.17,2.17,0,0,1,2.16-.83c1.41.23,2.3,1.59,2,3.36-.3,1.94-1.69,2.94-3.11,2.71a2,2,0,0,1-1.61-1.17h0L49,118.66Zm1.87-4.92a1.78,1.78,0,0,0,0,.46,1.59,1.59,0,0,0,1.33,1.47c1.09.17,1.9-.69,2.1-2s-.23-2.25-1.37-2.43a1.62,1.62,0,0,0-1.76,1,3,3,0,0,0-.12.45Z" transform="translate(-0.69 -1.93)" />
		<path d="M46.51,112.07a1.89,1.89,0,0,0-1.37-2.53,4,4,0,0,0-1.66-.16l0-.79a4.65,4.65,0,0,1,2,.2,2.74,2.74,0,0,1,2,3.66c-.5,1.71-1.89,2.76-3.54,2.28a2.49,2.49,0,0,1-1.57-3.34,4.36,4.36,0,0,1,.17-.47Zm-3.23-.14a1.53,1.53,0,0,0,.94,2.09,1.79,1.79,0,0,0,2.07-1.22Z" transform="translate(-0.69 -1.93)" />
		<path d="M36.14,108.54a2.88,2.88,0,0,1,3.93-1.73,2.81,2.81,0,0,1,1.41,3.9,2.88,2.88,0,0,1-3.92,1.73A2.79,2.79,0,0,1,36.14,108.54Zm4.33,1.78a1.84,1.84,0,1,0-3.3-1.39c-.4.92-.44,2.28.73,2.78S40,111.35,40.47,110.32Z" transform="translate(-0.69 -1.93)" />
		<path d="M28.61,104.82l.44-.66,2.51,1.65-.44.67Z" transform="translate(-0.69 -1.93)" />
		<path d="M23.75,101.4c-.52.55-.92,1-1.29,1.42l-.7-.66.67-.76,0,0a2.32,2.32,0,0,1-2.3-.63c-1-1-1-2.6.28-3.89,1.46-1.52,3.12-1.38,4.12-.42a2.07,2.07,0,0,1,.67,1.92v0l2.22-2.31.77.74Zm.33-1.86a3.69,3.69,0,0,0,.27-.35,1.67,1.67,0,0,0-.29-2c-.82-.78-1.93-.57-2.87.4a1.92,1.92,0,0,0-.25,2.8,1.7,1.7,0,0,0,2.08.16,1.83,1.83,0,0,0,.36-.26Z" transform="translate(-0.69 -1.93)" />
		<path d="M15.23,99.42l-.7-.82L21.07,93l.7.81Z" transform="translate(-0.69 -1.93)" />
		<path d="M18.07,89.07l-.55.5,0,0a2.2,2.2,0,0,1,1.77.94A1.68,1.68,0,0,1,19,93c-1.15.84-2.53.27-3.86-1.57l-.1.07a1.22,1.22,0,0,0-.31,1.89,3,3,0,0,0,1.26,1l-.43.61A3.71,3.71,0,0,1,14,93.73c-1.06-1.46-.32-2.54.63-3.24l1.78-1.3a8.87,8.87,0,0,0,1.09-.91ZM15.73,91c.67,1,1.62,1.91,2.55,1.23a1,1,0,0,0,.23-1.42,1.48,1.48,0,0,0-1.64-.57,1.14,1.14,0,0,0-.31.16Z" transform="translate(-0.69 -1.93)" />
		<path d="M11.49,89.78l2.37-2.86c.27-.31.6-.67.85-.93v0c-.36.08-.81.2-1.25.28L9.87,87,9.3,86l4.44-.71c2.14-.34,3.29-.41,4.21-.09a2.91,2.91,0,0,1,1.26.79l-.65.68a2.83,2.83,0,0,0-.92-.55,3.29,3.29,0,0,0-1.49-.18.74.74,0,0,0-.26,0,1.32,1.32,0,0,0-.21.21l-3.61,4.6Z" transform="translate(-0.69 -1.93)" />
		<path d="M6.71,80l2.76-2.17a13.76,13.76,0,0,1,1.27-.94v0c-.5,0-1,0-1.59,0H5.63l-.36-1.06,6.33.27.33,1-4.85,4Z" transform="translate(-0.69 -1.93)" />
		<path d="M3.07,73.77a.67.67,0,1,1-.48.8A.63.63,0,0,1,3.07,73.77Zm7.62-.7L5,74.52l-.26-1L10.43,72Z" transform="translate(-0.69 -1.93)" />
		<path d="M.69,66.84l7-1.11c.52-.08,1.1-.19,1.49-.29l.15,1-1,.21v0a2.18,2.18,0,0,1,1.46,1.8c.22,1.41-.8,2.68-2.57,2.95-1.93.32-3.31-.69-3.53-2.11a2,2,0,0,1,.61-1.9v0l-3.48.54ZM6,67.09a2.2,2.2,0,0,0-.44.12,1.58,1.58,0,0,0-1,1.72c.18,1.1,1.24,1.59,2.53,1.39s2.06-.91,1.88-2.06a1.61,1.61,0,0,0-1.51-1.35,2.4,2.4,0,0,0-.46,0Z" transform="translate(-0.69 -1.93)" />
		<path d="M6.33,63.42a1.88,1.88,0,0,0,2-2.09A4,4,0,0,0,8,59.71l.76-.21a4.84,4.84,0,0,1,.43,2,2.73,2.73,0,0,1-2.87,3c-1.78.06-3.21-.94-3.27-2.66a2.5,2.5,0,0,1,2.69-2.53l.5,0Zm-.87-3.11a1.53,1.53,0,0,0-1.69,1.54,1.77,1.77,0,0,0,1.79,1.59Z" transform="translate(-0.69 -1.93)" />
		<path d="M6.44,52.51A2.89,2.89,0,0,1,9.31,55.7a2.8,2.8,0,0,1-3.26,2.56,2.88,2.88,0,0,1-2.87-3.18A2.8,2.8,0,0,1,6.44,52.51Zm-.33,4.67c1.28.1,2.32-.55,2.41-1.6s-.81-1.86-2.14-2c-1-.09-2.29.31-2.4,1.57S5,57.08,6.11,57.18Z" transform="translate(-0.69 -1.93)" />
		<path d="M7.61,44.19l.76.21-.78,2.9-.77-.21Z" transform="translate(-0.69 -1.93)" />
		<path d="M9.33,38.49c-.68-.33-1.23-.57-1.75-.79L8,36.83l.93.4v0a2.3,2.3,0,0,1-.12-2.38c.61-1.28,2.16-1.73,3.78-1,1.91.92,2.29,2.54,1.69,3.79a2.06,2.06,0,0,1-1.62,1.23v0l2.88,1.39-.46,1Zm1.88-.27a2.3,2.3,0,0,0,.42.14,1.64,1.64,0,0,0,1.82-.9c.49-1-.06-2-1.27-2.6s-2.25-.39-2.74.63a1.69,1.69,0,0,0,.5,2,2,2,0,0,0,.36.26Z" transform="translate(-0.69 -1.93)" />
		<path d="M8.57,29.77l.55-.92,7.41,4.45-.55.92Z" transform="translate(-0.69 -1.93)" />
		<path d="M19.3,29.24l-.65-.37,0,0a2.19,2.19,0,0,1-.34,2,1.67,1.67,0,0,1-2.42.47c-1.16-.83-1-2.31.29-4.15l-.1-.07a1.21,1.21,0,0,0-1.89.29,2.89,2.89,0,0,0-.54,1.5l-.72-.22a3.6,3.6,0,0,1,.71-1.87c1.05-1.47,2.3-1.11,3.26-.42l1.79,1.29a8.92,8.92,0,0,0,1.21.75Zm-2.54-1.63c-.7.94-1.31,2.13-.38,2.8a1,1,0,0,0,1.42-.22,1.45,1.45,0,0,0,0-1.73.82.82,0,0,0-.24-.25Z" transform="translate(-0.69 -1.93)" />
		<path d="M16.57,23.21,20,24.58c.38.16.83.36,1.15.52l0,0c-.19-.31-.44-.7-.66-1.1l-1.8-3.18.76-.84,2.05,4c1,1.92,1.42,3,1.4,4a3,3,0,0,1-.36,1.44l-.85-.4a3.13,3.13,0,0,0,.24-1,3.4,3.4,0,0,0-.29-1.47,1.09,1.09,0,0,0-.13-.23,1,1,0,0,0-.26-.13l-5.5-2Z" transform="translate(-0.69 -1.93)" />
		<path d="M24.32,15.65l2.93,1.94c.48.31.9.6,1.29.91l0,0c-.19-.47-.35-1-.52-1.5L27,13.64l.89-.67,1.72,6.09-.81.62-5.35-3.34Z" transform="translate(-0.69 -1.93)" />
		<path d="M29.14,10.23a.64.64,0,0,1-.22.92.63.63,0,0,1-.9-.21.66.66,0,1,1,1.12-.71Zm3,7-3.17-5,.9-.58,3.17,5Z" transform="translate(-0.69 -1.93)" />
		<path d="M35,5.78l3.26,6.34c.24.46.52,1,.74,1.33l-.86.44L37.62,13h0a2.17,2.17,0,0,1-1.26,2c-1.27.65-2.79.08-3.61-1.51s-.38-3.37.9-4a2,2,0,0,1,2,0h0L34,6.27Zm1.4,5.07a1.78,1.78,0,0,0-.25-.38,1.57,1.57,0,0,0-1.94-.39c-1,.5-1.13,1.67-.53,2.83s1.52,1.67,2.55,1.14a1.69,1.69,0,0,0,.64-2.29Z" transform="translate(-0.69 -1.93)" />
		<path d="M40,10.08a1.9,1.9,0,0,0,2.61,1.22A3.91,3.91,0,0,0,44,10.45l.44.66a5,5,0,0,1-1.72,1A2.74,2.74,0,0,1,39,10.34C38.36,8.67,38.86,7,40.47,6.4a2.51,2.51,0,0,1,3.25,1.77c.07.2.11.37.14.48Zm2.68-1.81a1.52,1.52,0,0,0-2-1.12,1.77,1.77,0,0,0-.94,2.2Z" transform="translate(-0.69 -1.93)" />
		<path d="M50.41,6.77a2.88,2.88,0,0,1-2.14,3.72,2.8,2.8,0,0,1-3.45-2.3A2.88,2.88,0,0,1,47,4.47,2.8,2.8,0,0,1,50.41,6.77ZM45.87,7.9c.29,1.26,1.24,2,2.26,1.8a2,2,0,0,0,1.22-2.64c-.23-1-1-2.09-2.24-1.8S45.61,6.81,45.87,7.9Z" transform="translate(-0.69 -1.93)" />
		<path d="M58.69,5.31l0,.79-3,.15,0-.79Z" transform="translate(-0.69 -1.93)" />
	</g>
</svg>
