<?xml version="1.0" encoding="utf-8"?>
<!-- Generator: Adobe Illustrator 23.1.0, SVG Export Plug-In . SVG Version: 6.00 Build 0)  -->
<svg version="1.1" id="Layer_1" xmlns="http://www.w3.org/2000/svg" xmlns:xlink="http://www.w3.org/1999/xlink" x="0px" y="0px"
	 viewBox="0 0 1036.3 268" style="enable-background:new 0 0 1036.3 268;" xml:space="preserve">
<style type="text/css">
	.st0{fill:#797979;}
</style>
<g>
	<g id="Accenture">
		<path class="st0" d="M604,74.9l59.7-21.8L604,30.3V0l102.2,40.4v25.1L604,106.1V74.9z M39.3,268C17.8,268,0,257.2,0,233.5v-1.3
			c0-28.9,25.6-38.3,56.5-38.3h14.9v-5.6c0-11.7-5.3-18.9-17.6-18.9c-11.2,0-17.1,6.3-18.1,15.3h-32c2.3-26,23.3-38.8,51.7-38.8
			c28.8,0,49.4,12.1,49.4,41.3v78.5H72v-13.5C66.3,260.6,55.3,268,39.3,268 M71.3,226.5v-11.2H58c-16.5,0-24.9,4.5-24.9,15v1.1
			c0,8.1,5,13.7,16.2,13.7C60.8,245.1,71.3,238.8,71.3,226.5 M180.4,268c-33.1,0-57.1-20.2-57.1-59.9v-1.6
			c0-39.7,25.6-60.8,57.4-60.8c27.2,0,49.6,13.4,52.4,44.2h-32c-2.1-11.4-8-18.8-19.7-18.8c-14.2,0-24,11-24,34.1v3.6
			c0,23.8,8.7,34.5,24.2,34.5c11.4,0,19.9-8.3,21.7-21.1h30.4C231.3,248.9,212.8,268,180.4,268 M304.7,268
			c-33.1,0-57.1-20.2-57.1-59.9v-1.6c0-39.7,25.6-60.8,57.4-60.8c27.2,0,49.6,13.4,52.4,44.2h-32c-2.1-11.4-8-18.8-19.6-18.8
			c-14.2,0-24,11-24,34.1v3.6c0,23.8,8.7,34.5,24.2,34.5c11.4,0,19.9-8.3,21.7-21.1H358C355.7,248.9,337.2,268,304.7,268 M430,268
			c-34.5,0-58-20.2-58-59.2v-2.3c0-39.2,24.9-60.8,56.9-60.8c29.7,0,54.6,16.4,54.6,55.2v14.1h-77.8c1.4,21.1,10.5,29.1,24.9,29.1
			c12.8,0,19.7-6.7,22-15.3h30.9C479.8,251.2,461.3,268,430,268 M406.2,193.3H451c-0.7-17.3-8.7-24.7-22-24.7
			C418.6,168.6,409,174.3,406.2,193.3L406.2,193.3z M504.1,148.2h33.4v17.5c5.9-11,17.8-20,36.1-20c21.7,0,36.1,12.8,36.1,41.3v78.5
			h-33.4V192c0-13.7-5.7-19.7-17.8-19.7c-11.7,0-21,6.9-21,21.8v71.6h-33.4L504.1,148.2z M672.1,112.8v35.4H695v24.4h-22.9v55.6
			c0,8.8,4.1,12.8,11.9,12.8c4,0.1,7.9-0.5,11.7-2v25.6c-6.1,1.7-12.4,2.5-18.7,2.5c-26.1,0-38.4-11.7-38.4-35.4v-59h-14v-24.4h14
			v-22L672.1,112.8z M820.7,265.5h-33.4v-17.3c-5.7,11.2-16.9,19.7-34.8,19.7c-21.5,0-37.3-12.8-37.3-40.4v-79.4h33.6v74.4
			c0,13.5,5.5,19.7,17.4,19.7c11.7,0,21-7.2,21-21.8v-72.4h33.4L820.7,265.5z M844.9,148.3h33.4v21.5c7.1-15.7,18.3-23.1,35.9-23.1
			V179c-22.6,0-35.9,6.7-35.9,26.2v60.3h-33.4V148.3z M982.8,268c-34.5,0-58.1-20.2-58.1-59.2v-2.3c0-39.2,24.9-60.8,56.9-60.8
			c29.7,0,54.6,16.4,54.6,55.2v14.1h-77.7c1.4,21.1,10.5,29.1,24.9,29.1c12.8,0,19.7-6.7,22-15.3h30.9
			C1032.6,251.2,1014.1,268,982.8,268 M959,193.3h44.8c-0.7-17.3-8.7-24.7-22-24.7C971.3,168.6,961.8,174.3,959,193.3z"/>
	</g>
</g>
</svg>
