<?xml version="1.0" encoding="utf-8"?>
<!-- Generator: Adobe Illustrator 23.1.0, SVG Export Plug-In . SVG Version: 6.00 Build 0)  -->
<svg version="1.1" id="Layer_1" xmlns="http://www.w3.org/2000/svg" xmlns:xlink="http://www.w3.org/1999/xlink" x="0px" y="0px"
	 viewBox="0 0 930.3 268" style="enable-background:new 0 0 930.3 268;" xml:space="preserve">
<style type="text/css">
	.st0{fill:#797979;}
	.st1{font-family:'ArialMT';}
	.st2{font-size:60px;}
	.st3{letter-spacing:1;}
	.st4{letter-spacing:-1;}
</style>
<g>
	<g id="AICPA">
		<text transform="matrix(1 0 0 1 330.45 58.2)" class="st0 st1 st2">A</text>
		<text transform="matrix(1 0 0 1 366.81 58.2)" class="st0 st1 st2">ssoci</text>
		<text transform="matrix(1 0 0 1 488.19 58.2)" class="st0 st1 st2">a</text>
		<text transform="matrix(1 0 0 1 516.87 58.2)" class="st0 st1 st2">tion</text>
		<text transform="matrix(1 0 0 1 330.45 122.2)" class="st0 st1 st2">of </text>
		<text transform="matrix(1 0 0 1 393.63 122.2)" class="st0 st1 st2">I</text>
		<text transform="matrix(1 0 0 1 408.57 122.2)" class="st0 st1 st2">n</text>
		<text transform="matrix(1 0 0 1 441.63 122.2)" class="st0 st1 st2">t</text>
		<text transform="matrix(1 0 0 1 461.13 122.2)" class="st0 st1 st2">e</text>
		<text transform="matrix(1 0 0 1 491.19 122.2)" class="st0 st1 st2">r</text>
		<text transform="matrix(1 0 0 1 511.05 122.2)" class="st0 st1 st2">n</text>
		<text transform="matrix(1 0 0 1 544.35 122.2)" class="st0 st1 st2">a</text>
		<text transform="matrix(1 0 0 1 573.03 122.2)" class="st0 st1 st2">tional</text>
		<text transform="matrix(1 0 0 1 330.45 186.2)" class="st0 st1 st2">C</text>
		<text transform="matrix(1 0 0 1 364.59 186.2)" class="st0 st1 st2">e</text>
		<text transform="matrix(1 0 0 1 394.65 186.2)" class="st0 st1 st2 st3">r</text>
		<text transform="matrix(1 0 0 1 415.71 186.2)" class="st0 st1 st2">tified </text>
		<text transform="matrix(1 0 0 1 557.61 186.2)" class="st0 st1 st2 st4">P</text>
		<text transform="matrix(1 0 0 1 588.57 186.2)" class="st0 st1 st2">r</text>
		<text transform="matrix(1 0 0 1 607.59 186.2)" class="st0 st1 st2">o</text>
		<text transform="matrix(1 0 0 1 640.53 186.2)" class="st0 st1 st2">f</text>
		<text transform="matrix(1 0 0 1 657.27 186.2)" class="st0 st1 st2">essional</text>
		<text transform="matrix(1 0 0 1 330.45 250.2)" class="st0 st1 st2">A</text>
		<text transform="matrix(1 0 0 1 366.45 250.2)" class="st0 st1 st2">cc</text>
		<text transform="matrix(1 0 0 1 419.49 250.2)" class="st0 st1 st2">ou</text>
		<text transform="matrix(1 0 0 1 485.49 250.2)" class="st0 st1 st2">n</text>
		<text transform="matrix(1 0 0 1 518.55 250.2)" class="st0 st1 st2">ta</text>
		<text transform="matrix(1 0 0 1 567.33 250.2)" class="st0 st1 st2">n</text>
		<text transform="matrix(1 0 0 1 600.39 250.2)" class="st0 st1 st2">ts</text>
		<path class="st0" d="M253.9,181.7L172.6,5.6c56.5,17,95.2,68.9,95.4,127.9C268,153.7,263.2,170.1,253.9,181.7z M43.4,68
			c0-25.2,14.4-44.9,22.1-49.2l0,0C1.8,56.7-19,139,18.9,202.6c1.4,2.3,2.8,4.5,4.3,6.7l44.4-63.4C52.5,122.5,43.4,95.8,43.4,68z
			 M75.4,157.2l-44,62.9c47.6,56.7,132.1,64.1,188.8,16.5c3.1-2.6,6.1-5.4,9-8.3c-5.5,1.1-11,1.6-16.5,1.7
			C161.8,230.1,108.3,200.5,75.4,157.2L75.4,157.2z M87.6,139.6c28.9,35.4,74.3,62.1,118.6,62.1c11.8,0,22-2.2,30.4-6.3L168.1,24.8
			L87.6,139.6z M57.2,65.1c0,21.3,8.4,43.5,22.3,63.7L166.8,4.1C156.1,1.4,145.1,0,134,0C75.1,0,57.2,34.7,57.2,65.1z"/>
		<path class="st0" d="M235.7,254.7h9.7v1.9h-3.8v11.1h-2v-11.1h-3.8V254.7z"/>
		<path class="st0" d="M258.8,254.7h1.8l1.6,12.9h-2l-1.1-9.3l-3.8,7.8h-1.7l-3.8-7.8l-1.1,9.3h-2l1.6-12.9h1.8l4.4,9.2L258.8,254.7
			z"/>
	</g>
</g>
</svg>
