<?xml version="1.0" encoding="utf-8"?>
<!-- Generator: Adobe Illustrator 23.1.0, SVG Export Plug-In . SVG Version: 6.00 Build 0)  -->
<svg version="1.1" id="Layer_1" xmlns="http://www.w3.org/2000/svg" xmlns:xlink="http://www.w3.org/1999/xlink" x="0px" y="0px"
	 viewBox="0 0 971.5 268" style="enable-background:new 0 0 971.5 268;" xml:space="preserve">
<style type="text/css">
	.st0{fill:#797979;}
</style>
<g>
	<g id="The_Communicator_Awards">
		<path class="st0" d="M155.9,0c27,4.2,52.1,16.5,72,35.3c13.5,12.9,24.2,28.3,31.4,45.5c8.9,20.8,11.7,42.7,9.9,65
			c-1.6,19.7-7.8,38.7-18.1,55.6c-6.8,11.5-15.2,21.9-24.9,31c-13.1,12.1-28.2,20.9-44.8,27.4c-19.5,7.5-39.8,9.3-60.3,7.6
			c-14.6-1.1-28.8-5-42-11.4c-9.1-4.5-17.9-9.3-26-15.6c-10.6-8.1-20-17.7-27.9-28.4c-13-18-21.3-39-24.1-61
			c-4.2-30.9,2-59.6,17.3-86.6C28.3,47.3,42,34,60,26.1c20.4-9,40.4-7.8,57.9,7.4c9.9,8.6,15.8,19.9,16.4,33.4
			c0.4,8.5,0.2,16.8-3.4,24.8c-2.6,5.7-6.3,10.6-10.3,15.3c-7.6,9.2-17.3,16-26.8,23.1c-9.3,6.9-19.1,13.2-27.1,21.9
			c-15.7,17.1-18,45.6-1.7,63.2c14.3,15.3,32.1,21.4,52.6,16.4c13.7-3.4,23.6-12.6,30.6-24.9c4.6-8.2,7.2-17.4,7.6-26.8
			c0.1-2.4,0.1-4.9,0.1-7.3c0-55.3,0-110.5,0-165.8L155.9,0z"/>
		<path class="st0" d="M971.5,194h-34.9v-13.1l-1.3-0.8c-0.7,1.2-1.5,2.4-2.4,3.6c-12.3,13.4-28.3,16.5-45.2,10.3
			c-14.8-5.4-24.3-16-29.1-30.8c-7.2-22.3-7.1-44.4,3.5-65.6c8.6-17.1,23.3-26.3,42.2-27.8c10.9-1.1,21.6,3,29,11.1l3.1,3.3
			c0.2-3.8,0.3-6.9,0.5-10.4h34.7V194z M889.3,134.2c0.3,4.1,0.5,8.2,1,12.3c0.5,4.9,2.2,9.5,4.8,13.7c9.3,13.8,28.5,13.5,37.1,0.8
			c2.8-3.8,4.6-8.2,5.3-12.9c0.7-5.4,1.1-10.8,1-16.2c-0.3-8.4-1.3-16.8-6.4-24.1c-2.5-3.6-5.5-6.7-9.7-8.3
			c-11.2-4.1-23.5,0.6-28.6,11.2C890.3,118.2,889.5,126.1,889.3,134.2z"/>
		<path class="st0" d="M464.8,224.6c1.8-8.4,3.6-16.2,5.3-24.3c3.9,0.5,7.3,1,10.8,1.4c9.3,1.1,14.8-2.8,17.9-11.6
			c1.8-5,1.2-9.1-0.9-13.8c-14.8-33.2-29.2-66.6-43.8-99.9c-0.3-1-0.5-2-0.7-3h36.3c8.7,24.2,17.5,48.7,26.7,74.4
			c8.6-25.3,15.8-49.9,24-74.4h35c-0.2,1.2-0.4,2.4-0.8,3.6c-13.1,33.1-26.3,66.2-39.4,99.3c-3.7,9.4-7.5,18.8-11.3,28.1
			c-2.7,6.5-6.2,12.3-11.6,17c-4.2,3.7-9,6.4-14.5,6.9c-10.1,1-20.3,1-30-2.4C466.9,225.5,466.1,225.1,464.8,224.6z"/>
		<path class="st0" d="M451.4,113h-34.2c-0.8-1.9-1.6-3.8-2.5-5.6c-2.7-6.2-7.7-9.2-14.1-9.5c-7-0.3-12.9,2.1-16.6,8.4
			c-3.4,5.9-5.3,12.5-5.7,19.3c-0.8,10.9-0.5,21.7,3.9,32.1c3.2,7.6,8.8,12,16,12c9.8,0.1,14.8-3.1,18.5-11.6
			c0.4-0.9,0.8-1.7,1.3-2.8h33.3c-3.9,19-13,33.4-32,39.5c-11,3.5-22.7,4-33.9,1.6c-22.9-4.6-35.9-19.2-41-41.2
			c-3.6-15.1-3.2-30.8,1-45.7c3.8-13.2,11-24.3,22.5-32c7.1-4.6,15.3-7.4,23.7-8.1c10.2-1,20.4-0.6,30,3.2
			c14,5.5,22.7,16.1,27.4,30.1C450.1,106,450.5,109.4,451.4,113z"/>
		<path class="st0" d="M809.2,194.2h-38.3c-14.4-39.9-28.7-79.9-43.1-119.9c4.2-1.1,29.8-1.3,37.8-0.4c8.1,28.5,16.2,57.3,24.7,87.2
			c8.7-29.9,17-58.4,25.3-86.9c4.6-1.1,30.8-1.2,36.7-0.1C837.9,114.3,823.5,154.3,809.2,194.2z"/>
		<path class="st0" d="M589,44.3h34.9v29H658c1.3,4.3,1.6,20.5,0.4,27.5h-34.5v4.3c0,15.2,0,30.4,0,45.6c0,1.1,0,2.3,0.1,3.4
			c0.6,9,5.8,14.2,14.8,14.2c4.3,0,8.6-0.9,12.8-1.4c1.7-0.2,3.3-0.6,5.6-1c1.6,8.4,3.1,16.6,4.8,25.4c-5.1,1.4-9.8,3-14.8,3.8
			c-10.2,1.7-20.5,2.5-30.8,0.6c-12.3-2.2-20.7-9-24.5-21.1c-2.3-7.7-3.4-15.8-3.3-23.9c0-33.8,0-67.6,0-101.4
			C588.7,47.9,588.8,46.4,589,44.3z"/>
		<path class="st0" d="M714,73.5v120.1c-3.9,1.1-28.9,1.3-35.6,0.2V189c0-30,0-60.1,0-90.1c0-8.6,2.7-15.8,9.7-21.1
			c3.1-2.5,6.9-4,10.9-4.2C703.8,73.3,708.7,73.5,714,73.5z"/>
		<path class="st0" d="M716.6,43.2c0.6,8.6-7.3,20.1-20.5,20.1c-10.8,0-20.2-9.7-20.1-20.7s9.3-20,20.7-20S716.6,31.5,716.6,43.2z"
			/>
	</g>
</g>
</svg>
