<?xml version="1.0" encoding="utf-8"?>
<!-- Generator: Adobe Illustrator 23.1.0, SVG Export Plug-In . SVG Version: 6.00 Build 0)  -->
<svg version="1.1" id="Layer_1" xmlns="http://www.w3.org/2000/svg" xmlns:xlink="http://www.w3.org/1999/xlink" x="0px" y="0px"
	 viewBox="0 0 2408.6 268" style="enable-background:new 0 0 2408.6 268;" xml:space="preserve">
<style type="text/css">
	.st0{fill:#797979;}
</style>
<g>
	<g id="Kaiser_Permanente">
		<g id="Home">
			<g id="Home-Copy">
				<g id="_1400-expanded">
					<g id="top-bar">
						<g id="logo">
							<path id="Fill-1" class="st0" d="M179.7,80.9c-3-2.5-6.9-5.5-10.9-6.5l-6.4,126.1l31.8-87.3
								C197.1,99.8,189.7,88.8,179.7,80.9"/>
							<path id="Fill-2" class="st0" d="M127.6,73L146,198.5L163.9,73C152.1,68.8,139.3,68.8,127.6,73"/>
							<path id="Fill-3" class="st0" d="M112.2,80.9c-9.9,8.4-17.4,19.3-14.4,32.3l31.8,87.3l-6.5-126.1
								C119,75.6,115.3,77.8,112.2,80.9"/>
							<path id="Fill-4" class="st0" d="M48.7,92.8c20.8,36.7,42.7,75.9,63.5,111.2c-7.4-30.8-14.9-81.9-25.8-96.3
								C74,90.3,48.7,92.8,48.7,92.8"/>
							<path id="Fill-5" class="st0" d="M11.5,111.2l86.3,99.3L44.2,93.3C31.1,93.6,18.9,100.3,11.5,111.2"/>
							<path id="Fill-6" class="st0" d="M191.6,138l-14.4,68c18.4-31.8,36.7-63,54.6-94.8C215,112.2,197.6,118.7,191.6,138"/>
							<path id="Fill-7" class="st0" d="M236.8,111.2l-45.7,100.8l79.9-86.8C262.1,115.6,250.2,111.2,236.8,111.2"/>
							<path id="Fill-8" class="st0" d="M0.1,155.8c28.3,21.3,56.1,43.7,84.4,65L8.5,114.2C1.6,126.6-0.4,140.4,0.1,155.8"/>
							<path id="Fill-9" class="st0" d="M281,137.5c-1.4-3.5-3.6-6.5-6.5-8.9l-69,93.8c27.3-20.4,53.6-41.2,79.9-61.5
								C285.9,152.4,285,144.4,281,137.5"/>
							<path id="Fill-10" class="st0" d="M0.1,199.5l73.4,33.8c-24.3-24.3-49.1-47.6-73.4-71.5V199.5"/>
							<path id="Fill-11" class="st0" d="M285.9,202v-34.3l-69.5,67C240.3,223.3,262.1,212.9,285.9,202"/>
							<path id="Fill-12" class="st0" d="M0.1,232.8c22.3,5,46.2,10.9,66,15.4l-66-43.7L0.1,232.8"/>
							<path id="Fill-13" class="st0" d="M285.9,234.8v-26.3c-20.9,12.9-42.2,26.8-61.5,40.2L285.9,234.8"/>
							<path id="Fill-14" class="st0" d="M0.1,265.5h64.5L0.1,238.2V265.5"/>
							<path id="Fill-15" class="st0" d="M285.9,265.5v-24.8c-21.3,8.9-39.7,16.4-59.6,24.8H285.9"/>
							<path id="Fill-16" class="st0" d="M263.6,77.4c0.5-38.7-56.1-38.7-55.1-0.5C208,112.7,265.1,114.6,263.6,77.4"/>
							<path id="Fill-18" class="st0" d="M79,57.6c2-38.7-58.6-37.2-56.1,0C20.9,96.3,82.5,96.8,79,57.6"/>
							<path id="Fill-19" class="st0" d="M146,65c22.3,0.5,31.3-15.9,31.8-31.3C178.7,9.9,163.9,0,146,0s-32.3,10.4-31.3,33.8
								C115.2,47.2,120.7,64.5,146,65"/>
							<path id="Fill-20" class="st0" d="M621.4,113.2h26.3V264h-26.3V113.2z"/>
							<path id="Fill-21" class="st0" d="M528.6,113.2l-44.6,128l-43.7-54.6l58.1-73.4h-30.3l-53.6,71.5v-71.5h-26.3V264h26.3v-74.4
								l55.6,74.4h31.8l13.9-43.7h55.6l14.4,43.7H613l-52.6-150.8H528.6z M522.2,199.5l20.3-62.5h0.5l20.8,62.5L522.2,199.5z"/>
							<path id="Fill-22" class="st0" d="M1500.4,222.3l-26.3-109.2h-46.2V264h25.8V135.5L1487,264h26.3
								c0.5,0,33.3-128.5,33.3-128.5V264h25.8V113.2h-45.2L1500.4,222.3"/>
							<path id="Fill-23" class="st0" d="M1638.3,113.2l-52.6,151.4h25.8l13.9-43.7h56.1l14.9,43.7h27.3l-52.6-151.4H1638.3z
								 M1632.3,199.5l20.4-62.5h0.5l21.3,62.5L1632.3,199.5z"/>
							<path id="Fill-24" class="st0" d="M1830.4,229.8l-60.6-116.6h-34.7V264h24.8V150.4l59.6,113.6h35.7V113.2h-25.3v116.6"/>
							<path id="Fill-25" class="st0" d="M2328.2,242.2h-62.5v-42.7h46.2v-21.8h-46.2V135h57.1v-21.8h-83.4v151.4h88.3L2328.2,242.2
								"/>
							<path id="Fill-26" class="st0" d="M2088.5,112.7h-5v118.1L2023,113.2h-34.7v129h-79.9v-42.7h46.2v-21.8h-46.2V135h57.1v-21.8
								h-82.9v151.4h130.5V148.9l59.5,115.1h35.7V136h46.1v128.5h26.3V136h45.2v-22.8h-137.5"/>
							<path id="Fill-27" class="st0" d="M1390.2,188.1c8.4-6.9,14.4-18.4,14.4-32.3s-5.9-24.8-14.4-31.8
								c-9.4-7.9-22.3-10.9-44.2-10.9h-44.2v64l0,0v65.5h-80.4V200h46.2v-21.8h-46.2v-42.7h57.1v-21.8h-83.4V265h133v-65h12.9
								c11.9,18.9,37.7,64.5,37.7,64.5h31.3l-40.7-66.5C1377,196.4,1384.2,193,1390.2,188.1L1390.2,188.1z M1328.7,177.7V135h22.3
								c19.8,0,27.8,7.9,27.8,20.9c0,14.4-7.9,21.3-27.8,21.3h-22.3L1328.7,177.7z"/>
							<path id="Fill-28" class="st0" d="M975.3,188.1c8.4-6.9,14.4-18.4,14.4-32.3s-6-24.8-14.4-31.8c-8.9-7.9-22.3-10.9-44.2-10.9
								H887v64l0,0v65.5h-80.4V200h46.2v-21.8h-46.2v-42.7h57.1v-21.8h-83.4V265h133v-65h12.9c11.9,18.9,37.7,64.5,37.7,64.5h31.3
								L954.5,198C963.9,196,970.3,192.5,975.3,188.1L975.3,188.1z M913.8,177.7V135h22.3c19.8,0,27.8,7.9,27.8,20.9
								c0,14.4-7.9,21.3-27.8,21.3h-22.3V177.7z"/>
							<path id="Fill-29" class="st0" d="M1165.4,124.6c-9.4-7.9-22.3-11.4-44.2-11.4H1077v151.4h26.3V202h17.9
								c21.8,0,34.7-4,43.7-11.9c8.4-7,14.4-18.9,14.4-32.8S1173.2,131.5,1165.4,124.6L1165.4,124.6z M1125.7,179.7h-22.3V135h22.3
								c19.8,0,27.8,8.9,27.8,21.8C1153.5,170.7,1144.5,179.7,1125.7,179.7L1125.7,179.7z"/>
							<path id="Fill-30" class="st0" d="M724.7,176.2c-20.8-7.4-30.3-13.4-30.3-25.3c0-8.9,9.4-19.4,27.3-19.4
								c11.4,0.1,22.6,2.9,32.8,7.9v-21.8c-7-3.5-19.3-7-32.3-7c-32.8,0-55.1,18.4-55.1,42.7c0,21.8,16.9,35.2,42.2,43.7
								c19.8,6.9,28.3,13.9,28.3,25.8c0,12.9-10.9,21.8-29.3,21.8c-14.4,0-32.3-5-41.7-10.9V257c8.9,5,24.8,8.9,39.7,8.9
								c39.2,0,58.1-20.8,58.1-45.2C764.9,198.5,751,185.6,724.7,176.2"/>
							<path id="Fill-31" class="st0" d="M2352,237.2c-0.3-13.7,10.6-25,24.3-25.3c0.3,0,0.7,0,1,0c13.9,0,24.8,10.9,24.8,25.3
								c0,14.9-10.9,25.3-24.8,25.3C2363.4,263,2352,252.1,2352,237.2L2352,237.2z M2377.3,268c16.9,0,31.3-12.9,31.3-30.8
								c0-17.4-14.4-30.8-31.3-30.8s-31.3,12.9-31.3,30.8S2360.5,268,2377.3,268z M2370.9,239.7h6l9.4,15.4h6l-9.9-15.4
								c5.5-0.5,9.4-3.5,9.4-9.9c0-6.9-4-9.9-12.4-9.9H2366v35.2h5.5v-15.4L2370.9,239.7z M2370.9,235.2v-10.9h7.4c4,0,7.9,1,7.9,5
								c0,5.5-4,6-8.4,6L2370.9,235.2z"/>
						</g>
					</g>
				</g>
			</g>
		</g>
	</g>
</g>
</svg>
