<?xml version="1.0" encoding="utf-8"?>
<!-- Generator: Adobe Illustrator 23.1.0, SVG Export Plug-In . SVG Version: 6.00 Build 0)  -->
<svg version="1.1" id="Layer_1" xmlns="http://www.w3.org/2000/svg" xmlns:xlink="http://www.w3.org/1999/xlink" x="0px" y="0px"
	 viewBox="0 0 942.5 268" style="enable-background:new 0 0 942.5 268;" xml:space="preserve">
<style type="text/css">
	.st0{fill:#797979;}
</style>
<g>
	<g id="Niya.">
		<path class="st0" d="M35.2,47c1.2,23.9,1.9,45.1,1.9,77.6V268H0V0h50.8l79.9,151c11.1,21.4,23.3,44.7,32.9,66.5h2.3
			c-1.1-28.3-1.1-56.6-1.1-80.7V0h36.3v268h-49.7L69.6,113.9C58.1,92.1,48.2,70.3,37.5,47H35.2z"/>
		<path class="st0" d="M312.4,0H351v268h-38.6V0z"/>
		<polygon class="st0" points="601.4,0 549.3,82.8 571.2,117.6 645.3,0 		"/>
		<polygon class="st0" points="543.1,92.4 484.8,0 440.9,0 521.1,127.3 432.4,268 476.4,268 543.1,162.1 565.1,127.3 		"/>
		<path class="st0" d="M812,0h-44l-58.2,92.4l-22,34.9L599.1,268h44l43-68.1h100.8V268h38.6V0H812z M710.3,161.3l21.5-34l55-87.3
			v121.3H710.3z"/>
		<circle class="st0" cx="923.2" cy="248.7" r="19.3"/>
	</g>
</g>
</svg>
