<?xml version="1.0" encoding="utf-8"?>
<!-- Generator: Adobe Illustrator 23.1.0, SVG Export Plug-In . SVG Version: 6.00 Build 0)  -->
<svg version="1.1" id="Layer_1" xmlns="http://www.w3.org/2000/svg" xmlns:xlink="http://www.w3.org/1999/xlink" x="0px" y="0px"
	 viewBox="0 0 567.3 268" style="enable-background:new 0 0 567.3 268;" xml:space="preserve">
<style type="text/css">
	.st0{fill:#797979;}
	.st1{opacity:0.6;fill:#797979;enable-background:new    ;}
</style>
<g>
	<g id="The_Communicator_Awards">
		<g id="dI1hMK.tif">
			<path class="st0" d="M567.3,134.2l-68.6,0.1c-0.1,0-0.2,0.1-0.3,0.2c-1.1,10.8,4.6,23.9,16.6,29.6c7.7,3.8,16.5,4.6,24.7,2.1
				c8.6-2.6,14.5-8.5,19.1-15.9l5.8,3.3c-5.2,9.2-12.5,15.6-22.7,18.5c-12.4,3.5-24.2,2.3-35-5.2c-8.1-5.7-12.8-13.8-14.8-23.3
				c-2-9.9-1.2-19.5,3.4-28.6c5.7-11.3,15-18.1,27.5-20.2c10.4-1.7,20.2,0.2,28.9,6.5c7.7,5.6,12.1,13.3,14.2,22.4
				c0.5,1.9,0.8,3.8,1.2,5.8L567.3,134.2z M498.4,127.9h61.8c-0.7-12.7-12.5-26.9-29-27.6C512.2,99.4,498.2,115.2,498.4,127.9z"/>
			<path class="st0" d="M130.2,93.5c13.8,0,24.5,4.9,33,14.1c6,6.3,9.6,14.5,10.2,23.2c1,16.6-6.5,28.7-20.2,37.4
				c-6.5,4.1-14.1,6.2-21.8,6.1c-9.5,0.1-18.7-3.1-26.1-9c-7.7-6-13-13.7-15.1-23.4c-2.5-11.3,0-21.5,6.6-30.8s15.9-14.8,27-17.1
				C125.9,93.8,128,93.6,130.2,93.5z M131.3,168c2.3-0.1,4.5-0.3,6.8-0.7c8.8-1.7,16.7-6.6,22-13.9c5.8-7.4,7.9-17,5.9-26.1
				c-1.7-8.1-6.3-15.3-13.1-20.2c-8-6.3-18.4-8.7-28.4-6.6c-8.6,1.6-16.3,6.4-21.6,13.5c-5.9,7.7-8.2,16.5-6.3,26.1
				C99.9,156.5,115.5,168.2,131.3,168z"/>
			<path class="st0" d="M313.8,93.4c19.1-0.1,37,13.4,41.3,32.5c2.6,11.6-0.2,22.2-7.4,31.5c-14.1,18.4-40.3,22.3-59.1,8.7
				c-8.4-5.7-14.2-14.5-16.2-24.4c-2.3-11.2,0-21.4,6.7-30.6s15.8-14.7,26.9-16.9C308.6,93.7,311.2,93.5,313.8,93.4z M348.9,133.8
				c0.1-1.4,0.1-2.7,0-4.1c-3.1-18.5-19.9-31.5-38.6-29.7c-7,0.7-13.7,3.5-19.1,8c-7.4,5.8-12,14.4-12.7,23.7
				c-0.7,8.8,2.3,17.4,8.3,23.8c9.3,10.3,21,14.3,34.7,11.5C336.7,163.9,349.4,149.6,348.9,133.8z"/>
			<path class="st0" d="M424.6,94.5h6.6v2.3c0,16.5-0.1,33.1,0.1,49.6c0,3.2,0.5,6.4,1.4,9.5c1.5,5.6,5.8,8.6,11.1,10.4
				c7.2,2.7,15.3,1.9,21.8-2.2c4.1-2.4,6.7-6.5,7.2-11.2c0.5-3.7,0.7-7.5,0.7-11.2c0.1-14.9,0-29.8,0-44.7v-2.6h6.7v2.2
				c0,17.2,0.1,34.4,0,51.5c-0.1,13.2-6.5,21.4-19.7,25c-9.2,2.7-19.2,0.8-26.9-5c-4.9-3.4-8.1-8.8-8.7-14.7
				c-0.3-2.6-0.4-5.2-0.5-7.8c0-16.5,0-33.1,0-49.6C424.5,95.7,424.6,95.2,424.6,94.5z"/>
			<path class="st0" d="M191,173.2h-6.7V94.5c0.5,0,1-0.1,1.5-0.1c5.4,0,10.7-0.2,16.1,0s10.3,1.1,14.6,4.4
				c4.4,3.3,7.2,8.3,7.7,13.8c0.8,5-0.2,10.1-2.9,14.4c-3.5,5.6-8.7,8.5-15,9.1c-5,0.5-10,0.5-15.3,0.7L191,173.2z M191,130.3
				c3.8,0,7.4,0.2,11,0c7.6-0.4,14-4.5,15.4-12.6c0.9-5.3-1.9-13.6-8.6-15.4c-3.3-0.8-6.7-1.3-10.1-1.5c-2.5-0.2-5.1,0-7.7,0
				L191,130.3z"/>
			<path class="st0" d="M388,177.6l-29.9-83.2c2.3,0,4.3-0.1,6.2,0.1c0.5,0,1,0.8,1.2,1.4c5.9,16.2,11.7,32.3,17.5,48.5
				c1.7,4.6,3.3,9.3,5.2,14.4c2-5.7,3.9-10.8,5.8-16c5.6-15.6,11.1-31.2,16.7-46.8c0.4-1.2,1-1.8,2.4-1.7c1.6,0.1,3.3,0,5.2,0
				L388,177.6z"/>
			<path class="st0" d="M246.7,100.8h-20.4v-6.3H274v6.1h-20.3v72.5h-7L246.7,100.8z"/>
		</g>
		<path class="st0" d="M131.3,12.7c-8.6-0.1-17.1,0.8-25.4,2.6C53.8,25.7,14.1,70.8,9.5,123.1c-0.3,3.6-0.4,7.3-0.4,10.9
			c0,5.3,0.3,10.7,1,16c6.6,50.2,45.4,92.8,95.8,102.9c8.4,1.8,16.9,2.6,25.4,2.6c39.6-0.2,75.9-20.3,98.1-51.4
			c3.1-4.6,6-9.3,8.5-14.2c-2.2,0.4-4.1,1.6-5.4,3.4c-21,29.5-57.1,48.3-96.4,48.3c-55.5,0-98.3-36.5-106.9-89.5c0-0.1,0-0.1,0-0.2
			c-0.9-1.2-3.3-2.6-5.3-3.8c-4.1-2.4-8.9-5.3-10.6-10.2c-0.6-1.2-0.9-2.5-0.8-3.8c0-1.3,0.3-2.7,0.9-3.9c1.7-4.8,6.5-7.8,10.4-10.3
			c2.2-1.4,4.6-2.9,5.5-4.2c0-0.1,0-0.2,0.1-0.3C38.3,62.7,81,26.5,136.2,26.5c39.3,0,75.4,18.7,96.4,48.3c1.3,1.8,3.1,3,5.3,3.4
			c-2.4-4.8-5.2-9.4-8.2-13.8C207.4,33.1,171,12.9,131.3,12.7z"/>
		<path class="st1" d="M29.4,115.6c-6.2,3.9-18.3,7.9-18.3,18.4s10.6,13.2,18.2,17.7c-2.3-4.5-8.9-10.9-8.9-18.2
			S27.3,119.9,29.4,115.6z"/>
		<path class="st0" d="M247.7,85.4c-2.5,1.1-5.5,0.2-6.9-2.2c-0.9-1.6-1.9-3.2-2.9-4.8c0-0.1-0.1-0.2-0.1-0.2v-0.1
			c0.1,0,0.2,0,0.3,0.1c-0.2-0.3-0.4-0.7-0.5-1c-2.4-4.5-5.1-8.8-8-12.9c-8.7-12.7-19.7-23.6-32.4-32.1
			c-19.6-13.3-42.6-20.7-66.3-21.2c-22.7-0.4-45.1,5.5-64.7,17c13.4-9,28.4-15.2,44.2-18.4c56.4-11.9,110.9,16.2,136.9,62.7l0,0
			c1.1,2,2.1,4,3,6C251.5,81,250.4,84.2,247.7,85.4C247.7,85.4,247.7,85.4,247.7,85.4L247.7,85.4z"/>
		<path class="st0" d="M183.6,253C98.6,288.9,4.1,226.4,4.1,134S98.6-20.9,183.6,15c27,11.2,49.1,31.9,63,57.1
			c0.6-2.2,0.4-4.5-0.8-6.5C223.9,26.4,183,0,134,0C60,0,0,60,0,134s60,134,134,134c49,0,89.9-26.4,111.8-65.7
			c1.1-2,1.4-4.3,0.8-6.5C232.7,221.1,210.6,241.8,183.6,253z"/>
		<path class="st0" d="M240.8,184.7c-0.8,1.3-1.6,2.6-2.4,3.9c-0.2,0.4-0.4,0.7-0.5,1.1c0,0,0,0.1,0,0.1l0.3-0.1l0,0
			c-2.6,5-5.5,9.7-8.8,14.3c-8.6,12.6-19.6,23.4-32.3,31.9c-19.6,13.3-42.6,20.7-66.3,21.2c-21.9,0.4-43.5-5.1-62.7-15.8
			c12.9,8.2,27.1,14,42.1,17c56.4,11.9,110.9-16.2,136.9-62.8l0,0c1.1-2,2.1-4,3-6c1.3-2.7,0.1-5.9-2.6-7.1c0,0,0,0,0,0l0,0
			C245.2,181.4,242.2,182.3,240.8,184.7z"/>
		<path class="st0" d="M237.6,77.2c-2.4-4.5-5.1-8.8-8-12.9c3,4.4,5.8,9,8.2,13.8c0.1,0,0.2,0,0.3,0.1
			C237.9,77.9,237.7,77.6,237.6,77.2z"/>
		<path class="st0" d="M238.2,189.8L238.2,189.8l-0.3,0.1c-2.5,4.9-5.4,9.7-8.5,14.2C232.6,199.5,235.6,194.8,238.2,189.8z"/>
	</g>
</g>
</svg>
