<?xml version="1.0" encoding="utf-8"?>
<!-- Generator: Adobe Illustrator 23.1.0, SVG Export Plug-In . SVG Version: 6.00 Build 0)  -->
<svg version="1.1" id="Layer_1" xmlns="http://www.w3.org/2000/svg" xmlns:xlink="http://www.w3.org/1999/xlink" x="0px" y="0px"
	 viewBox="0 0 931.6 268" style="enable-background:new 0 0 931.6 268;" xml:space="preserve">
<style type="text/css">
	.st0{fill:#797979;}
</style>
<g>
	<g id="Pearson">
		<path class="st0" d="M0,138.2C-0.1,103.9,10.1,73,33,46.2c21.3-25,48.6-40.9,82.2-44.9c43.1-5.2,81.4,5.9,112.1,36.3
			c17.5,17.4,26,39,28.2,63c2.9,32.1-5.7,61.8-20.7,90.2c-13.8,26.1-33.6,46.8-60.3,61.2c-22.3,12-46.3,18-71.9,15.7
			C65.8,264.1,38,246.9,20,215.9c-11.1-19-17-39.6-19-61.3C0.6,149.2,0.3,143.7,0,138.2z M132.6,122.4L132.6,122.4
			c0-6.3,0.4-12.5,0.2-18.8c-0.2-6.8-2.2-9.8-9.2-10.3c-3.3-0.3-6.6-0.1-9.8,0.3c-11.2,1.9-14,5.2-13.8,16.1c0.4,19,0.9,38,1.4,57
			c0.2,6.7,0.3,13.4,1,20.1c0.8,7.7,4.9,10.6,13,9.3c10.9-1.8,15.9-6,15.7-16.2c0-1.3,0.2-2.7,0.2-4c-0.1-2.7,0.9-3.7,4-4
			c8.6-0.8,17.3-1.6,25.7-3.4c30.2-6.6,52.4-30.3,52.8-57.7c0.2-13.7-3.2-26.4-12.5-37.2c-9.4-11-21.9-18.9-35.9-22.6
			c-29.6-8-58.3-6.1-86,7.5c-11.7,5.6-22,13.6-30.3,23.5c-2.7,3.2-4.5,6.8-4.1,11.1c0.3,3.7,2.8,6.1,6.7,6.6s7-1.2,9.7-3.7
			c8.8-7.9,18.2-15.1,29.3-19.9c12.7-5.4,26.1-6.9,39.8-7.2c11-0.3,21.7,1.2,31.8,5.7c26.1,11.8,33,41.2,14,60.7
			c-11,11.3-25.5,16.3-41.2,18.3c-2.2,0.3-2.5-0.9-2.5-2.6C132.6,141.4,132.6,131.9,132.6,122.4z M116.3,229.9
			c8,0,13.8-4.8,13.7-11.8s-6.7-13.5-13.9-13.5c-7,0-13.3,6.5-13.3,13.6C102.9,225.1,108.3,229.8,116.3,229.9z"/>
		<path class="st0" d="M931.6,202.1c-1,0.5-2.2,0.8-3.3,0.9c-10.3,0.1-20.6,0-30.9,0c-0.8,0.1-1.6-0.1-2.3-0.4
			c-0.5-0.4-1.1-1.6-0.8-1.9c0.6-0.8,1.4-1.4,2.3-1.7c6-1.5,6.5-1.9,6.5-7.6c0-16.4,0-32.9-0.1-49.3c-0.1-2-0.3-4-0.6-6
			c-1.6-11.2-10-14-19.1-11.8c-9.9,2.4-15.8,9.5-20.2,17.9c-0.3,1-0.4,2-0.3,3c0,15.6,0,31.1,0,46.7c0,5.4,0.9,6.2,6.5,7.2
			c1.2,0.2,2.3,1.4,3.4,2.1c-1.2,0.6-2.4,1.8-3.6,1.8c-10.6,0.2-21.1,0.2-31.6,0c-1.1,0-2.2-1.1-3.3-1.7c1-0.8,1.9-2,2.9-2.2
			c7.3-1.3,7.7-1.6,7.7-8.6c0-20,0-40,0-60.1c0-7.2-0.9-8.2-8.2-10.4c-1-0.3-1.7-1.5-2.5-2.3c0.9-0.7,1.8-1.9,2.8-2
			c7.6-0.3,15.2-0.4,22.8-0.6c2.3,0,3,1.2,3,3.3c-0.1,3.9,0,7.8,0,12.7l3.2-3.7c7.3-8.3,16.5-13,28-13.3
			c16.8-0.3,26.8,8.7,26.9,24.7c0.2,16.9,0,33.8,0,50.7c0,8,0,8,8.2,9.5c0.9,0.3,1.8,0.6,2.6,1L931.6,202.1z"/>
		<path class="st0" d="M333,79.3c16.9,0,26.7,1.3,39.9,2.8c8.9,0.8,17.3,4.5,24,10.3c19.6,17.5,12.2,48.9-13.6,57.5
			c-9.2,3.1-18.7,4-28.4,4c-4.6,0-9.1,0-13.7-0.1c-2.2-0.1-3.1,0.7-3.1,2.9c0.1,10,0,19.9,0.1,29.9c0,5.8,2.5,9,8.3,10.6
			c2.9,0.8,6,0.9,8.9,1.7c1,0.3,1.8,1.5,2.7,2.3c-1,0.6-1.9,1.8-2.8,1.8c-17.7,0.1-35.4,0.1-53.1,0c-0.9,0-1.9-1.2-2.8-1.8
			c0.9-0.8,1.7-2,2.8-2.3c2.3-0.7,4.9-0.8,7.2-1.5c6.3-1.8,8.7-5,8.8-11.3c0-14.4,0-28.9,0-43.3c0-14.7,0-29.3,0-44
			c0-8.8-2.8-12.1-11.8-13.8c-1.1-0.2-2.3-0.3-3.5-0.5c-1.6-0.3-3.8-0.2-3.3-2.4c0.2-0.9,2.4-1.8,3.7-1.8
			C307.6,79.9,316.1,79.3,333,79.3z M338.9,85.2l-0.3,1c-0.1,0.2-0.2,0.4-0.2,0.6c0,19.7,0,39.3-0.1,59c0,2,1,2.5,2.8,2.5
			c6.5-0.2,13.1,0,19.6-0.7c13.6-1.4,21.9-8.4,23.4-20.3c0.8-6.6,0.9-13.4,0.1-20C383,96.1,376.5,89,365,87.1
			C356.4,85.6,347.6,85.7,338.9,85.2L338.9,85.2z"/>
		<path class="st0" d="M552,191.4c-5.8,4.9-12,9.5-19.3,11.8c-5.9,1.8-12.3,1.9-18.3,0.3c-4.2-1-8-3.1-11-6.2
			c-2.6-3-4.2-6.7-4.7-10.7c-0.6-4.2,0.1-8.5,2-12.3c2.4-4.8,6.9-8.4,11.7-11c11.1-6,24.2-7.4,36.4-11c0.8-0.2,1.5-0.5,2-1.1
			c0.5-0.8,0.7-1.7,0.5-2.7l-0.8-12.5c-0.3-5.1-0.9-10.9-5.1-14.2c-2.8-2.3-6.7-2.8-10.4-2.9c-6-0.1-12.4,1.3-16.2,5.7
			c4.3,3.6,5.7,10.2,2.9,14.9s-10,6.8-14.9,3.9s-6.2-9.5-4-14.6s7.1-8.6,12.4-10.7c11-4.5,23.1-5.4,34.6-2.6
			c5.8,1.5,11.5,4.4,14.9,9.2c4.3,6,4.4,13.7,4.3,21l-0.2,41.4c0,3.2,0.2,6.9,2.9,8.9c2.2,1.6,5.3,1.3,7.9,2
			c0.4,0.1,0.8,0.3,0.9,0.6s-0.2,0.8-0.5,1.1c-3.2,3-7.9,4.1-12.4,4.5c-4,0.3-8.5,0-11.5-2.6S552.7,195.2,552,191.4z M551.3,157.1
			c-10,2.6-19.3,4.7-26.9,10.7c-6.6,5-8.5,14-4.6,21.3c1.3,2.4,3.3,4.3,5.8,5.5c10.7,4.6,25.7-4.8,25.7-15.9c0-3.5,0-6.9,0-10.4
			V157.1z"/>
		<path class="st0" d="M829.6,160.2c-0.4,16.7-9.5,33.1-26.7,40.6c-0.8,0.4-1.7,0.7-2.5,1c-14.4,5.3-31.5,2.6-43.5-6.6
			c-19-15.1-22.9-42.4-9-62.3c14.6-20.5,45.3-24.8,65.2-8.8C824,132.9,830.1,146.2,829.6,160.2z M809.9,159.8c-0.1-3.9-0.5-8-1-11.8
			c-0.7-7.1-2.1-14-6.2-20.1c-2.9-4.4-7.4-7.5-12.6-8.5c-12-2.4-21.9,2.1-25.9,13.1c-2.4,7-3.8,14.3-4.3,21.6
			c-0.9,10.9-0.3,21.7,4,32.1c3.1,7.5,8.5,12.5,17.3,13.5c12.9,1.4,22.2-4.8,25.5-18c1.2-5.5,2.1-11.1,2.8-16.7
			c0.2-1.4,0.4-2.8,0.4-4.3C810,160.4,810,160.1,809.9,159.8z"/>
		<path class="st0" d="M456.4,153.8c-8.9,0-17.8,0.1-26.7,0c-2.6,0-3.5,0.7-3.5,3.2c0.1,8.5,1.2,16.8,5.5,24.3
			c9,15.8,29.8,19.4,44,7.6c2.5-2,4.4-4.6,6.8-6.8c0.9-0.8,2.4-1.1,3.7-1.6c0.1,1.3,0.7,2.9,0.1,4c-2.9,5.6-7.2,10.4-12.6,13.7
			c-19.1,11.8-51.1,8.4-63-18.1c-9.8-21.9-1.7-48.5,18.4-60.2c12.7-7.4,26.1-7.6,39.4-2c12,5,20.6,20.4,19,32.7
			c-0.4,2.6-1.9,3.3-4.4,3.3C474.2,153.8,465.3,153.8,456.4,153.8z M426.7,148.2c13.4,0,26.1,0,38.9-0.1c0.9-0.3,1.7-1,1.9-2
			c-0.3-5-0.4-10.1-1.5-14.9c-1.3-6-5.4-10.1-11.9-11.5c-7.1-1.6-13.6-0.3-18.5,5.1C429.6,131.3,427.8,139.3,426.7,148.2z"/>
		<path class="st0" d="M664.5,188.6c0.1-4.2,0.5-8.4,1.3-12.5c0.2-1.2,1-2.7,2.2-2.4c0.5,0.2,1,0.5,1.3,1c4.8,6.3,7.8,14,13.9,19.2
			c4.1,3.4,9.1,5.5,14.3,5.9c6.2,0.5,12.8-1.5,16.8-6s4.7-11.8,0.9-16.4c-1.9-2.1-4.2-3.7-6.8-4.8c-10.2-4.9-22-6.9-31.8-12.4
			c-3.4-1.9-6.7-4.3-8.7-7.6c-2.1-3.6-3-7.7-2.6-11.8c0.3-6.3,2.8-12.4,6.9-17.1c9.3-10.4,26.4-11.3,39.1-6.7c2.5,0.9,5.3,2,7.7,0.8
			c1.8-0.9,3.1-3.1,5.1-3c2,9.3,1.8,19-0.5,28.2c-6.2-5.2-9.3-13-15.4-18.3c-4-3.6-9.1-5.6-14.5-5.6c-5.3,0.1-10.7,2.6-13.5,7
			c-2.9,4.4-2.5,10.2,0.9,14.3c2,2,4.3,3.5,6.9,4.4c10,4.3,21.3,6.1,30.6,11.8c3.6,2,6.5,4.9,8.6,8.5c2.3,4.1,2.6,9,2.1,13.6
			c-0.4,5.6-2.5,10.9-5.8,15.4c-4.7,5.9-12.2,9.5-19.9,10.4s-15.6-0.6-22.8-3.3c-2.7-1-5.8-2.2-8.4-1c-2.4,1.1-4,4.1-6.6,3.6
			C664.9,198.7,664.5,193.7,664.5,188.6z"/>
		<path class="st0" d="M636.7,123.5c-5.3,1.2-8.7,4.1-11.9,7.5c-4,4.3-6.4,8.9-6.2,15.1c0.4,15,0.1,30,0.1,45c0,5.7,1.5,7.3,7.4,8
			c0.5,0.1,0.9,0.1,1.4,0.1c1.6,0.3,4.1-0.2,3.8,2.2c-0.5,3.9-32.8,2.9-36.9,1.8c-8.7-2.3,2.4-3.8,4.5-5.4s2-4,2-6.2
			c0-20.8,0-41.6,0-62.4c0-5.5-1.7-7.4-7.5-8.9c-1.2-0.3-2.1-1.6-3.2-2.4c1.3-0.7,2.5-1.9,3.8-2c6.9-0.4,13.8-0.4,20.7-0.7
			c2.8-0.1,4.1,0.9,4.1,3.7c-0.1,3.4,0,6.8,0,11.2c2.3-2.7,3.9-4.7,5.6-6.6c6-6.3,13.1-10.1,22.3-9c6.6,0.8,11.1,4.9,11.9,11
			c0.5,4.4-0.4,8.3-4.5,10.9c-3.7,2.4-8.5,2.5-12.3,0.3c-4.4-2.4-5.7-6.3-5.3-10.9C636.5,125.1,636.5,124.6,636.7,123.5z"/>
	</g>
</g>
</svg>
